G04 #@! TF.GenerationSoftware,KiCad,Pcbnew,6.0.4-6f826c9f35~116~ubuntu18.04.1*
G04 #@! TF.CreationDate,2023-06-15T13:07:36+01:00*
G04 #@! TF.ProjectId,sbc09,73626330-392e-46b6-9963-61645f706362,rev?*
G04 #@! TF.SameCoordinates,Original*
G04 #@! TF.FileFunction,Copper,L1,Top*
G04 #@! TF.FilePolarity,Positive*
%FSLAX46Y46*%
G04 Gerber Fmt 4.6, Leading zero omitted, Abs format (unit mm)*
G04 Created by KiCad (PCBNEW 6.0.4-6f826c9f35~116~ubuntu18.04.1) date 2023-06-15 13:07:36*
%MOMM*%
%LPD*%
G01*
G04 APERTURE LIST*
G04 Aperture macros list*
%AMRoundRect*
0 Rectangle with rounded corners*
0 $1 Rounding radius*
0 $2 $3 $4 $5 $6 $7 $8 $9 X,Y pos of 4 corners*
0 Add a 4 corners polygon primitive as box body*
4,1,4,$2,$3,$4,$5,$6,$7,$8,$9,$2,$3,0*
0 Add four circle primitives for the rounded corners*
1,1,$1+$1,$2,$3*
1,1,$1+$1,$4,$5*
1,1,$1+$1,$6,$7*
1,1,$1+$1,$8,$9*
0 Add four rect primitives between the rounded corners*
20,1,$1+$1,$2,$3,$4,$5,0*
20,1,$1+$1,$4,$5,$6,$7,0*
20,1,$1+$1,$6,$7,$8,$9,0*
20,1,$1+$1,$8,$9,$2,$3,0*%
G04 Aperture macros list end*
G04 #@! TA.AperFunction,ComponentPad*
%ADD10R,1.700000X1.700000*%
G04 #@! TD*
G04 #@! TA.AperFunction,ComponentPad*
%ADD11O,1.700000X1.700000*%
G04 #@! TD*
G04 #@! TA.AperFunction,ComponentPad*
%ADD12C,1.600000*%
G04 #@! TD*
G04 #@! TA.AperFunction,ComponentPad*
%ADD13O,1.600000X1.600000*%
G04 #@! TD*
G04 #@! TA.AperFunction,ComponentPad*
%ADD14R,1.600000X1.600000*%
G04 #@! TD*
G04 #@! TA.AperFunction,ComponentPad*
%ADD15RoundRect,0.250000X0.600000X0.600000X-0.600000X0.600000X-0.600000X-0.600000X0.600000X-0.600000X0*%
G04 #@! TD*
G04 #@! TA.AperFunction,ComponentPad*
%ADD16C,1.700000*%
G04 #@! TD*
G04 #@! TA.AperFunction,ComponentPad*
%ADD17RoundRect,0.250000X-0.845000X0.620000X-0.845000X-0.620000X0.845000X-0.620000X0.845000X0.620000X0*%
G04 #@! TD*
G04 #@! TA.AperFunction,ComponentPad*
%ADD18O,2.190000X1.740000*%
G04 #@! TD*
G04 #@! TA.AperFunction,ComponentPad*
%ADD19R,1.422400X1.422400*%
G04 #@! TD*
G04 #@! TA.AperFunction,ComponentPad*
%ADD20C,1.422400*%
G04 #@! TD*
G04 #@! TA.AperFunction,ComponentPad*
%ADD21R,1.800000X1.800000*%
G04 #@! TD*
G04 #@! TA.AperFunction,ComponentPad*
%ADD22C,1.800000*%
G04 #@! TD*
G04 #@! TA.AperFunction,ComponentPad*
%ADD23C,2.100000*%
G04 #@! TD*
G04 #@! TA.AperFunction,ComponentPad*
%ADD24C,1.750000*%
G04 #@! TD*
G04 #@! TA.AperFunction,ComponentPad*
%ADD25R,1.100000X1.800000*%
G04 #@! TD*
G04 #@! TA.AperFunction,ComponentPad*
%ADD26RoundRect,0.275000X0.275000X0.625000X-0.275000X0.625000X-0.275000X-0.625000X0.275000X-0.625000X0*%
G04 #@! TD*
G04 #@! TA.AperFunction,ViaPad*
%ADD27C,0.660400*%
G04 #@! TD*
G04 #@! TA.AperFunction,Conductor*
%ADD28C,0.203200*%
G04 #@! TD*
G04 APERTURE END LIST*
D10*
X107950000Y-53340000D03*
D11*
X107950000Y-55880000D03*
D10*
X100584000Y-55880000D03*
D11*
X103124000Y-55880000D03*
D12*
X182245000Y-80645000D03*
D13*
X182245000Y-70485000D03*
D14*
X154950008Y-101589992D03*
D13*
X154950008Y-104129992D03*
X154950008Y-106669992D03*
X154950008Y-109209992D03*
X154950008Y-111749992D03*
X154950008Y-114289992D03*
X154950008Y-116829992D03*
X154950008Y-119369992D03*
X162570008Y-119369992D03*
X162570008Y-116829992D03*
X162570008Y-114289992D03*
X162570008Y-111749992D03*
X162570008Y-109209992D03*
X162570008Y-106669992D03*
X162570008Y-104129992D03*
X162570008Y-101589992D03*
D12*
X139065000Y-48300000D03*
X139065000Y-53300000D03*
D10*
X107950000Y-67310000D03*
D11*
X107950000Y-69850000D03*
D15*
X103487500Y-125095000D03*
D16*
X100947500Y-125095000D03*
X103487500Y-122555000D03*
X100947500Y-122555000D03*
X103487500Y-120015000D03*
X100947500Y-120015000D03*
X103487500Y-117475000D03*
X100947500Y-117475000D03*
X103487500Y-114935000D03*
X100947500Y-114935000D03*
X103487500Y-112395000D03*
X100947500Y-112395000D03*
X103487500Y-109855000D03*
X100947500Y-109855000D03*
X103487500Y-107315000D03*
X100947500Y-107315000D03*
X103487500Y-104775000D03*
X100947500Y-104775000D03*
X103487500Y-102235000D03*
X100947500Y-102235000D03*
X103487500Y-99695000D03*
X100947500Y-99695000D03*
X103487500Y-97155000D03*
X100947500Y-97155000D03*
X103487500Y-94615000D03*
X100947500Y-94615000D03*
X103487500Y-92075000D03*
X100947500Y-92075000D03*
X103487500Y-89535000D03*
X100947500Y-89535000D03*
X103487500Y-86995000D03*
X100947500Y-86995000D03*
X103487500Y-84455000D03*
X100947500Y-84455000D03*
X103487500Y-81915000D03*
X100947500Y-81915000D03*
X103487500Y-79375000D03*
X100947500Y-79375000D03*
X103487500Y-76835000D03*
X100947500Y-76835000D03*
X103487500Y-74295000D03*
X100947500Y-74295000D03*
X103487500Y-71755000D03*
X100947500Y-71755000D03*
X103487500Y-69215000D03*
X100947500Y-69215000D03*
X103487500Y-66675000D03*
X100947500Y-66675000D03*
X103487500Y-64135000D03*
X100947500Y-64135000D03*
D12*
X144740000Y-100330000D03*
X139740000Y-100330000D03*
X180975000Y-114935000D03*
D13*
X180975000Y-104775000D03*
D10*
X107950000Y-73660000D03*
D11*
X107950000Y-76200000D03*
D10*
X172085000Y-47625000D03*
D11*
X172085000Y-50165000D03*
D17*
X183515000Y-134620000D03*
D18*
X183515000Y-137160000D03*
X183515000Y-139700000D03*
X183515000Y-142240000D03*
D14*
X166370000Y-132080000D03*
D13*
X166370000Y-134620000D03*
X166370000Y-137160000D03*
X166370000Y-139700000D03*
X166370000Y-142240000D03*
D14*
X114300000Y-60960000D03*
D13*
X114300000Y-63500000D03*
X114300000Y-66040000D03*
X114300000Y-68580000D03*
X114300000Y-71120000D03*
X114300000Y-73660000D03*
X114300000Y-76200000D03*
X121920000Y-76200000D03*
X121920000Y-73660000D03*
X121920000Y-71120000D03*
X121920000Y-68580000D03*
X121920000Y-66040000D03*
X121920000Y-63500000D03*
X121920000Y-60960000D03*
D14*
X119380000Y-96520000D03*
D13*
X121920000Y-96520000D03*
X124460000Y-96520000D03*
X127000000Y-96520000D03*
X129540000Y-96520000D03*
X132080000Y-96520000D03*
X134620000Y-96520000D03*
X137160000Y-96520000D03*
X139700000Y-96520000D03*
X142240000Y-96520000D03*
X144780000Y-96520000D03*
X147320000Y-96520000D03*
X149860000Y-96520000D03*
X152400000Y-96520000D03*
X154940000Y-96520000D03*
X157480000Y-96520000D03*
X160020000Y-96520000D03*
X162560000Y-96520000D03*
X165100000Y-96520000D03*
X167640000Y-96520000D03*
X167640000Y-81280000D03*
X165100000Y-81280000D03*
X162560000Y-81280000D03*
X160020000Y-81280000D03*
X157480000Y-81280000D03*
X154940000Y-81280000D03*
X152400000Y-81280000D03*
X149860000Y-81280000D03*
X147320000Y-81280000D03*
X144780000Y-81280000D03*
X142240000Y-81280000D03*
X139700000Y-81280000D03*
X137160000Y-81280000D03*
X134620000Y-81280000D03*
X132080000Y-81280000D03*
X129540000Y-81280000D03*
X127000000Y-81280000D03*
X124460000Y-81280000D03*
X121920000Y-81280000D03*
X119380000Y-81280000D03*
D14*
X128270000Y-48260000D03*
D13*
X128270000Y-50800000D03*
X128270000Y-53340000D03*
X128270000Y-55880000D03*
X128270000Y-58420000D03*
X128270000Y-60960000D03*
X128270000Y-63500000D03*
X128270000Y-66040000D03*
X128270000Y-68580000D03*
X128270000Y-71120000D03*
X128270000Y-73660000D03*
X128270000Y-76200000D03*
X135890000Y-76200000D03*
X135890000Y-73660000D03*
X135890000Y-71120000D03*
X135890000Y-68580000D03*
X135890000Y-66040000D03*
X135890000Y-63500000D03*
X135890000Y-60960000D03*
X135890000Y-58420000D03*
X135890000Y-55880000D03*
X135890000Y-53340000D03*
X135890000Y-50800000D03*
X135890000Y-48260000D03*
D12*
X153035000Y-48260000D03*
X153035000Y-53260000D03*
X187325000Y-107315000D03*
X187325000Y-112315000D03*
D19*
X168910000Y-58420000D03*
D20*
X166370000Y-55880000D03*
X166370000Y-58420000D03*
X163830000Y-55880000D03*
X163830000Y-58420000D03*
X161290000Y-55880000D03*
X158750000Y-58420000D03*
X161290000Y-58420000D03*
X158750000Y-60960000D03*
X161290000Y-60960000D03*
X158750000Y-63500000D03*
X161290000Y-63500000D03*
X158750000Y-66040000D03*
X161290000Y-66040000D03*
X158750000Y-68580000D03*
X161290000Y-68580000D03*
X158750000Y-71120000D03*
X161290000Y-73660000D03*
X161290000Y-71120000D03*
X163830000Y-73660000D03*
X163830000Y-71120000D03*
X166370000Y-73660000D03*
X166370000Y-71120000D03*
X168910000Y-73660000D03*
X168910000Y-71120000D03*
X171450000Y-73660000D03*
X171450000Y-71120000D03*
X173990000Y-73660000D03*
X176530000Y-71120000D03*
X173990000Y-71120000D03*
X176530000Y-68580000D03*
X173990000Y-68580000D03*
X176530000Y-66040000D03*
X173990000Y-66040000D03*
X176530000Y-63500000D03*
X173990000Y-63500000D03*
X176530000Y-60960000D03*
X173990000Y-60960000D03*
X176530000Y-58420000D03*
X173990000Y-55880000D03*
X173990000Y-58420000D03*
X171450000Y-55880000D03*
X171450000Y-58420000D03*
X168910000Y-55880000D03*
D10*
X192405000Y-101600000D03*
D11*
X192405000Y-99060000D03*
X192405000Y-96520000D03*
X192405000Y-93980000D03*
X192405000Y-91440000D03*
X192405000Y-88900000D03*
D10*
X107950000Y-60325000D03*
D11*
X107950000Y-62865000D03*
D14*
X114300000Y-100330000D03*
D13*
X114300000Y-97790000D03*
X114300000Y-95250000D03*
X114300000Y-92710000D03*
X114300000Y-90170000D03*
X114300000Y-87630000D03*
X114300000Y-85090000D03*
X114300000Y-82550000D03*
X114300000Y-80010000D03*
D14*
X114300000Y-55880000D03*
D12*
X121920000Y-55880000D03*
X121920000Y-48260000D03*
X114300000Y-48260000D03*
X111125000Y-142240000D03*
D13*
X111125000Y-132080000D03*
D21*
X191770000Y-81890000D03*
D22*
X191770000Y-79350000D03*
D12*
X182245000Y-55245000D03*
X182245000Y-60245000D03*
D23*
X192582000Y-106700000D03*
X192582000Y-113710000D03*
D24*
X195072000Y-107950000D03*
X195072000Y-112450000D03*
D10*
X107950000Y-80010000D03*
D11*
X107950000Y-82550000D03*
D14*
X186075000Y-50165000D03*
D13*
X183535000Y-50165000D03*
X180995000Y-50165000D03*
X178455000Y-50165000D03*
X175915000Y-50165000D03*
D12*
X177760000Y-97790000D03*
X172760000Y-97790000D03*
D14*
X166370000Y-109300000D03*
D13*
X166370000Y-111840000D03*
X166370000Y-114380000D03*
X166370000Y-116920000D03*
X166370000Y-119460000D03*
D14*
X154950008Y-124479990D03*
D13*
X154950008Y-127019990D03*
X154950008Y-129559990D03*
X154950008Y-132099990D03*
X154950008Y-134639990D03*
X154950008Y-137179990D03*
X154950008Y-139719990D03*
X154950008Y-142259990D03*
X162570008Y-142259990D03*
X162570008Y-139719990D03*
X162570008Y-137179990D03*
X162570008Y-134639990D03*
X162570008Y-132099990D03*
X162570008Y-129559990D03*
X162570008Y-127019990D03*
X162570008Y-124479990D03*
D14*
X170180000Y-124460000D03*
D13*
X170180000Y-127000000D03*
X170180000Y-129540000D03*
X170180000Y-132080000D03*
X170180000Y-134620000D03*
X170180000Y-137160000D03*
X170180000Y-139700000D03*
X170180000Y-142240000D03*
X177800000Y-142240000D03*
X177800000Y-139700000D03*
X177800000Y-137160000D03*
X177800000Y-134620000D03*
X177800000Y-132080000D03*
X177800000Y-129540000D03*
X177800000Y-127000000D03*
X177800000Y-124460000D03*
D12*
X134580000Y-100330000D03*
X129580000Y-100330000D03*
D10*
X107950000Y-90170000D03*
D11*
X107950000Y-92710000D03*
X107950000Y-95250000D03*
D25*
X183769000Y-99295000D03*
D26*
X182499000Y-101365000D03*
X181229000Y-99295000D03*
D10*
X192405000Y-131445000D03*
D11*
X192405000Y-128905000D03*
X192405000Y-126365000D03*
X192405000Y-123825000D03*
X192405000Y-121285000D03*
X192405000Y-118745000D03*
D12*
X125095000Y-61000000D03*
X125095000Y-66000000D03*
X184150000Y-104775000D03*
D13*
X184150000Y-114935000D03*
D12*
X181610000Y-123905000D03*
X181610000Y-128905000D03*
X166370000Y-123825000D03*
X166370000Y-128825000D03*
X166370000Y-100965000D03*
X166370000Y-105965000D03*
D14*
X100965000Y-132779888D03*
D12*
X100965000Y-135279888D03*
D14*
X142240000Y-48260000D03*
D13*
X142240000Y-50800000D03*
X142240000Y-53340000D03*
X142240000Y-55880000D03*
X142240000Y-58420000D03*
X142240000Y-60960000D03*
X142240000Y-63500000D03*
X142240000Y-66040000D03*
X142240000Y-68580000D03*
X142240000Y-71120000D03*
X142240000Y-73660000D03*
X142240000Y-76200000D03*
X149860000Y-76200000D03*
X149860000Y-73660000D03*
X149860000Y-71120000D03*
X149860000Y-68580000D03*
X149860000Y-66040000D03*
X149860000Y-63500000D03*
X149860000Y-60960000D03*
X149860000Y-58420000D03*
X149860000Y-55880000D03*
X149860000Y-53340000D03*
X149860000Y-50800000D03*
X149860000Y-48260000D03*
D12*
X124420000Y-100330000D03*
X119420000Y-100330000D03*
D10*
X168275000Y-47625000D03*
D11*
X168275000Y-50165000D03*
D14*
X173355000Y-92710000D03*
D12*
X180975000Y-92710000D03*
X180975000Y-85090000D03*
X173355000Y-85090000D03*
D14*
X134620000Y-104140000D03*
D13*
X134620000Y-106680000D03*
X134620000Y-109220000D03*
X134620000Y-111760000D03*
X134620000Y-114300000D03*
X134620000Y-116840000D03*
X134620000Y-119380000D03*
X134620000Y-121920000D03*
X134620000Y-124460000D03*
X134620000Y-127000000D03*
X134620000Y-129540000D03*
X134620000Y-132080000D03*
X134620000Y-134620000D03*
X134620000Y-137160000D03*
X134620000Y-139700000D03*
X134620000Y-142240000D03*
X149860000Y-142240000D03*
X149860000Y-139700000D03*
X149860000Y-137160000D03*
X149860000Y-134620000D03*
X149860000Y-132080000D03*
X149860000Y-129540000D03*
X149860000Y-127000000D03*
X149860000Y-124460000D03*
X149860000Y-121920000D03*
X149860000Y-119380000D03*
X149860000Y-116840000D03*
X149860000Y-114300000D03*
X149860000Y-111760000D03*
X149860000Y-109220000D03*
X149860000Y-106680000D03*
X149860000Y-104140000D03*
D10*
X164465000Y-47625000D03*
D11*
X164465000Y-50165000D03*
D12*
X139065000Y-63420000D03*
X139065000Y-58420000D03*
D14*
X170169992Y-101589992D03*
D13*
X170169992Y-104129992D03*
X170169992Y-106669992D03*
X170169992Y-109209992D03*
X170169992Y-111749992D03*
X170169992Y-114289992D03*
X170169992Y-116829992D03*
X170169992Y-119369992D03*
X177789992Y-119369992D03*
X177789992Y-116829992D03*
X177789992Y-114289992D03*
X177789992Y-111749992D03*
X177789992Y-109209992D03*
X177789992Y-106669992D03*
X177789992Y-104129992D03*
X177789992Y-101589992D03*
D14*
X114300000Y-104140000D03*
D13*
X114300000Y-106680000D03*
X114300000Y-109220000D03*
X114300000Y-111760000D03*
X114300000Y-114300000D03*
X114300000Y-116840000D03*
X114300000Y-119380000D03*
X114300000Y-121920000D03*
X114300000Y-124460000D03*
X114300000Y-127000000D03*
X114300000Y-129540000D03*
X114300000Y-132080000D03*
X114300000Y-134620000D03*
X114300000Y-137160000D03*
X114300000Y-139700000D03*
X114300000Y-142240000D03*
X129540000Y-142240000D03*
X129540000Y-139700000D03*
X129540000Y-137160000D03*
X129540000Y-134620000D03*
X129540000Y-132080000D03*
X129540000Y-129540000D03*
X129540000Y-127000000D03*
X129540000Y-124460000D03*
X129540000Y-121920000D03*
X129540000Y-119380000D03*
X129540000Y-116840000D03*
X129540000Y-114300000D03*
X129540000Y-111760000D03*
X129540000Y-109220000D03*
X129540000Y-106680000D03*
X129540000Y-104140000D03*
D12*
X139065000Y-66040000D03*
D13*
X139065000Y-76200000D03*
D10*
X192450000Y-71730000D03*
D11*
X192450000Y-69190000D03*
X192450000Y-66650000D03*
X192450000Y-64110000D03*
X192450000Y-61570000D03*
X192450000Y-59030000D03*
D10*
X182245000Y-66680000D03*
D11*
X182245000Y-64140000D03*
D27*
X166370000Y-63500000D03*
X132080000Y-88900000D03*
X157480000Y-115570000D03*
X132080000Y-78740000D03*
X131445000Y-83185000D03*
X157480000Y-88900000D03*
X162560000Y-53975000D03*
X188595000Y-68580000D03*
X189230000Y-62840000D03*
X189865000Y-64770000D03*
X190500000Y-60300000D03*
X184150000Y-57125000D03*
X187325000Y-73000000D03*
X186690000Y-74270000D03*
X186055000Y-75540000D03*
X120650000Y-86360000D03*
X117475000Y-109220000D03*
X117475000Y-93980000D03*
X140335000Y-143510000D03*
X140335000Y-109220000D03*
X123190000Y-59690000D03*
X127000000Y-87630000D03*
X106680000Y-87630000D03*
X105410000Y-91440000D03*
X129540000Y-88900000D03*
X144780000Y-68580000D03*
X143510000Y-85090000D03*
X129540000Y-85090000D03*
X118110000Y-85725000D03*
X132715000Y-85725000D03*
X118110000Y-66040000D03*
X99060000Y-58420000D03*
X115570000Y-91440000D03*
X115570000Y-83820000D03*
X156845000Y-52070000D03*
X156845000Y-60960000D03*
X135890000Y-91440000D03*
X136525000Y-110490000D03*
X139700000Y-91440000D03*
X124460000Y-90170000D03*
X105410000Y-90170000D03*
X116840000Y-92710000D03*
X116840000Y-81280000D03*
X123190000Y-94615000D03*
X128905000Y-78740000D03*
X123190000Y-78740000D03*
X129540000Y-74930000D03*
X130175000Y-64770000D03*
X126365000Y-73660000D03*
X119380000Y-72390000D03*
X119380000Y-94615000D03*
X139065000Y-72390000D03*
X134620000Y-72390000D03*
X173990000Y-48895000D03*
X168275000Y-52705000D03*
X172085000Y-53340000D03*
X178435000Y-53340000D03*
X137160000Y-84455000D03*
X128270000Y-85090000D03*
X109855000Y-85090000D03*
X123825000Y-63500000D03*
X139700000Y-138430000D03*
X139700000Y-107950000D03*
X105410000Y-54610000D03*
X132080000Y-143510000D03*
X121285000Y-98425000D03*
X132080000Y-106045000D03*
X132080000Y-111125000D03*
X121285000Y-110490000D03*
X98425000Y-57150000D03*
X169545000Y-75565000D03*
X170815000Y-76200000D03*
X144780000Y-88265000D03*
X146050000Y-76200000D03*
X173355000Y-120650000D03*
X174625000Y-90170000D03*
X158115000Y-102870000D03*
X158115000Y-117475000D03*
X139065000Y-140970000D03*
X139065000Y-106680000D03*
X146685000Y-78740000D03*
X112395000Y-108585000D03*
X147955000Y-83185000D03*
X147320000Y-122555000D03*
X147955000Y-78740000D03*
X150495000Y-83185000D03*
X148590000Y-120650000D03*
X147320000Y-53340000D03*
X113030000Y-110490000D03*
X167640000Y-87630000D03*
X134620000Y-64770000D03*
X136525000Y-87630000D03*
X136525000Y-83185000D03*
X120015000Y-128270000D03*
X134620000Y-78740000D03*
X121920000Y-86360000D03*
X122555000Y-99060000D03*
X122555000Y-114300000D03*
X151765000Y-67310000D03*
X153670000Y-63500000D03*
X153670000Y-86360000D03*
X174625000Y-87630000D03*
X147955000Y-94615000D03*
X159385000Y-111760000D03*
X159385000Y-134620000D03*
X159385000Y-98425000D03*
X131445000Y-68580000D03*
X168910000Y-76835000D03*
X111760000Y-78105000D03*
X116840000Y-52070000D03*
X116205000Y-49530000D03*
X133985000Y-83185000D03*
X133350000Y-78740000D03*
X152400000Y-118110000D03*
X152400000Y-86360000D03*
X134620000Y-86360000D03*
X115570000Y-113030000D03*
X146685000Y-98425000D03*
X146685000Y-115570000D03*
X133350000Y-86995000D03*
X155575000Y-86995000D03*
X160020000Y-118110000D03*
X125730000Y-119380000D03*
X127635000Y-121920000D03*
X128270000Y-89535000D03*
X130810000Y-78740000D03*
X127635000Y-83185000D03*
X163830000Y-89535000D03*
X139065000Y-93345000D03*
X119380000Y-102870000D03*
X139700000Y-78740000D03*
X139065000Y-83185000D03*
X119380000Y-123190000D03*
X145415000Y-60960000D03*
X142875000Y-83185000D03*
X116205000Y-125730000D03*
X145415000Y-103505000D03*
X142240000Y-92710000D03*
X145415000Y-78740000D03*
X145415000Y-113030000D03*
X154305000Y-78105000D03*
X154305000Y-64770000D03*
X158115000Y-134620000D03*
X158750000Y-110490000D03*
X163830000Y-110490000D03*
X162560000Y-83820000D03*
X161290000Y-107950000D03*
X128270000Y-83820000D03*
X156845000Y-86995000D03*
X178435000Y-91440000D03*
X156210000Y-71120000D03*
X160655000Y-98425000D03*
X160655000Y-114300000D03*
X150495000Y-93980000D03*
X160655000Y-137160000D03*
X137795000Y-128270000D03*
X168910000Y-107950000D03*
X158115000Y-133350000D03*
X158115000Y-129540000D03*
X173990000Y-129540000D03*
X173990000Y-106680000D03*
X109855000Y-103505000D03*
X137160000Y-132080000D03*
X160020000Y-132715000D03*
X168910000Y-110490000D03*
X174625000Y-132080000D03*
X138430000Y-129540000D03*
X160020000Y-130175000D03*
X164465000Y-109220000D03*
X174625000Y-109220000D03*
X110490000Y-104775000D03*
X158750000Y-91440000D03*
X142240000Y-127635000D03*
X142875000Y-91440000D03*
X111125000Y-106045000D03*
X164465000Y-92075000D03*
X163195000Y-75565000D03*
X157480000Y-75565000D03*
X144780000Y-125730000D03*
X144780000Y-92075000D03*
X111760000Y-107315000D03*
X153035000Y-106680000D03*
X153035000Y-132080000D03*
X104775000Y-130810000D03*
X158750000Y-106680000D03*
X160020000Y-77470000D03*
X162560000Y-77470000D03*
X151765000Y-134620000D03*
X170180000Y-82550000D03*
X105410000Y-133350000D03*
X151765000Y-104140000D03*
X153670000Y-135890000D03*
X163830000Y-78740000D03*
X106045000Y-135890000D03*
X152400000Y-84455000D03*
X171450000Y-83185000D03*
X108585000Y-138430000D03*
X151130000Y-105410000D03*
X112395000Y-140970000D03*
X158750000Y-77470000D03*
X147955000Y-142240000D03*
X147955000Y-128270000D03*
X146050000Y-140335000D03*
X146050000Y-125730000D03*
X172085000Y-84455000D03*
X147320000Y-85090000D03*
X143510000Y-90170000D03*
X143510000Y-137795000D03*
X143510000Y-123190000D03*
X161290000Y-90805000D03*
X152400000Y-135890000D03*
X174625000Y-86360000D03*
X152400000Y-128270000D03*
X140970000Y-134620000D03*
X142240000Y-85725000D03*
X145415000Y-59690000D03*
X141605000Y-98425000D03*
X141605000Y-120650000D03*
X140335000Y-94615000D03*
X120015000Y-76200000D03*
X118745000Y-63500000D03*
X116840000Y-105410000D03*
X139065000Y-71120000D03*
D28*
X131445000Y-83185000D02*
X132080000Y-83820000D01*
X132080000Y-83820000D02*
X132080000Y-88900000D01*
X157480000Y-88900000D02*
X157480000Y-96520000D01*
X157480000Y-96520000D02*
X157480000Y-115570000D01*
X132080000Y-64770000D02*
X128310000Y-61000000D01*
X132080000Y-78740000D02*
X132080000Y-64770000D01*
X162560000Y-53975000D02*
X162560000Y-56515000D01*
X161290000Y-57785000D02*
X162560000Y-56515000D01*
X161290000Y-58420000D02*
X161290000Y-57785000D01*
X188595000Y-68580000D02*
X188595000Y-95250000D01*
X188595000Y-95250000D02*
X192405000Y-99060000D01*
X189230000Y-90805000D02*
X189230000Y-62840000D01*
X192405000Y-93980000D02*
X189230000Y-90805000D01*
X189865000Y-88900000D02*
X192405000Y-91440000D01*
X189865000Y-64770000D02*
X189865000Y-88900000D01*
X190500000Y-86995000D02*
X192405000Y-88900000D01*
X190500000Y-60300000D02*
X190500000Y-86995000D01*
X184150000Y-57125000D02*
X187960000Y-60935000D01*
X191135000Y-122555000D02*
X192405000Y-123825000D01*
X191135000Y-99060000D02*
X191135000Y-122555000D01*
X187960000Y-60960000D02*
X187960000Y-95885000D01*
X187960000Y-95885000D02*
X191135000Y-99060000D01*
X187325000Y-96520000D02*
X190500000Y-99695000D01*
X187325000Y-73000000D02*
X187325000Y-96520000D01*
X190500000Y-124460000D02*
X192405000Y-126365000D01*
X190500000Y-99695000D02*
X190500000Y-124460000D01*
X186690000Y-97155000D02*
X189865000Y-100330000D01*
X189865000Y-126365000D02*
X192405000Y-128905000D01*
X189865000Y-100330000D02*
X189865000Y-126365000D01*
X186690000Y-74270000D02*
X186690000Y-97155000D01*
X189230000Y-128270000D02*
X192405000Y-131445000D01*
X186055000Y-97790000D02*
X189230000Y-100965000D01*
X189230000Y-100965000D02*
X189230000Y-128270000D01*
X186055000Y-75540000D02*
X186055000Y-97790000D01*
X120650000Y-86360000D02*
X120650000Y-69860000D01*
X120650000Y-69860000D02*
X121930000Y-68580000D01*
X140335000Y-143510000D02*
X140335000Y-109220000D01*
X117475000Y-109220000D02*
X117475000Y-93980000D01*
X123190000Y-49530000D02*
X121920000Y-48260000D01*
X123190000Y-59690000D02*
X123190000Y-64780000D01*
X123190000Y-49530000D02*
X123190000Y-59690000D01*
X123190000Y-64780000D02*
X121930000Y-66040000D01*
X137160000Y-79375000D02*
X137160000Y-67310000D01*
X129540000Y-129540000D02*
X131445000Y-127635000D01*
X135890000Y-90170000D02*
X135890000Y-80645000D01*
X131445000Y-103505000D02*
X133350000Y-101600000D01*
X137160000Y-67310000D02*
X135930000Y-66080000D01*
X133350000Y-92710000D02*
X135890000Y-90170000D01*
X133350000Y-101600000D02*
X133350000Y-92710000D01*
X131445000Y-127635000D02*
X131445000Y-103505000D01*
X135890000Y-80645000D02*
X137160000Y-79375000D01*
X105410000Y-91440000D02*
X105410000Y-92710000D01*
X105410000Y-92710000D02*
X107950000Y-95250000D01*
X106680000Y-90170000D02*
X106680000Y-87630000D01*
X127000000Y-87630000D02*
X127000000Y-96520000D01*
X105410000Y-91440000D02*
X106680000Y-90170000D01*
X129540000Y-96520000D02*
X129540000Y-88900000D01*
X143510000Y-78740000D02*
X143510000Y-85090000D01*
X144780000Y-68580000D02*
X144780000Y-77470000D01*
X144780000Y-77470000D02*
X143510000Y-78740000D01*
X129540000Y-85090000D02*
X129540000Y-88900000D01*
X118110000Y-85725000D02*
X118110000Y-66040000D01*
X132080000Y-82550000D02*
X132080000Y-81915000D01*
X132715000Y-85725000D02*
X132715000Y-83185000D01*
X132715000Y-83185000D02*
X132080000Y-82550000D01*
X99060000Y-58420000D02*
X99060000Y-85107500D01*
X99060000Y-85107500D02*
X100947500Y-86995000D01*
X142240000Y-50800000D02*
X143510000Y-52070000D01*
X141605000Y-59690000D02*
X140970000Y-60325000D01*
X139700000Y-79692500D02*
X140970000Y-78422500D01*
X115570000Y-83820000D02*
X115570000Y-81280000D01*
X115570000Y-91440000D02*
X115570000Y-83820000D01*
X143510000Y-52070000D02*
X143510000Y-59055000D01*
X143510000Y-59055000D02*
X142875000Y-59690000D01*
X135890000Y-97790000D02*
X135890000Y-91440000D01*
X142875000Y-59690000D02*
X141605000Y-59690000D01*
X136525000Y-110490000D02*
X136525000Y-98425000D01*
X136525000Y-98425000D02*
X135890000Y-97790000D01*
X156845000Y-60960000D02*
X156845000Y-52070000D01*
X139700000Y-91440000D02*
X139700000Y-81280000D01*
X140970000Y-78422500D02*
X140970000Y-60325000D01*
X115570000Y-81280000D02*
X114300000Y-80010000D01*
X139700000Y-81280000D02*
X139700000Y-79692500D01*
X103487500Y-81915000D02*
X105410000Y-83837500D01*
X105410000Y-83837500D02*
X105410000Y-90170000D01*
X124460000Y-90170000D02*
X124460000Y-96520000D01*
X116840000Y-92710000D02*
X116840000Y-81280000D01*
X123190000Y-94615000D02*
X123190000Y-78740000D01*
X128905000Y-78740000D02*
X129540000Y-78105000D01*
X129540000Y-78105000D02*
X129540000Y-74930000D01*
X130175000Y-64770000D02*
X127635000Y-64770000D01*
X127000000Y-74295000D02*
X127000000Y-81280000D01*
X173990000Y-60960000D02*
X172720000Y-62230000D01*
X173355000Y-72390000D02*
X174625000Y-72390000D01*
X172720000Y-71755000D02*
X173355000Y-72390000D01*
X126365000Y-73660000D02*
X127000000Y-74295000D01*
X172720000Y-62230000D02*
X172720000Y-71755000D01*
X175260000Y-73025000D02*
X175260000Y-80645000D01*
X183769000Y-92329000D02*
X183769000Y-99695000D01*
X174625000Y-72390000D02*
X175260000Y-73025000D01*
X175260000Y-80645000D02*
X176530000Y-81915000D01*
X127000000Y-65405000D02*
X127000000Y-73025000D01*
X127000000Y-73025000D02*
X126365000Y-73660000D01*
X176530000Y-81915000D02*
X176530000Y-85090000D01*
X127635000Y-64770000D02*
X127000000Y-65405000D01*
X176530000Y-85090000D02*
X183769000Y-92329000D01*
X119380000Y-81280000D02*
X119380000Y-72390000D01*
X119380000Y-94615000D02*
X119380000Y-81280000D01*
X135890000Y-78740000D02*
X135890000Y-80010000D01*
X134620000Y-72390000D02*
X134620000Y-77470000D01*
X139065000Y-72390000D02*
X139065000Y-76200000D01*
X134620000Y-77470000D02*
X135890000Y-78740000D01*
X135890000Y-80010000D02*
X134620000Y-81280000D01*
X173990000Y-55880000D02*
X173990000Y-48895000D01*
X166370000Y-58420000D02*
X167640000Y-57150000D01*
X167640000Y-57150000D02*
X167640000Y-53340000D01*
X167640000Y-53340000D02*
X168275000Y-52705000D01*
X171450000Y-58420000D02*
X170180000Y-57150000D01*
X170180000Y-55245000D02*
X172085000Y-53340000D01*
X172085000Y-50165000D02*
X172085000Y-53340000D01*
X170180000Y-57150000D02*
X170180000Y-55245000D01*
X178435000Y-53340000D02*
X178435000Y-50185000D01*
X137160000Y-81280000D02*
X137160000Y-84455000D01*
X109855000Y-78105000D02*
X107950000Y-76200000D01*
X128270000Y-85090000D02*
X129540000Y-83820000D01*
X129540000Y-83820000D02*
X129540000Y-81280000D01*
X109855000Y-85090000D02*
X109855000Y-78105000D01*
X123825000Y-67310000D02*
X124460000Y-67945000D01*
X124460000Y-67945000D02*
X124460000Y-81280000D01*
X123825000Y-63500000D02*
X123825000Y-67310000D01*
X139700000Y-138430000D02*
X139700000Y-107950000D01*
X102235000Y-62865000D02*
X105410000Y-59690000D01*
X121285000Y-98425000D02*
X121285000Y-110490000D01*
X105410000Y-59690000D02*
X105410000Y-54610000D01*
X102235000Y-73025000D02*
X102235000Y-62865000D01*
X132080000Y-143510000D02*
X132080000Y-111125000D01*
X132080000Y-111125000D02*
X132080000Y-106045000D01*
X100965000Y-74295000D02*
X102235000Y-73025000D01*
X102217500Y-88265000D02*
X103487500Y-89535000D01*
X98425000Y-86995000D02*
X99695000Y-88265000D01*
X99695000Y-88265000D02*
X102217500Y-88265000D01*
X98425000Y-57150000D02*
X98425000Y-86995000D01*
X113030000Y-96520000D02*
X113030000Y-69860000D01*
X114300000Y-97790000D02*
X113030000Y-96520000D01*
X113030000Y-69860000D02*
X114310000Y-68580000D01*
X113030000Y-67300000D02*
X114310000Y-68580000D01*
X114300000Y-60960000D02*
X113030000Y-62230000D01*
X113030000Y-62230000D02*
X113030000Y-67300000D01*
X169545000Y-75565000D02*
X169545000Y-97790000D01*
X169545000Y-97790000D02*
X171450000Y-99695000D01*
X171450000Y-113030000D02*
X170190000Y-114290000D01*
X171450000Y-99695000D02*
X171450000Y-113030000D01*
X170815000Y-97790000D02*
X172085000Y-99060000D01*
X172085000Y-114935000D02*
X172065000Y-114935000D01*
X170815000Y-76200000D02*
X170815000Y-97790000D01*
X172085000Y-99060000D02*
X172085000Y-114935000D01*
X172065000Y-114935000D02*
X170170000Y-116830000D01*
X146050000Y-76200000D02*
X146050000Y-85090000D01*
X144780000Y-86360000D02*
X144780000Y-88265000D01*
X174625000Y-97790000D02*
X173355000Y-99060000D01*
X173355000Y-99060000D02*
X173355000Y-120650000D01*
X174625000Y-90170000D02*
X174625000Y-97790000D01*
X146050000Y-85090000D02*
X144780000Y-86360000D01*
X158115000Y-117475000D02*
X158115000Y-102870000D01*
X139065000Y-140970000D02*
X139065000Y-106680000D01*
X146685000Y-52705000D02*
X142240000Y-48260000D01*
X147955000Y-83185000D02*
X147955000Y-93345000D01*
X147955000Y-93345000D02*
X147320000Y-93980000D01*
X112395000Y-108585000D02*
X112395000Y-120015000D01*
X147320000Y-96520000D02*
X147320000Y-122555000D01*
X146685000Y-78740000D02*
X146685000Y-52705000D01*
X112395000Y-120015000D02*
X114300000Y-121920000D01*
X147320000Y-93980000D02*
X147320000Y-96520000D01*
X149860000Y-96520000D02*
X149860000Y-85725000D01*
X113030000Y-118110000D02*
X114300000Y-119380000D01*
X148590000Y-99060000D02*
X148590000Y-120650000D01*
X113030000Y-110490000D02*
X113030000Y-118110000D01*
X150495000Y-85090000D02*
X150495000Y-83185000D01*
X149860000Y-96520000D02*
X149860000Y-97790000D01*
X149860000Y-97790000D02*
X148590000Y-99060000D01*
X147955000Y-53975000D02*
X147955000Y-78740000D01*
X147320000Y-53340000D02*
X147955000Y-53975000D01*
X149860000Y-85725000D02*
X150495000Y-85090000D01*
X133985000Y-78105000D02*
X133985000Y-65405000D01*
X121920000Y-86995000D02*
X120650000Y-88265000D01*
X120015000Y-128270000D02*
X120015000Y-102235000D01*
X120650000Y-101600000D02*
X120650000Y-88265000D01*
X121920000Y-86360000D02*
X121920000Y-86995000D01*
X136525000Y-83185000D02*
X136525000Y-87630000D01*
X134620000Y-78740000D02*
X133985000Y-78105000D01*
X167640000Y-81280000D02*
X167640000Y-87630000D01*
X133985000Y-65405000D02*
X134620000Y-64770000D01*
X120015000Y-102235000D02*
X120650000Y-101600000D01*
X149860000Y-50800000D02*
X151765000Y-52705000D01*
X151765000Y-52705000D02*
X151765000Y-67310000D01*
X122555000Y-99060000D02*
X122555000Y-114300000D01*
X176530000Y-89535000D02*
X176530000Y-110490000D01*
X176530000Y-110490000D02*
X177790000Y-111750000D01*
X176530000Y-133350000D02*
X177800000Y-134620000D01*
X153670000Y-86360000D02*
X153670000Y-63500000D01*
X174625000Y-87630000D02*
X176530000Y-89535000D01*
X176530000Y-113010000D02*
X176530000Y-133350000D01*
X177790000Y-111750000D02*
X176530000Y-113010000D01*
X159385000Y-134620000D02*
X159385000Y-111760000D01*
X148590000Y-93980000D02*
X148590000Y-67310000D01*
X148590000Y-67310000D02*
X149860000Y-66040000D01*
X147955000Y-94615000D02*
X148590000Y-93980000D01*
X159385000Y-111760000D02*
X159385000Y-98425000D01*
X131445000Y-79375000D02*
X130810000Y-80010000D01*
X130810000Y-123190000D02*
X129540000Y-124460000D01*
X130810000Y-80010000D02*
X130810000Y-123190000D01*
X131445000Y-68580000D02*
X131445000Y-79375000D01*
X107950000Y-92710000D02*
X109855000Y-92710000D01*
X109855000Y-92710000D02*
X111760000Y-90805000D01*
X111760000Y-78105000D02*
X111760000Y-90805000D01*
X168910000Y-73660000D02*
X168910000Y-76835000D01*
X116840000Y-68590000D02*
X114310000Y-71120000D01*
X116840000Y-52070000D02*
X116840000Y-68590000D01*
X116205000Y-61605000D02*
X114310000Y-63500000D01*
X116205000Y-49530000D02*
X116205000Y-61605000D01*
X152400000Y-86360000D02*
X152400000Y-96520000D01*
X134620000Y-86360000D02*
X134620000Y-83820000D01*
X152400000Y-118110000D02*
X152400000Y-96520000D01*
X134620000Y-83820000D02*
X133985000Y-83185000D01*
X133350000Y-60960000D02*
X128310000Y-55920000D01*
X115570000Y-115570000D02*
X114300000Y-116840000D01*
X133350000Y-78740000D02*
X133350000Y-60960000D01*
X115570000Y-113030000D02*
X115570000Y-115570000D01*
X154940000Y-87630000D02*
X154940000Y-96520000D01*
X132715000Y-62865000D02*
X128270000Y-58420000D01*
X133350000Y-80010000D02*
X132715000Y-79375000D01*
X132715000Y-79375000D02*
X132715000Y-62865000D01*
X155575000Y-86995000D02*
X154940000Y-87630000D01*
X133350000Y-86995000D02*
X133350000Y-80010000D01*
X146685000Y-115570000D02*
X146685000Y-98425000D01*
X160020000Y-96520000D02*
X160020000Y-118110000D01*
X126365000Y-64770000D02*
X126365000Y-67310000D01*
X127635000Y-63500000D02*
X126365000Y-64770000D01*
X126365000Y-67310000D02*
X125730000Y-67945000D01*
X125730000Y-67945000D02*
X125730000Y-119380000D01*
X127635000Y-83185000D02*
X127635000Y-86995000D01*
X128270000Y-87630000D02*
X128270000Y-89535000D01*
X130810000Y-66675000D02*
X130175000Y-66040000D01*
X163830000Y-89535000D02*
X163830000Y-93980000D01*
X130135000Y-66080000D02*
X128270000Y-66080000D01*
X128270000Y-122555000D02*
X128270000Y-125730000D01*
X127635000Y-86995000D02*
X128270000Y-87630000D01*
X128270000Y-125730000D02*
X129540000Y-127000000D01*
X127635000Y-121920000D02*
X128270000Y-122555000D01*
X163830000Y-93980000D02*
X162560000Y-95250000D01*
X162560000Y-95250000D02*
X162560000Y-96520000D01*
X130810000Y-78740000D02*
X130810000Y-66675000D01*
X130175000Y-66040000D02*
X130135000Y-66080000D01*
X128270000Y-121285000D02*
X128270000Y-89535000D01*
X127635000Y-121920000D02*
X128270000Y-121285000D01*
X119380000Y-102870000D02*
X119380000Y-123190000D01*
X140335000Y-59690000D02*
X141605000Y-58420000D01*
X140335000Y-78105000D02*
X140335000Y-59690000D01*
X139065000Y-93345000D02*
X139065000Y-83185000D01*
X139700000Y-78740000D02*
X140335000Y-78105000D01*
X142240000Y-90805000D02*
X142240000Y-92710000D01*
X115570000Y-111760000D02*
X116205000Y-112395000D01*
X145415000Y-78740000D02*
X145415000Y-60960000D01*
X145415000Y-103505000D02*
X145415000Y-113030000D01*
X116205000Y-125730000D02*
X116205000Y-112395000D01*
X114300000Y-111760000D02*
X115570000Y-111760000D01*
X142875000Y-90170000D02*
X142240000Y-90805000D01*
X142875000Y-83185000D02*
X142875000Y-90170000D01*
X158115000Y-141605000D02*
X158115000Y-134620000D01*
X103505000Y-129540000D02*
X103505000Y-139700000D01*
X158750000Y-133985000D02*
X158750000Y-110490000D01*
X100947500Y-122572500D02*
X99695000Y-123825000D01*
X163830000Y-95250000D02*
X163830000Y-110490000D01*
X103505000Y-139700000D02*
X108585000Y-144780000D01*
X99695000Y-125730000D02*
X103505000Y-129540000D01*
X154305000Y-78105000D02*
X154305000Y-64770000D01*
X158115000Y-134620000D02*
X158750000Y-133985000D01*
X165100000Y-93980000D02*
X163830000Y-95250000D01*
X165100000Y-81290000D02*
X165100000Y-93980000D01*
X99695000Y-123825000D02*
X99695000Y-125730000D01*
X154940000Y-144780000D02*
X158115000Y-141605000D01*
X108585000Y-144780000D02*
X154940000Y-144780000D01*
X161290000Y-95250000D02*
X161290000Y-107950000D01*
X156210000Y-142875000D02*
X154940000Y-144145000D01*
X102870000Y-123190000D02*
X102870000Y-122555000D01*
X162560000Y-93980000D02*
X161290000Y-95250000D01*
X156210000Y-133360000D02*
X156210000Y-142875000D01*
X128270000Y-83820000D02*
X128270000Y-80645000D01*
X109220000Y-144145000D02*
X104140000Y-139065000D01*
X156210000Y-110470000D02*
X154950000Y-109210000D01*
X156210000Y-130810000D02*
X156210000Y-110470000D01*
X104140000Y-139065000D02*
X104140000Y-128270000D01*
X154940000Y-144145000D02*
X109220000Y-144145000D01*
X130175000Y-69215000D02*
X129580000Y-68620000D01*
X104140000Y-128270000D02*
X102235000Y-126365000D01*
X102235000Y-123825000D02*
X102870000Y-123190000D01*
X154950000Y-132070000D02*
X156210000Y-130810000D01*
X162560000Y-81290000D02*
X162560000Y-93980000D01*
X128270000Y-80645000D02*
X130175000Y-78740000D01*
X130175000Y-78740000D02*
X130175000Y-69215000D01*
X102235000Y-126365000D02*
X102235000Y-123825000D01*
X129580000Y-68620000D02*
X128270000Y-68620000D01*
X154950000Y-132100000D02*
X156210000Y-133360000D01*
X179070000Y-135890000D02*
X177800000Y-137160000D01*
X156210000Y-86360000D02*
X156210000Y-71120000D01*
X179070000Y-113010000D02*
X177790000Y-114290000D01*
X178435000Y-91440000D02*
X179070000Y-92075000D01*
X177790000Y-114290000D02*
X179070000Y-115570000D01*
X156845000Y-86995000D02*
X156210000Y-86360000D01*
X179070000Y-115570000D02*
X179070000Y-135890000D01*
X179070000Y-92075000D02*
X179070000Y-113010000D01*
X150495000Y-93980000D02*
X150495000Y-85725000D01*
X151130000Y-85090000D02*
X151130000Y-74930000D01*
X150495000Y-85725000D02*
X151130000Y-85090000D01*
X160655000Y-98425000D02*
X160655000Y-114300000D01*
X160655000Y-137160000D02*
X160655000Y-114300000D01*
X151130000Y-74930000D02*
X149860000Y-73660000D01*
X137795000Y-98425000D02*
X138430000Y-97790000D01*
X138430000Y-97790000D02*
X138430000Y-80010000D01*
X138430000Y-80010000D02*
X137795000Y-79375000D01*
X137795000Y-128270000D02*
X137795000Y-98425000D01*
X137795000Y-65405000D02*
X135930000Y-63540000D01*
X137795000Y-79375000D02*
X137795000Y-65405000D01*
X158115000Y-129540000D02*
X158115000Y-133350000D01*
X168910000Y-80010000D02*
X167640000Y-78740000D01*
X168910000Y-107950000D02*
X168910000Y-80010000D01*
X173990000Y-106680000D02*
X173990000Y-129540000D01*
X137160000Y-132080000D02*
X137160000Y-96520000D01*
X167640000Y-78740000D02*
X167640000Y-61595000D01*
X109855000Y-127635000D02*
X114300000Y-132080000D01*
X165100000Y-59055000D02*
X167640000Y-61595000D01*
X165100000Y-57150000D02*
X165100000Y-59055000D01*
X166370000Y-55880000D02*
X165100000Y-57150000D01*
X109855000Y-103505000D02*
X109855000Y-127635000D01*
X163830000Y-130840000D02*
X163830000Y-130810000D01*
X162570000Y-132100000D02*
X163830000Y-130840000D01*
X164465000Y-108585000D02*
X165100000Y-107950000D01*
X138430000Y-99695000D02*
X139700000Y-98425000D01*
X139700000Y-98425000D02*
X139700000Y-96520000D01*
X163830000Y-55880000D02*
X163830000Y-56515000D01*
X167640000Y-99060000D02*
X167640000Y-109220000D01*
X173355000Y-130810000D02*
X174625000Y-132080000D01*
X165100000Y-75565000D02*
X166370000Y-76835000D01*
X163830000Y-130810000D02*
X173355000Y-130810000D01*
X138430000Y-129540000D02*
X138430000Y-99695000D01*
X160020000Y-130175000D02*
X160020000Y-132715000D01*
X166370000Y-97790000D02*
X167640000Y-99060000D01*
X165100000Y-107950000D02*
X167640000Y-107950000D01*
X167640000Y-109220000D02*
X168910000Y-110490000D01*
X165100000Y-61595000D02*
X165100000Y-75565000D01*
X110490000Y-125730000D02*
X114300000Y-129540000D01*
X166370000Y-76835000D02*
X166370000Y-97790000D01*
X163830000Y-56515000D02*
X162560000Y-57785000D01*
X162560000Y-59055000D02*
X165100000Y-61595000D01*
X162560000Y-57785000D02*
X162560000Y-59055000D01*
X110490000Y-104775000D02*
X110490000Y-125730000D01*
X174625000Y-132080000D02*
X174625000Y-109220000D01*
X164465000Y-109220000D02*
X164465000Y-108585000D01*
X142875000Y-91440000D02*
X142875000Y-94615000D01*
X111125000Y-106045000D02*
X111125000Y-123825000D01*
X158750000Y-80010000D02*
X158115000Y-79375000D01*
X160020000Y-57150000D02*
X161290000Y-55880000D01*
X158115000Y-73660000D02*
X160020000Y-71755000D01*
X158115000Y-79375000D02*
X158115000Y-73660000D01*
X158750000Y-91440000D02*
X158750000Y-80010000D01*
X142240000Y-96520000D02*
X142240000Y-127635000D01*
X142875000Y-94615000D02*
X142240000Y-95250000D01*
X142240000Y-95250000D02*
X142240000Y-96520000D01*
X160020000Y-71755000D02*
X160020000Y-57150000D01*
X111125000Y-123825000D02*
X114300000Y-127000000D01*
X157480000Y-75565000D02*
X157480000Y-59690000D01*
X144780000Y-96520000D02*
X144780000Y-98425000D01*
X163195000Y-75565000D02*
X163195000Y-79375000D01*
X157480000Y-59690000D02*
X158750000Y-58420000D01*
X143510000Y-99695000D02*
X143510000Y-100965000D01*
X111760000Y-121920000D02*
X114300000Y-124460000D01*
X144780000Y-102235000D02*
X144780000Y-125730000D01*
X143510000Y-100965000D02*
X144780000Y-102235000D01*
X111760000Y-107315000D02*
X111760000Y-121920000D01*
X144780000Y-98425000D02*
X143510000Y-99695000D01*
X144780000Y-96520000D02*
X144780000Y-92075000D01*
X163830000Y-80010000D02*
X163830000Y-82550000D01*
X163195000Y-79375000D02*
X163830000Y-80010000D01*
X163830000Y-82550000D02*
X164465000Y-83185000D01*
X164465000Y-83185000D02*
X164465000Y-92075000D01*
X104775000Y-103522500D02*
X103487500Y-102235000D01*
X162560000Y-77470000D02*
X162560000Y-72390000D01*
X160020000Y-81280000D02*
X160020000Y-77470000D01*
X162560000Y-72390000D02*
X163830000Y-71120000D01*
X160020000Y-93980000D02*
X160020000Y-81280000D01*
X158750000Y-106680000D02*
X158750000Y-95250000D01*
X104775000Y-130810000D02*
X104775000Y-103522500D01*
X153035000Y-132080000D02*
X153035000Y-106680000D01*
X158750000Y-95250000D02*
X160020000Y-93980000D01*
X156210000Y-88900000D02*
X157485000Y-87625000D01*
X105410000Y-102235000D02*
X105410000Y-133350000D01*
X151765000Y-134620000D02*
X151765000Y-104140000D01*
X100965000Y-102235000D02*
X102235000Y-100965000D01*
X102235000Y-100965000D02*
X104140000Y-100965000D01*
X170180000Y-72390000D02*
X168910000Y-71120000D01*
X156210000Y-102870000D02*
X156210000Y-88900000D01*
X154950000Y-104130000D02*
X156210000Y-102870000D01*
X157485000Y-87625000D02*
X157485000Y-81285000D01*
X170180000Y-82550000D02*
X170180000Y-72390000D01*
X104140000Y-100965000D02*
X105410000Y-102235000D01*
X153670000Y-100330000D02*
X153690000Y-100330000D01*
X106045000Y-101600000D02*
X106045000Y-135890000D01*
X163830000Y-78740000D02*
X163830000Y-73660000D01*
X154950000Y-101590000D02*
X153670000Y-102870000D01*
X153690000Y-100330000D02*
X154950000Y-101590000D01*
X154940000Y-86360000D02*
X153670000Y-87630000D01*
X153670000Y-102870000D02*
X153670000Y-135890000D01*
X154940000Y-81280000D02*
X154940000Y-86360000D01*
X153670000Y-87630000D02*
X153670000Y-100330000D01*
X104140000Y-99695000D02*
X106045000Y-101600000D01*
X106680000Y-100965000D02*
X104140000Y-98425000D01*
X152400000Y-84455000D02*
X152400000Y-85090000D01*
X152400000Y-85090000D02*
X151130000Y-86360000D01*
X151130000Y-105410000D02*
X151130000Y-138430000D01*
X102235000Y-98425000D02*
X100965000Y-99695000D01*
X106680000Y-136525000D02*
X106680000Y-100965000D01*
X151130000Y-138430000D02*
X149860000Y-139700000D01*
X151130000Y-86360000D02*
X151130000Y-105410000D01*
X152400000Y-81280000D02*
X152400000Y-84455000D01*
X171450000Y-73660000D02*
X171450000Y-83185000D01*
X108585000Y-138430000D02*
X106680000Y-136525000D01*
X104140000Y-98425000D02*
X102235000Y-98425000D01*
X147955000Y-98425000D02*
X148590000Y-97790000D01*
X112395000Y-140970000D02*
X107315000Y-135890000D01*
X147955000Y-128270000D02*
X147955000Y-98425000D01*
X149860000Y-85090000D02*
X149860000Y-81280000D01*
X107315000Y-100330000D02*
X104140000Y-97155000D01*
X161290000Y-71755000D02*
X161290000Y-71120000D01*
X147955000Y-142240000D02*
X147955000Y-128270000D01*
X158750000Y-77470000D02*
X158750000Y-74295000D01*
X148590000Y-97790000D02*
X148590000Y-95250000D01*
X158750000Y-74295000D02*
X161290000Y-71755000D01*
X149225000Y-85725000D02*
X149860000Y-85090000D01*
X107315000Y-135890000D02*
X107315000Y-100330000D01*
X148590000Y-95250000D02*
X149225000Y-94615000D01*
X149225000Y-94615000D02*
X149225000Y-85725000D01*
X107950000Y-99695000D02*
X107950000Y-134620000D01*
X113030000Y-139700000D02*
X107950000Y-134620000D01*
X147320000Y-85090000D02*
X147320000Y-81280000D01*
X104140000Y-95885000D02*
X107950000Y-99695000D01*
X147320000Y-85090000D02*
X146050000Y-86360000D01*
X172085000Y-84455000D02*
X172085000Y-81280000D01*
X171450000Y-71755000D02*
X171450000Y-71120000D01*
X146050000Y-86360000D02*
X146050000Y-125730000D01*
X102235000Y-95885000D02*
X104140000Y-95885000D01*
X172085000Y-81280000D02*
X172720000Y-80645000D01*
X172720000Y-73025000D02*
X171450000Y-71755000D01*
X100965000Y-97155000D02*
X102235000Y-95885000D01*
X146050000Y-125730000D02*
X146050000Y-140335000D01*
X113030000Y-139700000D02*
X114300000Y-139700000D01*
X172720000Y-80645000D02*
X172720000Y-73025000D01*
X142875000Y-101600000D02*
X142875000Y-99060000D01*
X142875000Y-99060000D02*
X143510000Y-98425000D01*
X143510000Y-137795000D02*
X143510000Y-123190000D01*
X143510000Y-123190000D02*
X143510000Y-102235000D01*
X113030000Y-137160000D02*
X114300000Y-137160000D01*
X161290000Y-90805000D02*
X161290000Y-73660000D01*
X143510000Y-98425000D02*
X143510000Y-86360000D01*
X108585000Y-132715000D02*
X113030000Y-137160000D01*
X144780000Y-85090000D02*
X144780000Y-81280000D01*
X104140000Y-94615000D02*
X108585000Y-99060000D01*
X143510000Y-86360000D02*
X144780000Y-85090000D01*
X143510000Y-102235000D02*
X142875000Y-101600000D01*
X108585000Y-99060000D02*
X108585000Y-132715000D01*
X104140000Y-93345000D02*
X109220000Y-98425000D01*
X142240000Y-85725000D02*
X142240000Y-81280000D01*
X174625000Y-81280000D02*
X173990000Y-80645000D01*
X111760000Y-134620000D02*
X114300000Y-134620000D01*
X152400000Y-128270000D02*
X152400000Y-135890000D01*
X173990000Y-80645000D02*
X173990000Y-73660000D01*
X142240000Y-89535000D02*
X141605000Y-90170000D01*
X109220000Y-98425000D02*
X109220000Y-132080000D01*
X109220000Y-132080000D02*
X111760000Y-134620000D01*
X102235000Y-93345000D02*
X104140000Y-93345000D01*
X174625000Y-86360000D02*
X174625000Y-81280000D01*
X141605000Y-94615000D02*
X140970000Y-95250000D01*
X100965000Y-94615000D02*
X102235000Y-93345000D01*
X142240000Y-85725000D02*
X142240000Y-89535000D01*
X141605000Y-90170000D02*
X141605000Y-94615000D01*
X140970000Y-95250000D02*
X140970000Y-134620000D01*
X140970000Y-89535000D02*
X140335000Y-90170000D01*
X140335000Y-90170000D02*
X140335000Y-94615000D01*
X140970000Y-80010000D02*
X140970000Y-89535000D01*
X144145000Y-60960000D02*
X144145000Y-76835000D01*
X141605000Y-120650000D02*
X141605000Y-98425000D01*
X145415000Y-59690000D02*
X144145000Y-60960000D01*
X144145000Y-76835000D02*
X140970000Y-80010000D01*
X173990000Y-58420000D02*
X175915000Y-56495000D01*
X175915000Y-56495000D02*
X175915000Y-50165000D01*
X120015000Y-64770000D02*
X120015000Y-76200000D01*
X118745000Y-63500000D02*
X120015000Y-64770000D01*
X112395000Y-100965000D02*
X112395000Y-60325000D01*
X112395000Y-60325000D02*
X107950000Y-55880000D01*
X113665000Y-102235000D02*
X112395000Y-100965000D01*
X111125000Y-132080000D02*
X112395000Y-133350000D01*
X112395000Y-133350000D02*
X116205000Y-133350000D01*
X116840000Y-105410000D02*
X116840000Y-104140000D01*
X116840000Y-104140000D02*
X114935000Y-102235000D01*
X114935000Y-102235000D02*
X113665000Y-102235000D01*
X116205000Y-133350000D02*
X116840000Y-132715000D01*
X116840000Y-132715000D02*
X116840000Y-105410000D01*
X173990000Y-63500000D02*
X175260000Y-64770000D01*
X175260000Y-71755000D02*
X178435000Y-74930000D01*
X175260000Y-64770000D02*
X175260000Y-71755000D01*
X178435000Y-82550000D02*
X180975000Y-85090000D01*
X178435000Y-74930000D02*
X178435000Y-82550000D01*
X139065000Y-63420000D02*
X139065000Y-66040000D01*
X139065000Y-71120000D02*
X139065000Y-66040000D01*
M02*
