G04 #@! TF.GenerationSoftware,KiCad,Pcbnew,6.0.4-6f826c9f35~116~ubuntu18.04.1*
G04 #@! TF.CreationDate,2023-06-15T13:07:36+01:00*
G04 #@! TF.ProjectId,sbc09,73626330-392e-46b6-9963-61645f706362,rev?*
G04 #@! TF.SameCoordinates,Original*
G04 #@! TF.FileFunction,Legend,Bot*
G04 #@! TF.FilePolarity,Positive*
%FSLAX46Y46*%
G04 Gerber Fmt 4.6, Leading zero omitted, Abs format (unit mm)*
G04 Created by KiCad (PCBNEW 6.0.4-6f826c9f35~116~ubuntu18.04.1) date 2023-06-15 13:07:36*
%MOMM*%
%LPD*%
G01*
G04 APERTURE LIST*
G04 Aperture macros list*
%AMRoundRect*
0 Rectangle with rounded corners*
0 $1 Rounding radius*
0 $2 $3 $4 $5 $6 $7 $8 $9 X,Y pos of 4 corners*
0 Add a 4 corners polygon primitive as box body*
4,1,4,$2,$3,$4,$5,$6,$7,$8,$9,$2,$3,0*
0 Add four circle primitives for the rounded corners*
1,1,$1+$1,$2,$3*
1,1,$1+$1,$4,$5*
1,1,$1+$1,$6,$7*
1,1,$1+$1,$8,$9*
0 Add four rect primitives between the rounded corners*
20,1,$1+$1,$2,$3,$4,$5,0*
20,1,$1+$1,$4,$5,$6,$7,0*
20,1,$1+$1,$6,$7,$8,$9,0*
20,1,$1+$1,$8,$9,$2,$3,0*%
%AMFreePoly0*
4,1,37,0.535921,0.785921,0.550800,0.750000,0.550800,-0.750000,0.535921,-0.785921,0.500000,-0.800800,0.000000,-0.800800,-0.012526,-0.795612,-0.080872,-0.794359,-0.095090,-0.792057,-0.230405,-0.749782,-0.243405,-0.743581,-0.361415,-0.665026,-0.372153,-0.655426,-0.463373,-0.546907,-0.470984,-0.534678,-0.528079,-0.404919,-0.531952,-0.391047,-0.549535,-0.256587,-0.548147,-0.256405,-0.550800,-0.250000,
-0.550800,0.250000,-0.550314,0.251174,-0.550158,0.263925,-0.528347,0.404002,-0.524136,0.417775,-0.463888,0.546100,-0.455980,0.558139,-0.362136,0.664397,-0.351168,0.673732,-0.231273,0.749380,-0.218125,0.755261,-0.081818,0.794218,-0.067547,0.796173,-0.011991,0.795833,0.000000,0.800800,0.500000,0.800800,0.535921,0.785921,0.535921,0.785921,$1*%
%AMFreePoly1*
4,1,37,0.012350,0.795685,0.074215,0.795307,0.088460,0.793178,0.224281,0.752559,0.237356,0.746518,0.356318,0.669411,0.367173,0.659942,0.459711,0.552545,0.467470,0.540411,0.526147,0.411359,0.530190,0.397535,0.550287,0.257202,0.550800,0.250000,0.550800,-0.250000,0.550796,-0.250620,0.550647,-0.262836,0.549947,-0.270644,0.526427,-0.410445,0.522048,-0.424167,0.460236,-0.551746,
0.452182,-0.563686,0.357047,-0.668790,0.345965,-0.677991,0.225155,-0.752168,0.211936,-0.757888,0.075163,-0.795177,0.060870,-0.796957,0.011464,-0.796051,0.000000,-0.800800,-0.500000,-0.800800,-0.535921,-0.785921,-0.550800,-0.750000,-0.550800,0.750000,-0.535921,0.785921,-0.500000,0.800800,0.000000,0.800800,0.012350,0.795685,0.012350,0.795685,$1*%
G04 Aperture macros list end*
%ADD10C,0.150000*%
%ADD11C,0.120000*%
%ADD12RoundRect,0.050800X-0.850000X-0.850000X0.850000X-0.850000X0.850000X0.850000X-0.850000X0.850000X0*%
%ADD13O,1.801600X1.801600*%
%ADD14RoundRect,0.050800X0.850000X-0.850000X0.850000X0.850000X-0.850000X0.850000X-0.850000X-0.850000X0*%
%ADD15C,1.701600*%
%ADD16O,1.701600X1.701600*%
%ADD17RoundRect,0.050800X-0.800000X-0.800000X0.800000X-0.800000X0.800000X0.800000X-0.800000X0.800000X0*%
%ADD18RoundRect,0.300800X0.600000X0.600000X-0.600000X0.600000X-0.600000X-0.600000X0.600000X-0.600000X0*%
%ADD19C,1.801600*%
%ADD20C,2.801600*%
%ADD21RoundRect,0.300800X-0.845000X0.620000X-0.845000X-0.620000X0.845000X-0.620000X0.845000X0.620000X0*%
%ADD22O,2.291600X1.841600*%
%ADD23RoundRect,0.050800X-0.800000X0.800000X-0.800000X-0.800000X0.800000X-0.800000X0.800000X0.800000X0*%
%ADD24RoundRect,0.050800X0.800000X-0.800000X0.800000X0.800000X-0.800000X0.800000X-0.800000X-0.800000X0*%
%ADD25RoundRect,0.050800X-0.711200X-0.711200X0.711200X-0.711200X0.711200X0.711200X-0.711200X0.711200X0*%
%ADD26C,1.524000*%
%ADD27RoundRect,0.050800X0.850000X0.850000X-0.850000X0.850000X-0.850000X-0.850000X0.850000X-0.850000X0*%
%ADD28RoundRect,0.050800X0.900000X-0.900000X0.900000X0.900000X-0.900000X0.900000X-0.900000X-0.900000X0*%
%ADD29C,1.901600*%
%ADD30C,2.201600*%
%ADD31C,1.851600*%
%ADD32RoundRect,0.050800X0.800000X0.800000X-0.800000X0.800000X-0.800000X-0.800000X0.800000X-0.800000X0*%
%ADD33RoundRect,0.050800X0.550000X0.900000X-0.550000X0.900000X-0.550000X-0.900000X0.550000X-0.900000X0*%
%ADD34RoundRect,0.325800X0.275000X0.625000X-0.275000X0.625000X-0.275000X-0.625000X0.275000X-0.625000X0*%
%ADD35FreePoly0,180.000000*%
%ADD36FreePoly1,180.000000*%
G04 APERTURE END LIST*
D10*
X165774523Y-61152380D02*
X165774523Y-61866666D01*
X165822142Y-62009523D01*
X165917380Y-62104761D01*
X166060238Y-62152380D01*
X166155476Y-62152380D01*
X165298333Y-62152380D02*
X165298333Y-61152380D01*
X164917380Y-61152380D01*
X164822142Y-61200000D01*
X164774523Y-61247619D01*
X164726904Y-61342857D01*
X164726904Y-61485714D01*
X164774523Y-61580952D01*
X164822142Y-61628571D01*
X164917380Y-61676190D01*
X165298333Y-61676190D01*
X163774523Y-62152380D02*
X164345952Y-62152380D01*
X164060238Y-62152380D02*
X164060238Y-61152380D01*
X164155476Y-61295238D01*
X164250714Y-61390476D01*
X164345952Y-61438095D01*
X163393571Y-61247619D02*
X163345952Y-61200000D01*
X163250714Y-61152380D01*
X163012619Y-61152380D01*
X162917380Y-61200000D01*
X162869761Y-61247619D01*
X162822142Y-61342857D01*
X162822142Y-61438095D01*
X162869761Y-61580952D01*
X163441190Y-62152380D01*
X162822142Y-62152380D01*
D11*
X165165000Y-62500000D02*
X163765000Y-62500000D01*
X163765000Y-64500000D02*
X165165000Y-64500000D01*
X163065000Y-63200000D02*
X163065000Y-63800000D01*
X165865000Y-63800000D02*
X165865000Y-63200000D01*
X163765000Y-62500000D02*
G75*
G03*
X163065000Y-63200000I0J-700000D01*
G01*
X163065000Y-63800000D02*
G75*
G03*
X163765000Y-64500000I700000J0D01*
G01*
X165865000Y-63200000D02*
G75*
G03*
X165165000Y-62500000I-699999J1D01*
G01*
X165165000Y-64500000D02*
G75*
G03*
X165865000Y-63800000I1J699999D01*
G01*
%LPC*%
D12*
X107950000Y-53340000D03*
D13*
X107950000Y-55880000D03*
D14*
X100584000Y-55880000D03*
D13*
X103124000Y-55880000D03*
D15*
X182245000Y-80645000D03*
D16*
X182245000Y-70485000D03*
D17*
X154950008Y-101589992D03*
D16*
X154950008Y-104129992D03*
X154950008Y-106669992D03*
X154950008Y-109209992D03*
X154950008Y-111749992D03*
X154950008Y-114289992D03*
X154950008Y-116829992D03*
X154950008Y-119369992D03*
X162570008Y-119369992D03*
X162570008Y-116829992D03*
X162570008Y-114289992D03*
X162570008Y-111749992D03*
X162570008Y-109209992D03*
X162570008Y-106669992D03*
X162570008Y-104129992D03*
X162570008Y-101589992D03*
D15*
X139065000Y-48300000D03*
X139065000Y-53300000D03*
D12*
X107950000Y-67310000D03*
D13*
X107950000Y-69850000D03*
D18*
X103487500Y-125095000D03*
D19*
X100947500Y-125095000D03*
X103487500Y-122555000D03*
X100947500Y-122555000D03*
X103487500Y-120015000D03*
X100947500Y-120015000D03*
X103487500Y-117475000D03*
X100947500Y-117475000D03*
X103487500Y-114935000D03*
X100947500Y-114935000D03*
X103487500Y-112395000D03*
X100947500Y-112395000D03*
X103487500Y-109855000D03*
X100947500Y-109855000D03*
X103487500Y-107315000D03*
X100947500Y-107315000D03*
X103487500Y-104775000D03*
X100947500Y-104775000D03*
X103487500Y-102235000D03*
X100947500Y-102235000D03*
X103487500Y-99695000D03*
X100947500Y-99695000D03*
X103487500Y-97155000D03*
X100947500Y-97155000D03*
X103487500Y-94615000D03*
X100947500Y-94615000D03*
X103487500Y-92075000D03*
X100947500Y-92075000D03*
X103487500Y-89535000D03*
X100947500Y-89535000D03*
X103487500Y-86995000D03*
X100947500Y-86995000D03*
X103487500Y-84455000D03*
X100947500Y-84455000D03*
X103487500Y-81915000D03*
X100947500Y-81915000D03*
X103487500Y-79375000D03*
X100947500Y-79375000D03*
X103487500Y-76835000D03*
X100947500Y-76835000D03*
X103487500Y-74295000D03*
X100947500Y-74295000D03*
X103487500Y-71755000D03*
X100947500Y-71755000D03*
X103487500Y-69215000D03*
X100947500Y-69215000D03*
X103487500Y-66675000D03*
X100947500Y-66675000D03*
X103487500Y-64135000D03*
X100947500Y-64135000D03*
D15*
X144740000Y-100330000D03*
X139740000Y-100330000D03*
D20*
X99695000Y-141605000D03*
X192405000Y-141605000D03*
D15*
X180975000Y-114935000D03*
D16*
X180975000Y-104775000D03*
D12*
X107950000Y-73660000D03*
D13*
X107950000Y-76200000D03*
D12*
X172085000Y-47625000D03*
D13*
X172085000Y-50165000D03*
D21*
X183515000Y-134620000D03*
D22*
X183515000Y-137160000D03*
X183515000Y-139700000D03*
X183515000Y-142240000D03*
D23*
X166370000Y-132080000D03*
D16*
X166370000Y-134620000D03*
X166370000Y-137160000D03*
X166370000Y-139700000D03*
X166370000Y-142240000D03*
D17*
X114300000Y-60960000D03*
D16*
X114300000Y-63500000D03*
X114300000Y-66040000D03*
X114300000Y-68580000D03*
X114300000Y-71120000D03*
X114300000Y-73660000D03*
X114300000Y-76200000D03*
X121920000Y-76200000D03*
X121920000Y-73660000D03*
X121920000Y-71120000D03*
X121920000Y-68580000D03*
X121920000Y-66040000D03*
X121920000Y-63500000D03*
X121920000Y-60960000D03*
D24*
X119380000Y-96520000D03*
D16*
X121920000Y-96520000D03*
X124460000Y-96520000D03*
X127000000Y-96520000D03*
X129540000Y-96520000D03*
X132080000Y-96520000D03*
X134620000Y-96520000D03*
X137160000Y-96520000D03*
X139700000Y-96520000D03*
X142240000Y-96520000D03*
X144780000Y-96520000D03*
X147320000Y-96520000D03*
X149860000Y-96520000D03*
X152400000Y-96520000D03*
X154940000Y-96520000D03*
X157480000Y-96520000D03*
X160020000Y-96520000D03*
X162560000Y-96520000D03*
X165100000Y-96520000D03*
X167640000Y-96520000D03*
X167640000Y-81280000D03*
X165100000Y-81280000D03*
X162560000Y-81280000D03*
X160020000Y-81280000D03*
X157480000Y-81280000D03*
X154940000Y-81280000D03*
X152400000Y-81280000D03*
X149860000Y-81280000D03*
X147320000Y-81280000D03*
X144780000Y-81280000D03*
X142240000Y-81280000D03*
X139700000Y-81280000D03*
X137160000Y-81280000D03*
X134620000Y-81280000D03*
X132080000Y-81280000D03*
X129540000Y-81280000D03*
X127000000Y-81280000D03*
X124460000Y-81280000D03*
X121920000Y-81280000D03*
X119380000Y-81280000D03*
D17*
X128270000Y-48260000D03*
D16*
X128270000Y-50800000D03*
X128270000Y-53340000D03*
X128270000Y-55880000D03*
X128270000Y-58420000D03*
X128270000Y-60960000D03*
X128270000Y-63500000D03*
X128270000Y-66040000D03*
X128270000Y-68580000D03*
X128270000Y-71120000D03*
X128270000Y-73660000D03*
X128270000Y-76200000D03*
X135890000Y-76200000D03*
X135890000Y-73660000D03*
X135890000Y-71120000D03*
X135890000Y-68580000D03*
X135890000Y-66040000D03*
X135890000Y-63500000D03*
X135890000Y-60960000D03*
X135890000Y-58420000D03*
X135890000Y-55880000D03*
X135890000Y-53340000D03*
X135890000Y-50800000D03*
X135890000Y-48260000D03*
D15*
X153035000Y-48260000D03*
X153035000Y-53260000D03*
X187325000Y-107315000D03*
X187325000Y-112315000D03*
D25*
X168910000Y-58420000D03*
D26*
X166370000Y-55880000D03*
X166370000Y-58420000D03*
X163830000Y-55880000D03*
X163830000Y-58420000D03*
X161290000Y-55880000D03*
X158750000Y-58420000D03*
X161290000Y-58420000D03*
X158750000Y-60960000D03*
X161290000Y-60960000D03*
X158750000Y-63500000D03*
X161290000Y-63500000D03*
X158750000Y-66040000D03*
X161290000Y-66040000D03*
X158750000Y-68580000D03*
X161290000Y-68580000D03*
X158750000Y-71120000D03*
X161290000Y-73660000D03*
X161290000Y-71120000D03*
X163830000Y-73660000D03*
X163830000Y-71120000D03*
X166370000Y-73660000D03*
X166370000Y-71120000D03*
X168910000Y-73660000D03*
X168910000Y-71120000D03*
X171450000Y-73660000D03*
X171450000Y-71120000D03*
X173990000Y-73660000D03*
X176530000Y-71120000D03*
X173990000Y-71120000D03*
X176530000Y-68580000D03*
X173990000Y-68580000D03*
X176530000Y-66040000D03*
X173990000Y-66040000D03*
X176530000Y-63500000D03*
X173990000Y-63500000D03*
X176530000Y-60960000D03*
X173990000Y-60960000D03*
X176530000Y-58420000D03*
X173990000Y-55880000D03*
X173990000Y-58420000D03*
X171450000Y-55880000D03*
X171450000Y-58420000D03*
X168910000Y-55880000D03*
D27*
X192405000Y-101600000D03*
D13*
X192405000Y-99060000D03*
X192405000Y-96520000D03*
X192405000Y-93980000D03*
X192405000Y-91440000D03*
X192405000Y-88900000D03*
D12*
X107950000Y-60325000D03*
D13*
X107950000Y-62865000D03*
D24*
X114300000Y-100330000D03*
D16*
X114300000Y-97790000D03*
X114300000Y-95250000D03*
X114300000Y-92710000D03*
X114300000Y-90170000D03*
X114300000Y-87630000D03*
X114300000Y-85090000D03*
X114300000Y-82550000D03*
X114300000Y-80010000D03*
D17*
X114300000Y-55880000D03*
D15*
X121920000Y-55880000D03*
X121920000Y-48260000D03*
X114300000Y-48260000D03*
X111125000Y-142240000D03*
D16*
X111125000Y-132080000D03*
D28*
X191770000Y-81890000D03*
D29*
X191770000Y-79350000D03*
D15*
X182245000Y-55245000D03*
X182245000Y-60245000D03*
D20*
X99695000Y-48895000D03*
X192405000Y-48895000D03*
D30*
X192582000Y-106700000D03*
X192582000Y-113710000D03*
D31*
X195072000Y-107950000D03*
X195072000Y-112450000D03*
D12*
X107950000Y-80010000D03*
D13*
X107950000Y-82550000D03*
D32*
X186075000Y-50165000D03*
D16*
X183535000Y-50165000D03*
X180995000Y-50165000D03*
X178455000Y-50165000D03*
X175915000Y-50165000D03*
D15*
X177760000Y-97790000D03*
X172760000Y-97790000D03*
D23*
X166370000Y-109300000D03*
D16*
X166370000Y-111840000D03*
X166370000Y-114380000D03*
X166370000Y-116920000D03*
X166370000Y-119460000D03*
D17*
X154950008Y-124479990D03*
D16*
X154950008Y-127019990D03*
X154950008Y-129559990D03*
X154950008Y-132099990D03*
X154950008Y-134639990D03*
X154950008Y-137179990D03*
X154950008Y-139719990D03*
X154950008Y-142259990D03*
X162570008Y-142259990D03*
X162570008Y-139719990D03*
X162570008Y-137179990D03*
X162570008Y-134639990D03*
X162570008Y-132099990D03*
X162570008Y-129559990D03*
X162570008Y-127019990D03*
X162570008Y-124479990D03*
D17*
X170180000Y-124460000D03*
D16*
X170180000Y-127000000D03*
X170180000Y-129540000D03*
X170180000Y-132080000D03*
X170180000Y-134620000D03*
X170180000Y-137160000D03*
X170180000Y-139700000D03*
X170180000Y-142240000D03*
X177800000Y-142240000D03*
X177800000Y-139700000D03*
X177800000Y-137160000D03*
X177800000Y-134620000D03*
X177800000Y-132080000D03*
X177800000Y-129540000D03*
X177800000Y-127000000D03*
X177800000Y-124460000D03*
D15*
X134580000Y-100330000D03*
X129580000Y-100330000D03*
D12*
X107950000Y-90170000D03*
D13*
X107950000Y-92710000D03*
X107950000Y-95250000D03*
D33*
X183769000Y-99295000D03*
D34*
X182499000Y-101365000D03*
X181229000Y-99295000D03*
D27*
X192405000Y-131445000D03*
D13*
X192405000Y-128905000D03*
X192405000Y-126365000D03*
X192405000Y-123825000D03*
X192405000Y-121285000D03*
X192405000Y-118745000D03*
D15*
X125095000Y-61000000D03*
X125095000Y-66000000D03*
X184150000Y-104775000D03*
D16*
X184150000Y-114935000D03*
D15*
X181610000Y-123905000D03*
X181610000Y-128905000D03*
X166370000Y-123825000D03*
X166370000Y-128825000D03*
X166370000Y-100965000D03*
X166370000Y-105965000D03*
D23*
X100965000Y-132779888D03*
D15*
X100965000Y-135279888D03*
D17*
X142240000Y-48260000D03*
D16*
X142240000Y-50800000D03*
X142240000Y-53340000D03*
X142240000Y-55880000D03*
X142240000Y-58420000D03*
X142240000Y-60960000D03*
X142240000Y-63500000D03*
X142240000Y-66040000D03*
X142240000Y-68580000D03*
X142240000Y-71120000D03*
X142240000Y-73660000D03*
X142240000Y-76200000D03*
X149860000Y-76200000D03*
X149860000Y-73660000D03*
X149860000Y-71120000D03*
X149860000Y-68580000D03*
X149860000Y-66040000D03*
X149860000Y-63500000D03*
X149860000Y-60960000D03*
X149860000Y-58420000D03*
X149860000Y-55880000D03*
X149860000Y-53340000D03*
X149860000Y-50800000D03*
X149860000Y-48260000D03*
D15*
X124420000Y-100330000D03*
X119420000Y-100330000D03*
D12*
X168275000Y-47625000D03*
D13*
X168275000Y-50165000D03*
D17*
X173355000Y-92710000D03*
D15*
X180975000Y-92710000D03*
X180975000Y-85090000D03*
X173355000Y-85090000D03*
D17*
X134620000Y-104140000D03*
D16*
X134620000Y-106680000D03*
X134620000Y-109220000D03*
X134620000Y-111760000D03*
X134620000Y-114300000D03*
X134620000Y-116840000D03*
X134620000Y-119380000D03*
X134620000Y-121920000D03*
X134620000Y-124460000D03*
X134620000Y-127000000D03*
X134620000Y-129540000D03*
X134620000Y-132080000D03*
X134620000Y-134620000D03*
X134620000Y-137160000D03*
X134620000Y-139700000D03*
X134620000Y-142240000D03*
X149860000Y-142240000D03*
X149860000Y-139700000D03*
X149860000Y-137160000D03*
X149860000Y-134620000D03*
X149860000Y-132080000D03*
X149860000Y-129540000D03*
X149860000Y-127000000D03*
X149860000Y-124460000D03*
X149860000Y-121920000D03*
X149860000Y-119380000D03*
X149860000Y-116840000D03*
X149860000Y-114300000D03*
X149860000Y-111760000D03*
X149860000Y-109220000D03*
X149860000Y-106680000D03*
X149860000Y-104140000D03*
D12*
X164465000Y-47625000D03*
D13*
X164465000Y-50165000D03*
D15*
X139065000Y-63420000D03*
X139065000Y-58420000D03*
D17*
X170169992Y-101589992D03*
D16*
X170169992Y-104129992D03*
X170169992Y-106669992D03*
X170169992Y-109209992D03*
X170169992Y-111749992D03*
X170169992Y-114289992D03*
X170169992Y-116829992D03*
X170169992Y-119369992D03*
X177789992Y-119369992D03*
X177789992Y-116829992D03*
X177789992Y-114289992D03*
X177789992Y-111749992D03*
X177789992Y-109209992D03*
X177789992Y-106669992D03*
X177789992Y-104129992D03*
X177789992Y-101589992D03*
D17*
X114300000Y-104140000D03*
D16*
X114300000Y-106680000D03*
X114300000Y-109220000D03*
X114300000Y-111760000D03*
X114300000Y-114300000D03*
X114300000Y-116840000D03*
X114300000Y-119380000D03*
X114300000Y-121920000D03*
X114300000Y-124460000D03*
X114300000Y-127000000D03*
X114300000Y-129540000D03*
X114300000Y-132080000D03*
X114300000Y-134620000D03*
X114300000Y-137160000D03*
X114300000Y-139700000D03*
X114300000Y-142240000D03*
X129540000Y-142240000D03*
X129540000Y-139700000D03*
X129540000Y-137160000D03*
X129540000Y-134620000D03*
X129540000Y-132080000D03*
X129540000Y-129540000D03*
X129540000Y-127000000D03*
X129540000Y-124460000D03*
X129540000Y-121920000D03*
X129540000Y-119380000D03*
X129540000Y-116840000D03*
X129540000Y-114300000D03*
X129540000Y-111760000D03*
X129540000Y-109220000D03*
X129540000Y-106680000D03*
X129540000Y-104140000D03*
D15*
X139065000Y-66040000D03*
D16*
X139065000Y-76200000D03*
D27*
X192450000Y-71730000D03*
D13*
X192450000Y-69190000D03*
X192450000Y-66650000D03*
X192450000Y-64110000D03*
X192450000Y-61570000D03*
X192450000Y-59030000D03*
D27*
X182245000Y-66680000D03*
D13*
X182245000Y-64140000D03*
D35*
X165115000Y-63500000D03*
D36*
X163815000Y-63500000D03*
M02*
