M48
; DRILL file {KiCad 6.0.4-6f826c9f35~116~ubuntu18.04.1} date Thu 15 Jun 2023 13:07:46 BST
; FORMAT={-:-/ absolute / metric / decimal}
; #@! TF.CreationDate,2023-06-15T13:07:46+01:00
; #@! TF.GenerationSoftware,Kicad,Pcbnew,6.0.4-6f826c9f35~116~ubuntu18.04.1
; #@! TF.FileFunction,Plated,1,4,PTH
FMAT,2
METRIC
; #@! TA.AperFunction,Plated,PTH,ViaDrill
T1C0.305
; #@! TA.AperFunction,Plated,PTH,ComponentDrill
T2C0.750
; #@! TA.AperFunction,Plated,PTH,ComponentDrill
T3C0.800
; #@! TA.AperFunction,Plated,PTH,ComponentDrill
T4C0.900
; #@! TA.AperFunction,Plated,PTH,ComponentDrill
T5C0.990
; #@! TA.AperFunction,Plated,PTH,ComponentDrill
T6C1.000
; #@! TA.AperFunction,Plated,PTH,ComponentDrill
T7C1.190
; #@! TA.AperFunction,Plated,PTH,ComponentDrill
T8C1.300
%
G90
G05
T1
X98.425Y-57.15
X99.06Y-58.42
X104.775Y-130.81
X105.41Y-54.61
X105.41Y-90.17
X105.41Y-91.44
X105.41Y-133.35
X106.045Y-135.89
X106.68Y-87.63
X108.585Y-138.43
X109.855Y-85.09
X109.855Y-103.505
X110.49Y-104.775
X111.125Y-106.045
X111.76Y-78.105
X111.76Y-107.315
X112.395Y-108.585
X112.395Y-140.97
X113.03Y-110.49
X115.57Y-83.82
X115.57Y-91.44
X115.57Y-113.03
X116.205Y-49.53
X116.205Y-125.73
X116.84Y-52.07
X116.84Y-81.28
X116.84Y-92.71
X116.84Y-105.41
X117.475Y-93.98
X117.475Y-109.22
X118.11Y-66.04
X118.11Y-85.725
X118.745Y-63.5
X119.38Y-72.39
X119.38Y-94.615
X119.38Y-102.87
X119.38Y-123.19
X120.015Y-76.2
X120.015Y-128.27
X120.65Y-86.36
X121.285Y-98.425
X121.285Y-110.49
X121.92Y-86.36
X122.555Y-99.06
X122.555Y-114.3
X123.19Y-59.69
X123.19Y-78.74
X123.19Y-94.615
X123.825Y-63.5
X124.46Y-90.17
X125.73Y-119.38
X126.365Y-73.66
X127.0Y-87.63
X127.635Y-83.185
X127.635Y-121.92
X128.27Y-83.82
X128.27Y-85.09
X128.27Y-89.535
X128.905Y-78.74
X129.54Y-74.93
X129.54Y-85.09
X129.54Y-88.9
X130.175Y-64.77
X130.81Y-78.74
X131.445Y-68.58
X131.445Y-83.185
X132.08Y-78.74
X132.08Y-88.9
X132.08Y-106.045
X132.08Y-111.125
X132.08Y-143.51
X132.715Y-85.725
X133.35Y-78.74
X133.35Y-86.995
X133.985Y-83.185
X134.62Y-64.77
X134.62Y-72.39
X134.62Y-78.74
X134.62Y-86.36
X135.89Y-91.44
X136.525Y-83.185
X136.525Y-87.63
X136.525Y-110.49
X137.16Y-84.455
X137.16Y-132.08
X137.795Y-128.27
X138.43Y-129.54
X139.065Y-71.12
X139.065Y-72.39
X139.065Y-83.185
X139.065Y-93.345
X139.065Y-106.68
X139.065Y-140.97
X139.7Y-78.74
X139.7Y-91.44
X139.7Y-107.95
X139.7Y-138.43
X140.335Y-94.615
X140.335Y-109.22
X140.335Y-143.51
X140.97Y-134.62
X141.605Y-98.425
X141.605Y-120.65
X142.24Y-85.725
X142.24Y-92.71
X142.24Y-127.635
X142.875Y-83.185
X142.875Y-91.44
X143.51Y-85.09
X143.51Y-90.17
X143.51Y-123.19
X143.51Y-137.795
X144.78Y-68.58
X144.78Y-88.265
X144.78Y-92.075
X144.78Y-125.73
X145.415Y-59.69
X145.415Y-60.96
X145.415Y-78.74
X145.415Y-103.505
X145.415Y-113.03
X146.05Y-76.2
X146.05Y-125.73
X146.05Y-140.335
X146.685Y-78.74
X146.685Y-98.425
X146.685Y-115.57
X147.32Y-53.34
X147.32Y-85.09
X147.32Y-122.555
X147.955Y-78.74
X147.955Y-83.185
X147.955Y-94.615
X147.955Y-128.27
X147.955Y-142.24
X148.59Y-120.65
X150.495Y-83.185
X150.495Y-93.98
X151.13Y-105.41
X151.765Y-67.31
X151.765Y-104.14
X151.765Y-134.62
X152.4Y-84.455
X152.4Y-86.36
X152.4Y-118.11
X152.4Y-128.27
X152.4Y-135.89
X153.035Y-106.68
X153.035Y-132.08
X153.67Y-63.5
X153.67Y-86.36
X153.67Y-135.89
X154.305Y-64.77
X154.305Y-78.105
X155.575Y-86.995
X156.21Y-71.12
X156.845Y-52.07
X156.845Y-60.96
X156.845Y-86.995
X157.48Y-75.565
X157.48Y-88.9
X157.48Y-115.57
X158.115Y-102.87
X158.115Y-117.475
X158.115Y-129.54
X158.115Y-133.35
X158.115Y-134.62
X158.75Y-77.47
X158.75Y-91.44
X158.75Y-106.68
X158.75Y-110.49
X159.385Y-98.425
X159.385Y-111.76
X159.385Y-134.62
X160.02Y-77.47
X160.02Y-118.11
X160.02Y-130.175
X160.02Y-132.715
X160.655Y-98.425
X160.655Y-114.3
X160.655Y-137.16
X161.29Y-90.805
X161.29Y-107.95
X162.56Y-53.975
X162.56Y-77.47
X162.56Y-83.82
X163.195Y-75.565
X163.83Y-78.74
X163.83Y-89.535
X163.83Y-110.49
X164.465Y-92.075
X164.465Y-109.22
X166.37Y-63.5
X167.64Y-87.63
X168.275Y-52.705
X168.91Y-76.835
X168.91Y-107.95
X168.91Y-110.49
X169.545Y-75.565
X170.18Y-82.55
X170.815Y-76.2
X171.45Y-83.185
X172.085Y-53.34
X172.085Y-84.455
X173.355Y-120.65
X173.99Y-48.895
X173.99Y-106.68
X173.99Y-129.54
X174.625Y-86.36
X174.625Y-87.63
X174.625Y-90.17
X174.625Y-109.22
X174.625Y-132.08
X178.435Y-53.34
X178.435Y-91.44
X184.15Y-57.125
X186.055Y-75.54
X186.69Y-74.27
X187.325Y-73.0
X188.595Y-68.58
X189.23Y-62.84
X189.865Y-64.77
X190.5Y-60.3
T2
X181.229Y-99.695
X182.499Y-100.965
X183.769Y-99.695
T3
X100.965Y-132.78
X100.965Y-135.28
X111.125Y-132.08
X111.125Y-142.24
X114.3Y-48.26
X114.3Y-55.88
X114.3Y-60.96
X114.3Y-63.5
X114.3Y-66.04
X114.3Y-68.58
X114.3Y-71.12
X114.3Y-73.66
X114.3Y-76.2
X114.3Y-80.01
X114.3Y-82.55
X114.3Y-85.09
X114.3Y-87.63
X114.3Y-90.17
X114.3Y-92.71
X114.3Y-95.25
X114.3Y-97.79
X114.3Y-100.33
X114.3Y-104.14
X114.3Y-106.68
X114.3Y-109.22
X114.3Y-111.76
X114.3Y-114.3
X114.3Y-116.84
X114.3Y-119.38
X114.3Y-121.92
X114.3Y-124.46
X114.3Y-127.0
X114.3Y-129.54
X114.3Y-132.08
X114.3Y-134.62
X114.3Y-137.16
X114.3Y-139.7
X114.3Y-142.24
X119.38Y-81.28
X119.38Y-96.52
X119.42Y-100.33
X121.92Y-48.26
X121.92Y-55.88
X121.92Y-60.96
X121.92Y-63.5
X121.92Y-66.04
X121.92Y-68.58
X121.92Y-71.12
X121.92Y-73.66
X121.92Y-76.2
X121.92Y-81.28
X121.92Y-96.52
X124.42Y-100.33
X124.46Y-81.28
X124.46Y-96.52
X125.095Y-61.0
X125.095Y-66.0
X127.0Y-81.28
X127.0Y-96.52
X128.27Y-48.26
X128.27Y-50.8
X128.27Y-53.34
X128.27Y-55.88
X128.27Y-58.42
X128.27Y-60.96
X128.27Y-63.5
X128.27Y-66.04
X128.27Y-68.58
X128.27Y-71.12
X128.27Y-73.66
X128.27Y-76.2
X129.54Y-81.28
X129.54Y-96.52
X129.54Y-104.14
X129.54Y-106.68
X129.54Y-109.22
X129.54Y-111.76
X129.54Y-114.3
X129.54Y-116.84
X129.54Y-119.38
X129.54Y-121.92
X129.54Y-124.46
X129.54Y-127.0
X129.54Y-129.54
X129.54Y-132.08
X129.54Y-134.62
X129.54Y-137.16
X129.54Y-139.7
X129.54Y-142.24
X129.58Y-100.33
X132.08Y-81.28
X132.08Y-96.52
X134.58Y-100.33
X134.62Y-81.28
X134.62Y-96.52
X134.62Y-104.14
X134.62Y-106.68
X134.62Y-109.22
X134.62Y-111.76
X134.62Y-114.3
X134.62Y-116.84
X134.62Y-119.38
X134.62Y-121.92
X134.62Y-124.46
X134.62Y-127.0
X134.62Y-129.54
X134.62Y-132.08
X134.62Y-134.62
X134.62Y-137.16
X134.62Y-139.7
X134.62Y-142.24
X135.89Y-48.26
X135.89Y-50.8
X135.89Y-53.34
X135.89Y-55.88
X135.89Y-58.42
X135.89Y-60.96
X135.89Y-63.5
X135.89Y-66.04
X135.89Y-68.58
X135.89Y-71.12
X135.89Y-73.66
X135.89Y-76.2
X137.16Y-81.28
X137.16Y-96.52
X139.065Y-48.3
X139.065Y-53.3
X139.065Y-58.42
X139.065Y-63.42
X139.065Y-66.04
X139.065Y-76.2
X139.7Y-81.28
X139.7Y-96.52
X139.74Y-100.33
X142.24Y-48.26
X142.24Y-50.8
X142.24Y-53.34
X142.24Y-55.88
X142.24Y-58.42
X142.24Y-60.96
X142.24Y-63.5
X142.24Y-66.04
X142.24Y-68.58
X142.24Y-71.12
X142.24Y-73.66
X142.24Y-76.2
X142.24Y-81.28
X142.24Y-96.52
X144.74Y-100.33
X144.78Y-81.28
X144.78Y-96.52
X147.32Y-81.28
X147.32Y-96.52
X149.86Y-48.26
X149.86Y-50.8
X149.86Y-53.34
X149.86Y-55.88
X149.86Y-58.42
X149.86Y-60.96
X149.86Y-63.5
X149.86Y-66.04
X149.86Y-68.58
X149.86Y-71.12
X149.86Y-73.66
X149.86Y-76.2
X149.86Y-81.28
X149.86Y-96.52
X149.86Y-104.14
X149.86Y-106.68
X149.86Y-109.22
X149.86Y-111.76
X149.86Y-114.3
X149.86Y-116.84
X149.86Y-119.38
X149.86Y-121.92
X149.86Y-124.46
X149.86Y-127.0
X149.86Y-129.54
X149.86Y-132.08
X149.86Y-134.62
X149.86Y-137.16
X149.86Y-139.7
X149.86Y-142.24
X152.4Y-81.28
X152.4Y-96.52
X153.035Y-48.26
X153.035Y-53.26
X154.94Y-81.28
X154.94Y-96.52
X154.95Y-101.59
X154.95Y-104.13
X154.95Y-106.67
X154.95Y-109.21
X154.95Y-111.75
X154.95Y-114.29
X154.95Y-116.83
X154.95Y-119.37
X154.95Y-124.48
X154.95Y-127.02
X154.95Y-129.56
X154.95Y-132.1
X154.95Y-134.64
X154.95Y-137.18
X154.95Y-139.72
X154.95Y-142.26
X157.48Y-81.28
X157.48Y-96.52
X158.75Y-58.42
X158.75Y-60.96
X158.75Y-63.5
X158.75Y-66.04
X158.75Y-68.58
X158.75Y-71.12
X160.02Y-81.28
X160.02Y-96.52
X161.29Y-55.88
X161.29Y-58.42
X161.29Y-60.96
X161.29Y-63.5
X161.29Y-66.04
X161.29Y-68.58
X161.29Y-71.12
X161.29Y-73.66
X162.56Y-81.28
X162.56Y-96.52
X162.57Y-101.59
X162.57Y-104.13
X162.57Y-106.67
X162.57Y-109.21
X162.57Y-111.75
X162.57Y-114.29
X162.57Y-116.83
X162.57Y-119.37
X162.57Y-124.48
X162.57Y-127.02
X162.57Y-129.56
X162.57Y-132.1
X162.57Y-134.64
X162.57Y-137.18
X162.57Y-139.72
X162.57Y-142.26
X163.83Y-55.88
X163.83Y-58.42
X163.83Y-71.12
X163.83Y-73.66
X165.1Y-81.28
X165.1Y-96.52
X166.37Y-55.88
X166.37Y-58.42
X166.37Y-71.12
X166.37Y-73.66
X166.37Y-100.965
X166.37Y-105.965
X166.37Y-109.3
X166.37Y-111.84
X166.37Y-114.38
X166.37Y-116.92
X166.37Y-119.46
X166.37Y-123.825
X166.37Y-128.825
X166.37Y-132.08
X166.37Y-134.62
X166.37Y-137.16
X166.37Y-139.7
X166.37Y-142.24
X167.64Y-81.28
X167.64Y-96.52
X168.91Y-55.88
X168.91Y-58.42
X168.91Y-71.12
X168.91Y-73.66
X170.17Y-101.59
X170.17Y-104.13
X170.17Y-106.67
X170.17Y-109.21
X170.17Y-111.75
X170.17Y-114.29
X170.17Y-116.83
X170.17Y-119.37
X170.18Y-124.46
X170.18Y-127.0
X170.18Y-129.54
X170.18Y-132.08
X170.18Y-134.62
X170.18Y-137.16
X170.18Y-139.7
X170.18Y-142.24
X171.45Y-55.88
X171.45Y-58.42
X171.45Y-71.12
X171.45Y-73.66
X172.76Y-97.79
X173.355Y-85.09
X173.355Y-92.71
X173.99Y-55.88
X173.99Y-58.42
X173.99Y-60.96
X173.99Y-63.5
X173.99Y-66.04
X173.99Y-68.58
X173.99Y-71.12
X173.99Y-73.66
X175.915Y-50.165
X176.53Y-58.42
X176.53Y-60.96
X176.53Y-63.5
X176.53Y-66.04
X176.53Y-68.58
X176.53Y-71.12
X177.76Y-97.79
X177.79Y-101.59
X177.79Y-104.13
X177.79Y-106.67
X177.79Y-109.21
X177.79Y-111.75
X177.79Y-114.29
X177.79Y-116.83
X177.79Y-119.37
X177.8Y-124.46
X177.8Y-127.0
X177.8Y-129.54
X177.8Y-132.08
X177.8Y-134.62
X177.8Y-137.16
X177.8Y-139.7
X177.8Y-142.24
X178.455Y-50.165
X180.975Y-85.09
X180.975Y-92.71
X180.975Y-104.775
X180.975Y-114.935
X180.995Y-50.165
X181.61Y-123.905
X181.61Y-128.905
X182.245Y-55.245
X182.245Y-60.245
X182.245Y-70.485
X182.245Y-80.645
X183.535Y-50.165
X184.15Y-104.775
X184.15Y-114.935
X186.075Y-50.165
X187.325Y-107.315
X187.325Y-112.315
T4
X191.77Y-79.35
X191.77Y-81.89
T5
X195.072Y-107.95
X195.072Y-112.45
T6
X100.584Y-55.88
X100.947Y-64.135
X100.947Y-66.675
X100.947Y-69.215
X100.947Y-71.755
X100.947Y-74.295
X100.947Y-76.835
X100.947Y-79.375
X100.947Y-81.915
X100.947Y-84.455
X100.947Y-86.995
X100.947Y-89.535
X100.947Y-92.075
X100.947Y-94.615
X100.947Y-97.155
X100.947Y-99.695
X100.947Y-102.235
X100.947Y-104.775
X100.947Y-107.315
X100.947Y-109.855
X100.947Y-112.395
X100.947Y-114.935
X100.947Y-117.475
X100.947Y-120.015
X100.947Y-122.555
X100.947Y-125.095
X103.124Y-55.88
X103.487Y-64.135
X103.487Y-66.675
X103.487Y-69.215
X103.487Y-71.755
X103.487Y-74.295
X103.487Y-76.835
X103.487Y-79.375
X103.487Y-81.915
X103.487Y-84.455
X103.487Y-86.995
X103.487Y-89.535
X103.487Y-92.075
X103.487Y-94.615
X103.487Y-97.155
X103.487Y-99.695
X103.487Y-102.235
X103.487Y-104.775
X103.487Y-107.315
X103.487Y-109.855
X103.487Y-112.395
X103.487Y-114.935
X103.487Y-117.475
X103.487Y-120.015
X103.487Y-122.555
X103.487Y-125.095
X107.95Y-53.34
X107.95Y-55.88
X107.95Y-60.325
X107.95Y-62.865
X107.95Y-67.31
X107.95Y-69.85
X107.95Y-73.66
X107.95Y-76.2
X107.95Y-80.01
X107.95Y-82.55
X107.95Y-90.17
X107.95Y-92.71
X107.95Y-95.25
X164.465Y-47.625
X164.465Y-50.165
X168.275Y-47.625
X168.275Y-50.165
X172.085Y-47.625
X172.085Y-50.165
X182.245Y-64.14
X182.245Y-66.68
X192.405Y-88.9
X192.405Y-91.44
X192.405Y-93.98
X192.405Y-96.52
X192.405Y-99.06
X192.405Y-101.6
X192.405Y-118.745
X192.405Y-121.285
X192.405Y-123.825
X192.405Y-126.365
X192.405Y-128.905
X192.405Y-131.445
X192.45Y-59.03
X192.45Y-61.57
X192.45Y-64.11
X192.45Y-66.65
X192.45Y-69.19
X192.45Y-71.73
T7
X183.515Y-134.62
X183.515Y-137.16
X183.515Y-139.7
X183.515Y-142.24
T8
X192.582Y-106.7
X192.582Y-113.71
T0
M30
