G04 #@! TF.GenerationSoftware,KiCad,Pcbnew,6.0.4-6f826c9f35~116~ubuntu18.04.1*
G04 #@! TF.CreationDate,2023-06-15T13:07:36+01:00*
G04 #@! TF.ProjectId,sbc09,73626330-392e-46b6-9963-61645f706362,rev?*
G04 #@! TF.SameCoordinates,Original*
G04 #@! TF.FileFunction,Legend,Top*
G04 #@! TF.FilePolarity,Positive*
%FSLAX46Y46*%
G04 Gerber Fmt 4.6, Leading zero omitted, Abs format (unit mm)*
G04 Created by KiCad (PCBNEW 6.0.4-6f826c9f35~116~ubuntu18.04.1) date 2023-06-15 13:07:36*
%MOMM*%
%LPD*%
G01*
G04 APERTURE LIST*
G04 Aperture macros list*
%AMRoundRect*
0 Rectangle with rounded corners*
0 $1 Rounding radius*
0 $2 $3 $4 $5 $6 $7 $8 $9 X,Y pos of 4 corners*
0 Add a 4 corners polygon primitive as box body*
4,1,4,$2,$3,$4,$5,$6,$7,$8,$9,$2,$3,0*
0 Add four circle primitives for the rounded corners*
1,1,$1+$1,$2,$3*
1,1,$1+$1,$4,$5*
1,1,$1+$1,$6,$7*
1,1,$1+$1,$8,$9*
0 Add four rect primitives between the rounded corners*
20,1,$1+$1,$2,$3,$4,$5,0*
20,1,$1+$1,$4,$5,$6,$7,0*
20,1,$1+$1,$6,$7,$8,$9,0*
20,1,$1+$1,$8,$9,$2,$3,0*%
G04 Aperture macros list end*
%ADD10C,0.120000*%
%ADD11C,0.508000*%
%ADD12C,0.200000*%
%ADD13C,0.150000*%
%ADD14RoundRect,0.050800X-0.850000X-0.850000X0.850000X-0.850000X0.850000X0.850000X-0.850000X0.850000X0*%
%ADD15O,1.801600X1.801600*%
%ADD16RoundRect,0.050800X0.850000X-0.850000X0.850000X0.850000X-0.850000X0.850000X-0.850000X-0.850000X0*%
%ADD17C,1.701600*%
%ADD18O,1.701600X1.701600*%
%ADD19RoundRect,0.050800X-0.800000X-0.800000X0.800000X-0.800000X0.800000X0.800000X-0.800000X0.800000X0*%
%ADD20RoundRect,0.300800X0.600000X0.600000X-0.600000X0.600000X-0.600000X-0.600000X0.600000X-0.600000X0*%
%ADD21C,1.801600*%
%ADD22C,2.801600*%
%ADD23RoundRect,0.300800X-0.845000X0.620000X-0.845000X-0.620000X0.845000X-0.620000X0.845000X0.620000X0*%
%ADD24O,2.291600X1.841600*%
%ADD25RoundRect,0.050800X-0.800000X0.800000X-0.800000X-0.800000X0.800000X-0.800000X0.800000X0.800000X0*%
%ADD26RoundRect,0.050800X0.800000X-0.800000X0.800000X0.800000X-0.800000X0.800000X-0.800000X-0.800000X0*%
%ADD27RoundRect,0.050800X-0.711200X-0.711200X0.711200X-0.711200X0.711200X0.711200X-0.711200X0.711200X0*%
%ADD28C,1.524000*%
%ADD29RoundRect,0.050800X0.850000X0.850000X-0.850000X0.850000X-0.850000X-0.850000X0.850000X-0.850000X0*%
%ADD30RoundRect,0.050800X0.900000X-0.900000X0.900000X0.900000X-0.900000X0.900000X-0.900000X-0.900000X0*%
%ADD31C,1.901600*%
%ADD32C,2.201600*%
%ADD33C,1.851600*%
%ADD34RoundRect,0.050800X0.800000X0.800000X-0.800000X0.800000X-0.800000X-0.800000X0.800000X-0.800000X0*%
%ADD35RoundRect,0.050800X0.550000X0.900000X-0.550000X0.900000X-0.550000X-0.900000X0.550000X-0.900000X0*%
%ADD36RoundRect,0.325800X0.275000X0.625000X-0.275000X0.625000X-0.275000X-0.625000X0.275000X-0.625000X0*%
G04 APERTURE END LIST*
D10*
X187960000Y-137160000D02*
X187960000Y-139700000D01*
X187325000Y-139700000D02*
X187960000Y-139700000D01*
D11*
X184150000Y-66675000D02*
X185420000Y-66675000D01*
D10*
X187325000Y-137160000D02*
X187960000Y-137160000D01*
X186690000Y-149860000D02*
X187960000Y-151130000D01*
D12*
X185425571Y-124376571D02*
X185425571Y-122876571D01*
X185925571Y-123948000D01*
X186425571Y-122876571D01*
X186425571Y-124376571D01*
X187139857Y-124376571D02*
X187139857Y-122876571D01*
X187782714Y-124305142D02*
X187997000Y-124376571D01*
X188354142Y-124376571D01*
X188497000Y-124305142D01*
X188568428Y-124233714D01*
X188639857Y-124090857D01*
X188639857Y-123948000D01*
X188568428Y-123805142D01*
X188497000Y-123733714D01*
X188354142Y-123662285D01*
X188068428Y-123590857D01*
X187925571Y-123519428D01*
X187854142Y-123448000D01*
X187782714Y-123305142D01*
X187782714Y-123162285D01*
X187854142Y-123019428D01*
X187925571Y-122948000D01*
X188068428Y-122876571D01*
X188425571Y-122876571D01*
X188639857Y-122948000D01*
X189568428Y-122876571D02*
X189854142Y-122876571D01*
X189997000Y-122948000D01*
X190139857Y-123090857D01*
X190211285Y-123376571D01*
X190211285Y-123876571D01*
X190139857Y-124162285D01*
X189997000Y-124305142D01*
X189854142Y-124376571D01*
X189568428Y-124376571D01*
X189425571Y-124305142D01*
X189282714Y-124162285D01*
X189211285Y-123876571D01*
X189211285Y-123376571D01*
X189282714Y-123090857D01*
X189425571Y-122948000D01*
X189568428Y-122876571D01*
X187512857Y-59565714D02*
X187441428Y-59637142D01*
X187227142Y-59708571D01*
X187084285Y-59708571D01*
X186870000Y-59637142D01*
X186727142Y-59494285D01*
X186655714Y-59351428D01*
X186584285Y-59065714D01*
X186584285Y-58851428D01*
X186655714Y-58565714D01*
X186727142Y-58422857D01*
X186870000Y-58280000D01*
X187084285Y-58208571D01*
X187227142Y-58208571D01*
X187441428Y-58280000D01*
X187512857Y-58351428D01*
X187941428Y-58208571D02*
X188798571Y-58208571D01*
X188370000Y-59708571D02*
X188370000Y-58208571D01*
X189227142Y-59637142D02*
X189441428Y-59708571D01*
X189798571Y-59708571D01*
X189941428Y-59637142D01*
X190012857Y-59565714D01*
X190084285Y-59422857D01*
X190084285Y-59280000D01*
X190012857Y-59137142D01*
X189941428Y-59065714D01*
X189798571Y-58994285D01*
X189512857Y-58922857D01*
X189370000Y-58851428D01*
X189298571Y-58780000D01*
X189227142Y-58637142D01*
X189227142Y-58494285D01*
X189298571Y-58351428D01*
X189370000Y-58280000D01*
X189512857Y-58208571D01*
X189870000Y-58208571D01*
X190084285Y-58280000D01*
X180157857Y-131337857D02*
X180657857Y-131337857D01*
X180872142Y-132123571D02*
X180157857Y-132123571D01*
X180157857Y-130623571D01*
X180872142Y-130623571D01*
X181372142Y-132123571D02*
X182157857Y-131123571D01*
X181372142Y-131123571D02*
X182157857Y-132123571D01*
X182515000Y-131123571D02*
X183086428Y-131123571D01*
X182729285Y-130623571D02*
X182729285Y-131909285D01*
X182800714Y-132052142D01*
X182943571Y-132123571D01*
X183086428Y-132123571D01*
X183586428Y-132123571D02*
X183586428Y-130623571D01*
X184157857Y-130623571D01*
X184300714Y-130695000D01*
X184372142Y-130766428D01*
X184443571Y-130909285D01*
X184443571Y-131123571D01*
X184372142Y-131266428D01*
X184300714Y-131337857D01*
X184157857Y-131409285D01*
X183586428Y-131409285D01*
X184943571Y-131123571D02*
X185229285Y-132123571D01*
X185515000Y-131409285D01*
X185800714Y-132123571D01*
X186086428Y-131123571D01*
X186657857Y-132123571D02*
X186657857Y-131123571D01*
X186657857Y-131409285D02*
X186729285Y-131266428D01*
X186800714Y-131195000D01*
X186943571Y-131123571D01*
X187086428Y-131123571D01*
X187512857Y-99738571D02*
X187012857Y-99024285D01*
X186655714Y-99738571D02*
X186655714Y-98238571D01*
X187227142Y-98238571D01*
X187370000Y-98310000D01*
X187441428Y-98381428D01*
X187512857Y-98524285D01*
X187512857Y-98738571D01*
X187441428Y-98881428D01*
X187370000Y-98952857D01*
X187227142Y-99024285D01*
X186655714Y-99024285D01*
X187941428Y-98238571D02*
X188798571Y-98238571D01*
X188370000Y-99738571D02*
X188370000Y-98238571D01*
X189227142Y-99667142D02*
X189441428Y-99738571D01*
X189798571Y-99738571D01*
X189941428Y-99667142D01*
X190012857Y-99595714D01*
X190084285Y-99452857D01*
X190084285Y-99310000D01*
X190012857Y-99167142D01*
X189941428Y-99095714D01*
X189798571Y-99024285D01*
X189512857Y-98952857D01*
X189370000Y-98881428D01*
X189298571Y-98810000D01*
X189227142Y-98667142D01*
X189227142Y-98524285D01*
X189298571Y-98381428D01*
X189370000Y-98310000D01*
X189512857Y-98238571D01*
X189870000Y-98238571D01*
X190084285Y-98310000D01*
X187512857Y-89435714D02*
X187441428Y-89507142D01*
X187227142Y-89578571D01*
X187084285Y-89578571D01*
X186870000Y-89507142D01*
X186727142Y-89364285D01*
X186655714Y-89221428D01*
X186584285Y-88935714D01*
X186584285Y-88721428D01*
X186655714Y-88435714D01*
X186727142Y-88292857D01*
X186870000Y-88150000D01*
X187084285Y-88078571D01*
X187227142Y-88078571D01*
X187441428Y-88150000D01*
X187512857Y-88221428D01*
X187941428Y-88078571D02*
X188798571Y-88078571D01*
X188370000Y-89578571D02*
X188370000Y-88078571D01*
X189227142Y-89507142D02*
X189441428Y-89578571D01*
X189798571Y-89578571D01*
X189941428Y-89507142D01*
X190012857Y-89435714D01*
X190084285Y-89292857D01*
X190084285Y-89150000D01*
X190012857Y-89007142D01*
X189941428Y-88935714D01*
X189798571Y-88864285D01*
X189512857Y-88792857D01*
X189370000Y-88721428D01*
X189298571Y-88650000D01*
X189227142Y-88507142D01*
X189227142Y-88364285D01*
X189298571Y-88221428D01*
X189370000Y-88150000D01*
X189512857Y-88078571D01*
X189870000Y-88078571D01*
X190084285Y-88150000D01*
D13*
X111017857Y-98833571D02*
X111017857Y-99333571D01*
X111803571Y-99333571D02*
X110303571Y-99333571D01*
X110303571Y-98619285D01*
X111803571Y-98047857D02*
X110303571Y-98047857D01*
X111803571Y-96476428D02*
X111089285Y-96976428D01*
X111803571Y-97333571D02*
X110303571Y-97333571D01*
X110303571Y-96762142D01*
X110375000Y-96619285D01*
X110446428Y-96547857D01*
X110589285Y-96476428D01*
X110803571Y-96476428D01*
X110946428Y-96547857D01*
X111017857Y-96619285D01*
X111089285Y-96762142D01*
X111089285Y-97333571D01*
X111946428Y-94833571D02*
X111875000Y-94976428D01*
X111732142Y-95119285D01*
X111517857Y-95333571D01*
X111446428Y-95476428D01*
X111446428Y-95619285D01*
X111803571Y-95547857D02*
X111732142Y-95690714D01*
X111589285Y-95833571D01*
X111303571Y-95905000D01*
X110803571Y-95905000D01*
X110517857Y-95833571D01*
X110375000Y-95690714D01*
X110303571Y-95547857D01*
X110303571Y-95262142D01*
X110375000Y-95119285D01*
X110517857Y-94976428D01*
X110803571Y-94905000D01*
X111303571Y-94905000D01*
X111589285Y-94976428D01*
X111732142Y-95119285D01*
X111803571Y-95262142D01*
X111803571Y-95547857D01*
D12*
X187155714Y-94658571D02*
X186655714Y-93944285D01*
X186298571Y-94658571D02*
X186298571Y-93158571D01*
X186870000Y-93158571D01*
X187012857Y-93230000D01*
X187084285Y-93301428D01*
X187155714Y-93444285D01*
X187155714Y-93658571D01*
X187084285Y-93801428D01*
X187012857Y-93872857D01*
X186870000Y-93944285D01*
X186298571Y-93944285D01*
X187655714Y-93158571D02*
X188655714Y-94658571D01*
X188655714Y-93158571D02*
X187655714Y-94658571D01*
X189227142Y-94658571D02*
X189227142Y-93158571D01*
X189584285Y-93158571D01*
X189798571Y-93230000D01*
X189941428Y-93372857D01*
X190012857Y-93515714D01*
X190084285Y-93801428D01*
X190084285Y-94015714D01*
X190012857Y-94301428D01*
X189941428Y-94444285D01*
X189798571Y-94587142D01*
X189584285Y-94658571D01*
X189227142Y-94658571D01*
X184775000Y-57097142D02*
X184989285Y-57168571D01*
X185346428Y-57168571D01*
X185489285Y-57097142D01*
X185560714Y-57025714D01*
X185632142Y-56882857D01*
X185632142Y-56740000D01*
X185560714Y-56597142D01*
X185489285Y-56525714D01*
X185346428Y-56454285D01*
X185060714Y-56382857D01*
X184917857Y-56311428D01*
X184846428Y-56240000D01*
X184775000Y-56097142D01*
X184775000Y-55954285D01*
X184846428Y-55811428D01*
X184917857Y-55740000D01*
X185060714Y-55668571D01*
X185417857Y-55668571D01*
X185632142Y-55740000D01*
X186846428Y-57097142D02*
X186703571Y-57168571D01*
X186417857Y-57168571D01*
X186275000Y-57097142D01*
X186203571Y-56954285D01*
X186203571Y-56382857D01*
X186275000Y-56240000D01*
X186417857Y-56168571D01*
X186703571Y-56168571D01*
X186846428Y-56240000D01*
X186917857Y-56382857D01*
X186917857Y-56525714D01*
X186203571Y-56668571D01*
X187560714Y-57168571D02*
X187560714Y-56168571D01*
X187560714Y-56454285D02*
X187632142Y-56311428D01*
X187703571Y-56240000D01*
X187846428Y-56168571D01*
X187989285Y-56168571D01*
X188489285Y-57168571D02*
X188489285Y-56168571D01*
X188489285Y-55668571D02*
X188417857Y-55740000D01*
X188489285Y-55811428D01*
X188560714Y-55740000D01*
X188489285Y-55668571D01*
X188489285Y-55811428D01*
X189846428Y-57168571D02*
X189846428Y-56382857D01*
X189775000Y-56240000D01*
X189632142Y-56168571D01*
X189346428Y-56168571D01*
X189203571Y-56240000D01*
X189846428Y-57097142D02*
X189703571Y-57168571D01*
X189346428Y-57168571D01*
X189203571Y-57097142D01*
X189132142Y-56954285D01*
X189132142Y-56811428D01*
X189203571Y-56668571D01*
X189346428Y-56597142D01*
X189703571Y-56597142D01*
X189846428Y-56525714D01*
X190775000Y-57168571D02*
X190632142Y-57097142D01*
X190560714Y-56954285D01*
X190560714Y-55668571D01*
X191275000Y-56740000D02*
X191989285Y-56740000D01*
X191132142Y-57168571D02*
X191632142Y-55668571D01*
X192132142Y-57168571D01*
X185092142Y-77956071D02*
X185092142Y-79170357D01*
X185163571Y-79313214D01*
X185235000Y-79384642D01*
X185377857Y-79456071D01*
X185663571Y-79456071D01*
X185806428Y-79384642D01*
X185877857Y-79313214D01*
X185949285Y-79170357D01*
X185949285Y-77956071D01*
X186592142Y-79384642D02*
X186735000Y-79456071D01*
X187020714Y-79456071D01*
X187163571Y-79384642D01*
X187235000Y-79241785D01*
X187235000Y-79170357D01*
X187163571Y-79027500D01*
X187020714Y-78956071D01*
X186806428Y-78956071D01*
X186663571Y-78884642D01*
X186592142Y-78741785D01*
X186592142Y-78670357D01*
X186663571Y-78527500D01*
X186806428Y-78456071D01*
X187020714Y-78456071D01*
X187163571Y-78527500D01*
X188449285Y-79384642D02*
X188306428Y-79456071D01*
X188020714Y-79456071D01*
X187877857Y-79384642D01*
X187806428Y-79241785D01*
X187806428Y-78670357D01*
X187877857Y-78527500D01*
X188020714Y-78456071D01*
X188306428Y-78456071D01*
X188449285Y-78527500D01*
X188520714Y-78670357D01*
X188520714Y-78813214D01*
X187806428Y-78956071D01*
X189163571Y-79456071D02*
X189163571Y-78456071D01*
X189163571Y-78741785D02*
X189235000Y-78598928D01*
X189306428Y-78527500D01*
X189449285Y-78456071D01*
X189592142Y-78456071D01*
X186735000Y-81871071D02*
X186020714Y-81871071D01*
X186020714Y-80371071D01*
X187235000Y-81085357D02*
X187735000Y-81085357D01*
X187949285Y-81871071D02*
X187235000Y-81871071D01*
X187235000Y-80371071D01*
X187949285Y-80371071D01*
X188592142Y-81871071D02*
X188592142Y-80371071D01*
X188949285Y-80371071D01*
X189163571Y-80442500D01*
X189306428Y-80585357D01*
X189377857Y-80728214D01*
X189449285Y-81013928D01*
X189449285Y-81228214D01*
X189377857Y-81513928D01*
X189306428Y-81656785D01*
X189163571Y-81799642D01*
X188949285Y-81871071D01*
X188592142Y-81871071D01*
X186227142Y-65853571D02*
X186727142Y-67353571D01*
X187227142Y-65853571D01*
X188584285Y-67210714D02*
X188512857Y-67282142D01*
X188298571Y-67353571D01*
X188155714Y-67353571D01*
X187941428Y-67282142D01*
X187798571Y-67139285D01*
X187727142Y-66996428D01*
X187655714Y-66710714D01*
X187655714Y-66496428D01*
X187727142Y-66210714D01*
X187798571Y-66067857D01*
X187941428Y-65925000D01*
X188155714Y-65853571D01*
X188298571Y-65853571D01*
X188512857Y-65925000D01*
X188584285Y-65996428D01*
X190084285Y-67210714D02*
X190012857Y-67282142D01*
X189798571Y-67353571D01*
X189655714Y-67353571D01*
X189441428Y-67282142D01*
X189298571Y-67139285D01*
X189227142Y-66996428D01*
X189155714Y-66710714D01*
X189155714Y-66496428D01*
X189227142Y-66210714D01*
X189298571Y-66067857D01*
X189441428Y-65925000D01*
X189655714Y-65853571D01*
X189798571Y-65853571D01*
X190012857Y-65925000D01*
X190084285Y-65996428D01*
X187512857Y-69868571D02*
X187012857Y-69154285D01*
X186655714Y-69868571D02*
X186655714Y-68368571D01*
X187227142Y-68368571D01*
X187370000Y-68440000D01*
X187441428Y-68511428D01*
X187512857Y-68654285D01*
X187512857Y-68868571D01*
X187441428Y-69011428D01*
X187370000Y-69082857D01*
X187227142Y-69154285D01*
X186655714Y-69154285D01*
X187941428Y-68368571D02*
X188798571Y-68368571D01*
X188370000Y-69868571D02*
X188370000Y-68368571D01*
X189227142Y-69797142D02*
X189441428Y-69868571D01*
X189798571Y-69868571D01*
X189941428Y-69797142D01*
X190012857Y-69725714D01*
X190084285Y-69582857D01*
X190084285Y-69440000D01*
X190012857Y-69297142D01*
X189941428Y-69225714D01*
X189798571Y-69154285D01*
X189512857Y-69082857D01*
X189370000Y-69011428D01*
X189298571Y-68940000D01*
X189227142Y-68797142D01*
X189227142Y-68654285D01*
X189298571Y-68511428D01*
X189370000Y-68440000D01*
X189512857Y-68368571D01*
X189870000Y-68368571D01*
X190084285Y-68440000D01*
X187155714Y-64788571D02*
X186655714Y-64074285D01*
X186298571Y-64788571D02*
X186298571Y-63288571D01*
X186870000Y-63288571D01*
X187012857Y-63360000D01*
X187084285Y-63431428D01*
X187155714Y-63574285D01*
X187155714Y-63788571D01*
X187084285Y-63931428D01*
X187012857Y-64002857D01*
X186870000Y-64074285D01*
X186298571Y-64074285D01*
X187655714Y-63288571D02*
X188655714Y-64788571D01*
X188655714Y-63288571D02*
X187655714Y-64788571D01*
X189227142Y-64788571D02*
X189227142Y-63288571D01*
X189584285Y-63288571D01*
X189798571Y-63360000D01*
X189941428Y-63502857D01*
X190012857Y-63645714D01*
X190084285Y-63931428D01*
X190084285Y-64145714D01*
X190012857Y-64431428D01*
X189941428Y-64574285D01*
X189798571Y-64717142D01*
X189584285Y-64788571D01*
X189227142Y-64788571D01*
X190960714Y-135227142D02*
X191175000Y-135298571D01*
X191532142Y-135298571D01*
X191675000Y-135227142D01*
X191746428Y-135155714D01*
X191817857Y-135012857D01*
X191817857Y-134870000D01*
X191746428Y-134727142D01*
X191675000Y-134655714D01*
X191532142Y-134584285D01*
X191246428Y-134512857D01*
X191103571Y-134441428D01*
X191032142Y-134370000D01*
X190960714Y-134227142D01*
X190960714Y-134084285D01*
X191032142Y-133941428D01*
X191103571Y-133870000D01*
X191246428Y-133798571D01*
X191603571Y-133798571D01*
X191817857Y-133870000D01*
X192460714Y-135298571D02*
X192460714Y-133798571D01*
X192817857Y-133798571D01*
X193032142Y-133870000D01*
X193175000Y-134012857D01*
X193246428Y-134155714D01*
X193317857Y-134441428D01*
X193317857Y-134655714D01*
X193246428Y-134941428D01*
X193175000Y-135084285D01*
X193032142Y-135227142D01*
X192817857Y-135298571D01*
X192460714Y-135298571D01*
X193960714Y-135298571D02*
X193960714Y-133798571D01*
X193960714Y-134512857D02*
X194817857Y-134512857D01*
X194817857Y-135298571D02*
X194817857Y-133798571D01*
X196389285Y-135155714D02*
X196317857Y-135227142D01*
X196103571Y-135298571D01*
X195960714Y-135298571D01*
X195746428Y-135227142D01*
X195603571Y-135084285D01*
X195532142Y-134941428D01*
X195460714Y-134655714D01*
X195460714Y-134441428D01*
X195532142Y-134155714D01*
X195603571Y-134012857D01*
X195746428Y-133870000D01*
X195960714Y-133798571D01*
X196103571Y-133798571D01*
X196317857Y-133870000D01*
X196389285Y-133941428D01*
X188425571Y-117923571D02*
X188568428Y-117923571D01*
X188711285Y-117995000D01*
X188782714Y-118066428D01*
X188854142Y-118209285D01*
X188925571Y-118495000D01*
X188925571Y-118852142D01*
X188854142Y-119137857D01*
X188782714Y-119280714D01*
X188711285Y-119352142D01*
X188568428Y-119423571D01*
X188425571Y-119423571D01*
X188282714Y-119352142D01*
X188211285Y-119280714D01*
X188139857Y-119137857D01*
X188068428Y-118852142D01*
X188068428Y-118495000D01*
X188139857Y-118209285D01*
X188211285Y-118066428D01*
X188282714Y-117995000D01*
X188425571Y-117923571D01*
X189354142Y-117923571D02*
X189854142Y-119423571D01*
X190354142Y-117923571D01*
X98421428Y-52851857D02*
X98635714Y-52923285D01*
X98707142Y-52994714D01*
X98778571Y-53137571D01*
X98778571Y-53351857D01*
X98707142Y-53494714D01*
X98635714Y-53566142D01*
X98492857Y-53637571D01*
X97921428Y-53637571D01*
X97921428Y-52137571D01*
X98421428Y-52137571D01*
X98564285Y-52209000D01*
X98635714Y-52280428D01*
X98707142Y-52423285D01*
X98707142Y-52566142D01*
X98635714Y-52709000D01*
X98564285Y-52780428D01*
X98421428Y-52851857D01*
X97921428Y-52851857D01*
X100064285Y-52637571D02*
X100064285Y-53637571D01*
X99421428Y-52637571D02*
X99421428Y-53423285D01*
X99492857Y-53566142D01*
X99635714Y-53637571D01*
X99850000Y-53637571D01*
X99992857Y-53566142D01*
X100064285Y-53494714D01*
X100707142Y-53566142D02*
X100850000Y-53637571D01*
X101135714Y-53637571D01*
X101278571Y-53566142D01*
X101350000Y-53423285D01*
X101350000Y-53351857D01*
X101278571Y-53209000D01*
X101135714Y-53137571D01*
X100921428Y-53137571D01*
X100778571Y-53066142D01*
X100707142Y-52923285D01*
X100707142Y-52851857D01*
X100778571Y-52709000D01*
X100921428Y-52637571D01*
X101135714Y-52637571D01*
X101278571Y-52709000D01*
X101992857Y-53637571D02*
X101992857Y-52137571D01*
X102564285Y-52137571D01*
X102707142Y-52209000D01*
X102778571Y-52280428D01*
X102850000Y-52423285D01*
X102850000Y-52637571D01*
X102778571Y-52780428D01*
X102707142Y-52851857D01*
X102564285Y-52923285D01*
X101992857Y-52923285D01*
X103350000Y-52637571D02*
X103635714Y-53637571D01*
X103921428Y-52923285D01*
X104207142Y-53637571D01*
X104492857Y-52637571D01*
X105064285Y-53637571D02*
X105064285Y-52637571D01*
X105064285Y-52923285D02*
X105135714Y-52780428D01*
X105207142Y-52709000D01*
X105350000Y-52637571D01*
X105492857Y-52637571D01*
X188638571Y-135798571D02*
X187138571Y-135798571D01*
X188638571Y-134941428D01*
X187138571Y-134941428D01*
X188495714Y-133370000D02*
X188567142Y-133441428D01*
X188638571Y-133655714D01*
X188638571Y-133798571D01*
X188567142Y-134012857D01*
X188424285Y-134155714D01*
X188281428Y-134227142D01*
X187995714Y-134298571D01*
X187781428Y-134298571D01*
X187495714Y-134227142D01*
X187352857Y-134155714D01*
X187210000Y-134012857D01*
X187138571Y-133798571D01*
X187138571Y-133655714D01*
X187210000Y-133441428D01*
X187281428Y-133370000D01*
X106777142Y-123409285D02*
X106848571Y-123195000D01*
X106848571Y-122837857D01*
X106777142Y-122695000D01*
X106705714Y-122623571D01*
X106562857Y-122552142D01*
X106420000Y-122552142D01*
X106277142Y-122623571D01*
X106205714Y-122695000D01*
X106134285Y-122837857D01*
X106062857Y-123123571D01*
X105991428Y-123266428D01*
X105920000Y-123337857D01*
X105777142Y-123409285D01*
X105634285Y-123409285D01*
X105491428Y-123337857D01*
X105420000Y-123266428D01*
X105348571Y-123123571D01*
X105348571Y-122766428D01*
X105420000Y-122552142D01*
X106062857Y-121409285D02*
X106134285Y-121195000D01*
X106205714Y-121123571D01*
X106348571Y-121052142D01*
X106562857Y-121052142D01*
X106705714Y-121123571D01*
X106777142Y-121195000D01*
X106848571Y-121337857D01*
X106848571Y-121909285D01*
X105348571Y-121909285D01*
X105348571Y-121409285D01*
X105420000Y-121266428D01*
X105491428Y-121195000D01*
X105634285Y-121123571D01*
X105777142Y-121123571D01*
X105920000Y-121195000D01*
X105991428Y-121266428D01*
X106062857Y-121409285D01*
X106062857Y-121909285D01*
X106705714Y-119552142D02*
X106777142Y-119623571D01*
X106848571Y-119837857D01*
X106848571Y-119980714D01*
X106777142Y-120195000D01*
X106634285Y-120337857D01*
X106491428Y-120409285D01*
X106205714Y-120480714D01*
X105991428Y-120480714D01*
X105705714Y-120409285D01*
X105562857Y-120337857D01*
X105420000Y-120195000D01*
X105348571Y-119980714D01*
X105348571Y-119837857D01*
X105420000Y-119623571D01*
X105491428Y-119552142D01*
X105348571Y-118623571D02*
X105348571Y-118480714D01*
X105420000Y-118337857D01*
X105491428Y-118266428D01*
X105634285Y-118195000D01*
X105920000Y-118123571D01*
X106277142Y-118123571D01*
X106562857Y-118195000D01*
X106705714Y-118266428D01*
X106777142Y-118337857D01*
X106848571Y-118480714D01*
X106848571Y-118623571D01*
X106777142Y-118766428D01*
X106705714Y-118837857D01*
X106562857Y-118909285D01*
X106277142Y-118980714D01*
X105920000Y-118980714D01*
X105634285Y-118909285D01*
X105491428Y-118837857D01*
X105420000Y-118766428D01*
X105348571Y-118623571D01*
X106848571Y-117409285D02*
X106848571Y-117123571D01*
X106777142Y-116980714D01*
X106705714Y-116909285D01*
X106491428Y-116766428D01*
X106205714Y-116695000D01*
X105634285Y-116695000D01*
X105491428Y-116766428D01*
X105420000Y-116837857D01*
X105348571Y-116980714D01*
X105348571Y-117266428D01*
X105420000Y-117409285D01*
X105491428Y-117480714D01*
X105634285Y-117552142D01*
X105991428Y-117552142D01*
X106134285Y-117480714D01*
X106205714Y-117409285D01*
X106277142Y-117266428D01*
X106277142Y-116980714D01*
X106205714Y-116837857D01*
X106134285Y-116766428D01*
X105991428Y-116695000D01*
X106277142Y-116052142D02*
X106277142Y-114909285D01*
X106848571Y-114195000D02*
X105348571Y-114195000D01*
X106420000Y-113695000D01*
X105348571Y-113195000D01*
X106848571Y-113195000D01*
X106848571Y-112480714D02*
X105848571Y-112480714D01*
X105348571Y-112480714D02*
X105420000Y-112552142D01*
X105491428Y-112480714D01*
X105420000Y-112409285D01*
X105348571Y-112480714D01*
X105491428Y-112480714D01*
X105848571Y-111766428D02*
X106848571Y-111766428D01*
X105991428Y-111766428D02*
X105920000Y-111695000D01*
X105848571Y-111552142D01*
X105848571Y-111337857D01*
X105920000Y-111195000D01*
X106062857Y-111123571D01*
X106848571Y-111123571D01*
X106848571Y-110409285D02*
X105848571Y-110409285D01*
X105348571Y-110409285D02*
X105420000Y-110480714D01*
X105491428Y-110409285D01*
X105420000Y-110337857D01*
X105348571Y-110409285D01*
X105491428Y-110409285D01*
X105848571Y-108695000D02*
X106848571Y-108337857D01*
X105848571Y-107980714D01*
X106848571Y-106623571D02*
X106848571Y-107480714D01*
X106848571Y-107052142D02*
X105348571Y-107052142D01*
X105562857Y-107195000D01*
X105705714Y-107337857D01*
X105777142Y-107480714D01*
X106705714Y-105980714D02*
X106777142Y-105909285D01*
X106848571Y-105980714D01*
X106777142Y-106052142D01*
X106705714Y-105980714D01*
X106848571Y-105980714D01*
X105348571Y-104980714D02*
X105348571Y-104837857D01*
X105420000Y-104695000D01*
X105491428Y-104623571D01*
X105634285Y-104552142D01*
X105920000Y-104480714D01*
X106277142Y-104480714D01*
X106562857Y-104552142D01*
X106705714Y-104623571D01*
X106777142Y-104695000D01*
X106848571Y-104837857D01*
X106848571Y-104980714D01*
X106777142Y-105123571D01*
X106705714Y-105195000D01*
X106562857Y-105266428D01*
X106277142Y-105337857D01*
X105920000Y-105337857D01*
X105634285Y-105266428D01*
X105491428Y-105195000D01*
X105420000Y-105123571D01*
X105348571Y-104980714D01*
X105348571Y-103552142D02*
X105348571Y-103409285D01*
X105420000Y-103266428D01*
X105491428Y-103195000D01*
X105634285Y-103123571D01*
X105920000Y-103052142D01*
X106277142Y-103052142D01*
X106562857Y-103123571D01*
X106705714Y-103195000D01*
X106777142Y-103266428D01*
X106848571Y-103409285D01*
X106848571Y-103552142D01*
X106777142Y-103695000D01*
X106705714Y-103766428D01*
X106562857Y-103837857D01*
X106277142Y-103909285D01*
X105920000Y-103909285D01*
X105634285Y-103837857D01*
X105491428Y-103766428D01*
X105420000Y-103695000D01*
X105348571Y-103552142D01*
X107763571Y-122695000D02*
X107763571Y-122980714D01*
X107835000Y-123123571D01*
X107906428Y-123195000D01*
X108120714Y-123337857D01*
X108406428Y-123409285D01*
X108977857Y-123409285D01*
X109120714Y-123337857D01*
X109192142Y-123266428D01*
X109263571Y-123123571D01*
X109263571Y-122837857D01*
X109192142Y-122695000D01*
X109120714Y-122623571D01*
X108977857Y-122552142D01*
X108620714Y-122552142D01*
X108477857Y-122623571D01*
X108406428Y-122695000D01*
X108335000Y-122837857D01*
X108335000Y-123123571D01*
X108406428Y-123266428D01*
X108477857Y-123337857D01*
X108620714Y-123409285D01*
X109263571Y-122052142D02*
X108263571Y-121266428D01*
X108263571Y-122052142D02*
X109263571Y-121266428D01*
X107763571Y-120409285D02*
X107763571Y-120266428D01*
X107835000Y-120123571D01*
X107906428Y-120052142D01*
X108049285Y-119980714D01*
X108335000Y-119909285D01*
X108692142Y-119909285D01*
X108977857Y-119980714D01*
X109120714Y-120052142D01*
X109192142Y-120123571D01*
X109263571Y-120266428D01*
X109263571Y-120409285D01*
X109192142Y-120552142D01*
X109120714Y-120623571D01*
X108977857Y-120695000D01*
X108692142Y-120766428D01*
X108335000Y-120766428D01*
X108049285Y-120695000D01*
X107906428Y-120623571D01*
X107835000Y-120552142D01*
X107763571Y-120409285D01*
X109263571Y-119195000D02*
X109263571Y-118909285D01*
X109192142Y-118766428D01*
X109120714Y-118695000D01*
X108906428Y-118552142D01*
X108620714Y-118480714D01*
X108049285Y-118480714D01*
X107906428Y-118552142D01*
X107835000Y-118623571D01*
X107763571Y-118766428D01*
X107763571Y-119052142D01*
X107835000Y-119195000D01*
X107906428Y-119266428D01*
X108049285Y-119337857D01*
X108406428Y-119337857D01*
X108549285Y-119266428D01*
X108620714Y-119195000D01*
X108692142Y-119052142D01*
X108692142Y-118766428D01*
X108620714Y-118623571D01*
X108549285Y-118552142D01*
X108406428Y-118480714D01*
X108263571Y-116909285D02*
X108263571Y-116337857D01*
X109263571Y-116695000D02*
X107977857Y-116695000D01*
X107835000Y-116623571D01*
X107763571Y-116480714D01*
X107763571Y-116337857D01*
X109263571Y-115837857D02*
X108263571Y-115837857D01*
X107763571Y-115837857D02*
X107835000Y-115909285D01*
X107906428Y-115837857D01*
X107835000Y-115766428D01*
X107763571Y-115837857D01*
X107906428Y-115837857D01*
X108263571Y-115337857D02*
X108263571Y-114766428D01*
X107763571Y-115123571D02*
X109049285Y-115123571D01*
X109192142Y-115052142D01*
X109263571Y-114909285D01*
X109263571Y-114766428D01*
X107763571Y-112695000D02*
X108835000Y-112695000D01*
X109049285Y-112766428D01*
X109192142Y-112909285D01*
X109263571Y-113123571D01*
X109263571Y-113266428D01*
X109263571Y-111980714D02*
X107763571Y-111980714D01*
X107763571Y-111409285D01*
X107835000Y-111266428D01*
X107906428Y-111195000D01*
X108049285Y-111123571D01*
X108263571Y-111123571D01*
X108406428Y-111195000D01*
X108477857Y-111266428D01*
X108549285Y-111409285D01*
X108549285Y-111980714D01*
X107763571Y-109766428D02*
X107763571Y-110480714D01*
X108477857Y-110552142D01*
X108406428Y-110480714D01*
X108335000Y-110337857D01*
X108335000Y-109980714D01*
X108406428Y-109837857D01*
X108477857Y-109766428D01*
X108620714Y-109695000D01*
X108977857Y-109695000D01*
X109120714Y-109766428D01*
X109192142Y-109837857D01*
X109263571Y-109980714D01*
X109263571Y-110337857D01*
X109192142Y-110480714D01*
X109120714Y-110552142D01*
X107692142Y-107980714D02*
X109620714Y-109266428D01*
X107763571Y-106837857D02*
X107763571Y-107123571D01*
X107835000Y-107266428D01*
X107906428Y-107337857D01*
X108120714Y-107480714D01*
X108406428Y-107552142D01*
X108977857Y-107552142D01*
X109120714Y-107480714D01*
X109192142Y-107409285D01*
X109263571Y-107266428D01*
X109263571Y-106980714D01*
X109192142Y-106837857D01*
X109120714Y-106766428D01*
X108977857Y-106695000D01*
X108620714Y-106695000D01*
X108477857Y-106766428D01*
X108406428Y-106837857D01*
X108335000Y-106980714D01*
X108335000Y-107266428D01*
X108406428Y-107409285D01*
X108477857Y-107480714D01*
X108620714Y-107552142D01*
X107692142Y-104980714D02*
X109620714Y-106266428D01*
X108406428Y-104266428D02*
X108335000Y-104409285D01*
X108263571Y-104480714D01*
X108120714Y-104552142D01*
X108049285Y-104552142D01*
X107906428Y-104480714D01*
X107835000Y-104409285D01*
X107763571Y-104266428D01*
X107763571Y-103980714D01*
X107835000Y-103837857D01*
X107906428Y-103766428D01*
X108049285Y-103695000D01*
X108120714Y-103695000D01*
X108263571Y-103766428D01*
X108335000Y-103837857D01*
X108406428Y-103980714D01*
X108406428Y-104266428D01*
X108477857Y-104409285D01*
X108549285Y-104480714D01*
X108692142Y-104552142D01*
X108977857Y-104552142D01*
X109120714Y-104480714D01*
X109192142Y-104409285D01*
X109263571Y-104266428D01*
X109263571Y-103980714D01*
X109192142Y-103837857D01*
X109120714Y-103766428D01*
X108977857Y-103695000D01*
X108692142Y-103695000D01*
X108549285Y-103766428D01*
X108477857Y-103837857D01*
X108406428Y-103980714D01*
X110178571Y-122695000D02*
X110178571Y-122980714D01*
X110250000Y-123123571D01*
X110321428Y-123195000D01*
X110535714Y-123337857D01*
X110821428Y-123409285D01*
X111392857Y-123409285D01*
X111535714Y-123337857D01*
X111607142Y-123266428D01*
X111678571Y-123123571D01*
X111678571Y-122837857D01*
X111607142Y-122695000D01*
X111535714Y-122623571D01*
X111392857Y-122552142D01*
X111035714Y-122552142D01*
X110892857Y-122623571D01*
X110821428Y-122695000D01*
X110750000Y-122837857D01*
X110750000Y-123123571D01*
X110821428Y-123266428D01*
X110892857Y-123337857D01*
X111035714Y-123409285D01*
X111678571Y-122052142D02*
X110678571Y-121266428D01*
X110678571Y-122052142D02*
X111678571Y-121266428D01*
X110178571Y-120409285D02*
X110178571Y-120266428D01*
X110250000Y-120123571D01*
X110321428Y-120052142D01*
X110464285Y-119980714D01*
X110750000Y-119909285D01*
X111107142Y-119909285D01*
X111392857Y-119980714D01*
X111535714Y-120052142D01*
X111607142Y-120123571D01*
X111678571Y-120266428D01*
X111678571Y-120409285D01*
X111607142Y-120552142D01*
X111535714Y-120623571D01*
X111392857Y-120695000D01*
X111107142Y-120766428D01*
X110750000Y-120766428D01*
X110464285Y-120695000D01*
X110321428Y-120623571D01*
X110250000Y-120552142D01*
X110178571Y-120409285D01*
X111678571Y-119195000D02*
X111678571Y-118909285D01*
X111607142Y-118766428D01*
X111535714Y-118695000D01*
X111321428Y-118552142D01*
X111035714Y-118480714D01*
X110464285Y-118480714D01*
X110321428Y-118552142D01*
X110250000Y-118623571D01*
X110178571Y-118766428D01*
X110178571Y-119052142D01*
X110250000Y-119195000D01*
X110321428Y-119266428D01*
X110464285Y-119337857D01*
X110821428Y-119337857D01*
X110964285Y-119266428D01*
X111035714Y-119195000D01*
X111107142Y-119052142D01*
X111107142Y-118766428D01*
X111035714Y-118623571D01*
X110964285Y-118552142D01*
X110821428Y-118480714D01*
X110892857Y-117837857D02*
X110892857Y-117337857D01*
X111678571Y-117123571D02*
X111678571Y-117837857D01*
X110178571Y-117837857D01*
X110178571Y-117123571D01*
X110678571Y-115552142D02*
X110678571Y-114980714D01*
X111678571Y-115337857D02*
X110392857Y-115337857D01*
X110250000Y-115266428D01*
X110178571Y-115123571D01*
X110178571Y-114980714D01*
X111678571Y-114480714D02*
X110678571Y-114480714D01*
X110178571Y-114480714D02*
X110250000Y-114552142D01*
X110321428Y-114480714D01*
X110250000Y-114409285D01*
X110178571Y-114480714D01*
X110321428Y-114480714D01*
X110678571Y-113980714D02*
X110678571Y-113409285D01*
X110178571Y-113766428D02*
X111464285Y-113766428D01*
X111607142Y-113695000D01*
X111678571Y-113552142D01*
X111678571Y-113409285D01*
X110178571Y-111337857D02*
X111250000Y-111337857D01*
X111464285Y-111409285D01*
X111607142Y-111552142D01*
X111678571Y-111766428D01*
X111678571Y-111909285D01*
X111678571Y-110623571D02*
X110178571Y-110623571D01*
X110178571Y-110052142D01*
X110250000Y-109909285D01*
X110321428Y-109837857D01*
X110464285Y-109766428D01*
X110678571Y-109766428D01*
X110821428Y-109837857D01*
X110892857Y-109909285D01*
X110964285Y-110052142D01*
X110964285Y-110623571D01*
X110178571Y-109266428D02*
X110178571Y-108266428D01*
X111678571Y-108909285D01*
X186441428Y-90618571D02*
X187298571Y-90618571D01*
X186870000Y-92118571D02*
X186870000Y-90618571D01*
X187655714Y-90618571D02*
X188655714Y-92118571D01*
X188655714Y-90618571D02*
X187655714Y-92118571D01*
X189227142Y-92118571D02*
X189227142Y-90618571D01*
X189584285Y-90618571D01*
X189798571Y-90690000D01*
X189941428Y-90832857D01*
X190012857Y-90975714D01*
X190084285Y-91261428D01*
X190084285Y-91475714D01*
X190012857Y-91761428D01*
X189941428Y-91904285D01*
X189798571Y-92047142D01*
X189584285Y-92118571D01*
X189227142Y-92118571D01*
D13*
X107295000Y-144354285D02*
X107223571Y-144425714D01*
X107009285Y-144568571D01*
X106866428Y-144640000D01*
X106652142Y-144711428D01*
X106295000Y-144782857D01*
X106009285Y-144782857D01*
X105652142Y-144711428D01*
X105437857Y-144640000D01*
X105295000Y-144568571D01*
X105080714Y-144425714D01*
X105009285Y-144354285D01*
X106652142Y-143140000D02*
X106723571Y-143282857D01*
X106723571Y-143568571D01*
X106652142Y-143711428D01*
X106580714Y-143782857D01*
X106437857Y-143854285D01*
X106009285Y-143854285D01*
X105866428Y-143782857D01*
X105795000Y-143711428D01*
X105723571Y-143568571D01*
X105723571Y-143282857D01*
X105795000Y-143140000D01*
X107295000Y-142640000D02*
X107223571Y-142568571D01*
X107009285Y-142425714D01*
X106866428Y-142354285D01*
X106652142Y-142282857D01*
X106295000Y-142211428D01*
X106009285Y-142211428D01*
X105652142Y-142282857D01*
X105437857Y-142354285D01*
X105295000Y-142425714D01*
X105080714Y-142568571D01*
X105009285Y-142640000D01*
X106723571Y-140354285D02*
X105223571Y-140354285D01*
X105937857Y-140354285D02*
X105937857Y-139497142D01*
X106723571Y-139497142D02*
X105223571Y-139497142D01*
X106723571Y-138568571D02*
X106652142Y-138711428D01*
X106580714Y-138782857D01*
X106437857Y-138854285D01*
X106009285Y-138854285D01*
X105866428Y-138782857D01*
X105795000Y-138711428D01*
X105723571Y-138568571D01*
X105723571Y-138354285D01*
X105795000Y-138211428D01*
X105866428Y-138140000D01*
X106009285Y-138068571D01*
X106437857Y-138068571D01*
X106580714Y-138140000D01*
X106652142Y-138211428D01*
X106723571Y-138354285D01*
X106723571Y-138568571D01*
X105723571Y-136782857D02*
X106937857Y-136782857D01*
X107080714Y-136854285D01*
X107152142Y-136925714D01*
X107223571Y-137068571D01*
X107223571Y-137282857D01*
X107152142Y-137425714D01*
X106652142Y-136782857D02*
X106723571Y-136925714D01*
X106723571Y-137211428D01*
X106652142Y-137354285D01*
X106580714Y-137425714D01*
X106437857Y-137497142D01*
X106009285Y-137497142D01*
X105866428Y-137425714D01*
X105795000Y-137354285D01*
X105723571Y-137211428D01*
X105723571Y-136925714D01*
X105795000Y-136782857D01*
X106723571Y-135854285D02*
X106652142Y-135997142D01*
X106509285Y-136068571D01*
X105223571Y-136068571D01*
X106652142Y-134711428D02*
X106723571Y-134854285D01*
X106723571Y-135140000D01*
X106652142Y-135282857D01*
X106509285Y-135354285D01*
X105937857Y-135354285D01*
X105795000Y-135282857D01*
X105723571Y-135140000D01*
X105723571Y-134854285D01*
X105795000Y-134711428D01*
X105937857Y-134640000D01*
X106080714Y-134640000D01*
X106223571Y-135354285D01*
X105723571Y-134211428D02*
X105723571Y-133640000D01*
X105223571Y-133997142D02*
X106509285Y-133997142D01*
X106652142Y-133925714D01*
X106723571Y-133782857D01*
X106723571Y-133640000D01*
X105366428Y-132068571D02*
X105295000Y-131997142D01*
X105223571Y-131854285D01*
X105223571Y-131497142D01*
X105295000Y-131354285D01*
X105366428Y-131282857D01*
X105509285Y-131211428D01*
X105652142Y-131211428D01*
X105866428Y-131282857D01*
X106723571Y-132140000D01*
X106723571Y-131211428D01*
X105223571Y-130282857D02*
X105223571Y-130140000D01*
X105295000Y-129997142D01*
X105366428Y-129925714D01*
X105509285Y-129854285D01*
X105795000Y-129782857D01*
X106152142Y-129782857D01*
X106437857Y-129854285D01*
X106580714Y-129925714D01*
X106652142Y-129997142D01*
X106723571Y-130140000D01*
X106723571Y-130282857D01*
X106652142Y-130425714D01*
X106580714Y-130497142D01*
X106437857Y-130568571D01*
X106152142Y-130640000D01*
X105795000Y-130640000D01*
X105509285Y-130568571D01*
X105366428Y-130497142D01*
X105295000Y-130425714D01*
X105223571Y-130282857D01*
X105366428Y-129211428D02*
X105295000Y-129140000D01*
X105223571Y-128997142D01*
X105223571Y-128640000D01*
X105295000Y-128497142D01*
X105366428Y-128425714D01*
X105509285Y-128354285D01*
X105652142Y-128354285D01*
X105866428Y-128425714D01*
X106723571Y-129282857D01*
X106723571Y-128354285D01*
X105223571Y-127854285D02*
X105223571Y-126925714D01*
X105795000Y-127425714D01*
X105795000Y-127211428D01*
X105866428Y-127068571D01*
X105937857Y-126997142D01*
X106080714Y-126925714D01*
X106437857Y-126925714D01*
X106580714Y-126997142D01*
X106652142Y-127068571D01*
X106723571Y-127211428D01*
X106723571Y-127640000D01*
X106652142Y-127782857D01*
X106580714Y-127854285D01*
D12*
X188782714Y-131980714D02*
X188711285Y-132052142D01*
X188497000Y-132123571D01*
X188354142Y-132123571D01*
X188139857Y-132052142D01*
X187997000Y-131909285D01*
X187925571Y-131766428D01*
X187854142Y-131480714D01*
X187854142Y-131266428D01*
X187925571Y-130980714D01*
X187997000Y-130837857D01*
X188139857Y-130695000D01*
X188354142Y-130623571D01*
X188497000Y-130623571D01*
X188711285Y-130695000D01*
X188782714Y-130766428D01*
X189354142Y-132052142D02*
X189568428Y-132123571D01*
X189925571Y-132123571D01*
X190068428Y-132052142D01*
X190139857Y-131980714D01*
X190211285Y-131837857D01*
X190211285Y-131695000D01*
X190139857Y-131552142D01*
X190068428Y-131480714D01*
X189925571Y-131409285D01*
X189639857Y-131337857D01*
X189497000Y-131266428D01*
X189425571Y-131195000D01*
X189354142Y-131052142D01*
X189354142Y-130909285D01*
X189425571Y-130766428D01*
X189497000Y-130695000D01*
X189639857Y-130623571D01*
X189997000Y-130623571D01*
X190211285Y-130695000D01*
X184560714Y-86967142D02*
X184775000Y-87038571D01*
X185132142Y-87038571D01*
X185275000Y-86967142D01*
X185346428Y-86895714D01*
X185417857Y-86752857D01*
X185417857Y-86610000D01*
X185346428Y-86467142D01*
X185275000Y-86395714D01*
X185132142Y-86324285D01*
X184846428Y-86252857D01*
X184703571Y-86181428D01*
X184632142Y-86110000D01*
X184560714Y-85967142D01*
X184560714Y-85824285D01*
X184632142Y-85681428D01*
X184703571Y-85610000D01*
X184846428Y-85538571D01*
X185203571Y-85538571D01*
X185417857Y-85610000D01*
X186632142Y-86967142D02*
X186489285Y-87038571D01*
X186203571Y-87038571D01*
X186060714Y-86967142D01*
X185989285Y-86824285D01*
X185989285Y-86252857D01*
X186060714Y-86110000D01*
X186203571Y-86038571D01*
X186489285Y-86038571D01*
X186632142Y-86110000D01*
X186703571Y-86252857D01*
X186703571Y-86395714D01*
X185989285Y-86538571D01*
X187346428Y-87038571D02*
X187346428Y-86038571D01*
X187346428Y-86324285D02*
X187417857Y-86181428D01*
X187489285Y-86110000D01*
X187632142Y-86038571D01*
X187775000Y-86038571D01*
X188275000Y-87038571D02*
X188275000Y-86038571D01*
X188275000Y-85538571D02*
X188203571Y-85610000D01*
X188275000Y-85681428D01*
X188346428Y-85610000D01*
X188275000Y-85538571D01*
X188275000Y-85681428D01*
X189632142Y-87038571D02*
X189632142Y-86252857D01*
X189560714Y-86110000D01*
X189417857Y-86038571D01*
X189132142Y-86038571D01*
X188989285Y-86110000D01*
X189632142Y-86967142D02*
X189489285Y-87038571D01*
X189132142Y-87038571D01*
X188989285Y-86967142D01*
X188917857Y-86824285D01*
X188917857Y-86681428D01*
X188989285Y-86538571D01*
X189132142Y-86467142D01*
X189489285Y-86467142D01*
X189632142Y-86395714D01*
X190560714Y-87038571D02*
X190417857Y-86967142D01*
X190346428Y-86824285D01*
X190346428Y-85538571D01*
X191632142Y-86252857D02*
X191846428Y-86324285D01*
X191917857Y-86395714D01*
X191989285Y-86538571D01*
X191989285Y-86752857D01*
X191917857Y-86895714D01*
X191846428Y-86967142D01*
X191703571Y-87038571D01*
X191132142Y-87038571D01*
X191132142Y-85538571D01*
X191632142Y-85538571D01*
X191775000Y-85610000D01*
X191846428Y-85681428D01*
X191917857Y-85824285D01*
X191917857Y-85967142D01*
X191846428Y-86110000D01*
X191775000Y-86181428D01*
X191632142Y-86252857D01*
X191132142Y-86252857D01*
X188854142Y-120463571D02*
X188139857Y-120463571D01*
X188068428Y-121177857D01*
X188139857Y-121106428D01*
X188282714Y-121035000D01*
X188639857Y-121035000D01*
X188782714Y-121106428D01*
X188854142Y-121177857D01*
X188925571Y-121320714D01*
X188925571Y-121677857D01*
X188854142Y-121820714D01*
X188782714Y-121892142D01*
X188639857Y-121963571D01*
X188282714Y-121963571D01*
X188139857Y-121892142D01*
X188068428Y-121820714D01*
X189354142Y-120463571D02*
X189854142Y-121963571D01*
X190354142Y-120463571D01*
X186441428Y-60748571D02*
X187298571Y-60748571D01*
X186870000Y-62248571D02*
X186870000Y-60748571D01*
X187655714Y-60748571D02*
X188655714Y-62248571D01*
X188655714Y-60748571D02*
X187655714Y-62248571D01*
X189227142Y-62248571D02*
X189227142Y-60748571D01*
X189584285Y-60748571D01*
X189798571Y-60820000D01*
X189941428Y-60962857D01*
X190012857Y-61105714D01*
X190084285Y-61391428D01*
X190084285Y-61605714D01*
X190012857Y-61891428D01*
X189941428Y-62034285D01*
X189798571Y-62177142D01*
X189584285Y-62248571D01*
X189227142Y-62248571D01*
X186941428Y-100850000D02*
X186798571Y-100778571D01*
X186584285Y-100778571D01*
X186370000Y-100850000D01*
X186227142Y-100992857D01*
X186155714Y-101135714D01*
X186084285Y-101421428D01*
X186084285Y-101635714D01*
X186155714Y-101921428D01*
X186227142Y-102064285D01*
X186370000Y-102207142D01*
X186584285Y-102278571D01*
X186727142Y-102278571D01*
X186941428Y-102207142D01*
X187012857Y-102135714D01*
X187012857Y-101635714D01*
X186727142Y-101635714D01*
X187655714Y-102278571D02*
X187655714Y-100778571D01*
X188512857Y-102278571D01*
X188512857Y-100778571D01*
X189227142Y-102278571D02*
X189227142Y-100778571D01*
X189584285Y-100778571D01*
X189798571Y-100850000D01*
X189941428Y-100992857D01*
X190012857Y-101135714D01*
X190084285Y-101421428D01*
X190084285Y-101635714D01*
X190012857Y-101921428D01*
X189941428Y-102064285D01*
X189798571Y-102207142D01*
X189584285Y-102278571D01*
X189227142Y-102278571D01*
X187138571Y-142525714D02*
X187138571Y-143240000D01*
X187852857Y-143311428D01*
X187781428Y-143240000D01*
X187710000Y-143097142D01*
X187710000Y-142740000D01*
X187781428Y-142597142D01*
X187852857Y-142525714D01*
X187995714Y-142454285D01*
X188352857Y-142454285D01*
X188495714Y-142525714D01*
X188567142Y-142597142D01*
X188638571Y-142740000D01*
X188638571Y-143097142D01*
X188567142Y-143240000D01*
X188495714Y-143311428D01*
X187138571Y-142025714D02*
X188638571Y-141525714D01*
X187138571Y-141025714D01*
X186354142Y-129512142D02*
X186568428Y-129583571D01*
X186925571Y-129583571D01*
X187068428Y-129512142D01*
X187139857Y-129440714D01*
X187211285Y-129297857D01*
X187211285Y-129155000D01*
X187139857Y-129012142D01*
X187068428Y-128940714D01*
X186925571Y-128869285D01*
X186639857Y-128797857D01*
X186497000Y-128726428D01*
X186425571Y-128655000D01*
X186354142Y-128512142D01*
X186354142Y-128369285D01*
X186425571Y-128226428D01*
X186497000Y-128155000D01*
X186639857Y-128083571D01*
X186997000Y-128083571D01*
X187211285Y-128155000D01*
X188711285Y-129440714D02*
X188639857Y-129512142D01*
X188425571Y-129583571D01*
X188282714Y-129583571D01*
X188068428Y-129512142D01*
X187925571Y-129369285D01*
X187854142Y-129226428D01*
X187782714Y-128940714D01*
X187782714Y-128726428D01*
X187854142Y-128440714D01*
X187925571Y-128297857D01*
X188068428Y-128155000D01*
X188282714Y-128083571D01*
X188425571Y-128083571D01*
X188639857Y-128155000D01*
X188711285Y-128226428D01*
X189354142Y-129583571D02*
X189354142Y-128083571D01*
X190211285Y-129583571D02*
X189568428Y-128726428D01*
X190211285Y-128083571D02*
X189354142Y-128940714D01*
X187655714Y-97198571D02*
X187655714Y-95698571D01*
X188512857Y-97198571D01*
X188512857Y-95698571D01*
X190084285Y-97055714D02*
X190012857Y-97127142D01*
X189798571Y-97198571D01*
X189655714Y-97198571D01*
X189441428Y-97127142D01*
X189298571Y-96984285D01*
X189227142Y-96841428D01*
X189155714Y-96555714D01*
X189155714Y-96341428D01*
X189227142Y-96055714D01*
X189298571Y-95912857D01*
X189441428Y-95770000D01*
X189655714Y-95698571D01*
X189798571Y-95698571D01*
X190012857Y-95770000D01*
X190084285Y-95841428D01*
X185425571Y-127043571D02*
X185425571Y-125543571D01*
X185925571Y-126615000D01*
X186425571Y-125543571D01*
X186425571Y-127043571D01*
X187425571Y-125543571D02*
X187711285Y-125543571D01*
X187854142Y-125615000D01*
X187997000Y-125757857D01*
X188068428Y-126043571D01*
X188068428Y-126543571D01*
X187997000Y-126829285D01*
X187854142Y-126972142D01*
X187711285Y-127043571D01*
X187425571Y-127043571D01*
X187282714Y-126972142D01*
X187139857Y-126829285D01*
X187068428Y-126543571D01*
X187068428Y-126043571D01*
X187139857Y-125757857D01*
X187282714Y-125615000D01*
X187425571Y-125543571D01*
X188639857Y-126972142D02*
X188854142Y-127043571D01*
X189211285Y-127043571D01*
X189354142Y-126972142D01*
X189425571Y-126900714D01*
X189497000Y-126757857D01*
X189497000Y-126615000D01*
X189425571Y-126472142D01*
X189354142Y-126400714D01*
X189211285Y-126329285D01*
X188925571Y-126257857D01*
X188782714Y-126186428D01*
X188711285Y-126115000D01*
X188639857Y-125972142D01*
X188639857Y-125829285D01*
X188711285Y-125686428D01*
X188782714Y-125615000D01*
X188925571Y-125543571D01*
X189282714Y-125543571D01*
X189497000Y-125615000D01*
X190139857Y-127043571D02*
X190139857Y-125543571D01*
D13*
X111803571Y-90435714D02*
X110303571Y-90435714D01*
X111803571Y-88864285D02*
X111089285Y-89364285D01*
X111803571Y-89721428D02*
X110303571Y-89721428D01*
X110303571Y-89150000D01*
X110375000Y-89007142D01*
X110446428Y-88935714D01*
X110589285Y-88864285D01*
X110803571Y-88864285D01*
X110946428Y-88935714D01*
X111017857Y-89007142D01*
X111089285Y-89150000D01*
X111089285Y-89721428D01*
X111946428Y-87221428D02*
X111875000Y-87364285D01*
X111732142Y-87507142D01*
X111517857Y-87721428D01*
X111446428Y-87864285D01*
X111446428Y-88007142D01*
X111803571Y-87935714D02*
X111732142Y-88078571D01*
X111589285Y-88221428D01*
X111303571Y-88292857D01*
X110803571Y-88292857D01*
X110517857Y-88221428D01*
X110375000Y-88078571D01*
X110303571Y-87935714D01*
X110303571Y-87650000D01*
X110375000Y-87507142D01*
X110517857Y-87364285D01*
X110803571Y-87292857D01*
X111303571Y-87292857D01*
X111589285Y-87364285D01*
X111732142Y-87507142D01*
X111803571Y-87650000D01*
X111803571Y-87935714D01*
D12*
X186941428Y-70980000D02*
X186798571Y-70908571D01*
X186584285Y-70908571D01*
X186370000Y-70980000D01*
X186227142Y-71122857D01*
X186155714Y-71265714D01*
X186084285Y-71551428D01*
X186084285Y-71765714D01*
X186155714Y-72051428D01*
X186227142Y-72194285D01*
X186370000Y-72337142D01*
X186584285Y-72408571D01*
X186727142Y-72408571D01*
X186941428Y-72337142D01*
X187012857Y-72265714D01*
X187012857Y-71765714D01*
X186727142Y-71765714D01*
X187655714Y-72408571D02*
X187655714Y-70908571D01*
X188512857Y-72408571D01*
X188512857Y-70908571D01*
X189227142Y-72408571D02*
X189227142Y-70908571D01*
X189584285Y-70908571D01*
X189798571Y-70980000D01*
X189941428Y-71122857D01*
X190012857Y-71265714D01*
X190084285Y-71551428D01*
X190084285Y-71765714D01*
X190012857Y-72051428D01*
X189941428Y-72194285D01*
X189798571Y-72337142D01*
X189584285Y-72408571D01*
X189227142Y-72408571D01*
X106771428Y-48493071D02*
X106271428Y-47778785D01*
X105914285Y-48493071D02*
X105914285Y-46993071D01*
X106485714Y-46993071D01*
X106628571Y-47064500D01*
X106700000Y-47135928D01*
X106771428Y-47278785D01*
X106771428Y-47493071D01*
X106700000Y-47635928D01*
X106628571Y-47707357D01*
X106485714Y-47778785D01*
X105914285Y-47778785D01*
X107700000Y-46993071D02*
X107985714Y-46993071D01*
X108128571Y-47064500D01*
X108271428Y-47207357D01*
X108342857Y-47493071D01*
X108342857Y-47993071D01*
X108271428Y-48278785D01*
X108128571Y-48421642D01*
X107985714Y-48493071D01*
X107700000Y-48493071D01*
X107557142Y-48421642D01*
X107414285Y-48278785D01*
X107342857Y-47993071D01*
X107342857Y-47493071D01*
X107414285Y-47207357D01*
X107557142Y-47064500D01*
X107700000Y-46993071D01*
X108985714Y-48493071D02*
X108985714Y-46993071D01*
X109485714Y-48064500D01*
X109985714Y-46993071D01*
X109985714Y-48493071D01*
X106628571Y-49408071D02*
X106985714Y-50908071D01*
X107271428Y-49836642D01*
X107557142Y-50908071D01*
X107914285Y-49408071D01*
X108485714Y-50122357D02*
X108985714Y-50122357D01*
X109200000Y-50908071D02*
X108485714Y-50908071D01*
X108485714Y-49408071D01*
X109200000Y-49408071D01*
X188408571Y-139144285D02*
X188408571Y-139001428D01*
X188480000Y-138858571D01*
X188551428Y-138787142D01*
X188694285Y-138715714D01*
X188980000Y-138644285D01*
X189337142Y-138644285D01*
X189622857Y-138715714D01*
X189765714Y-138787142D01*
X189837142Y-138858571D01*
X189908571Y-139001428D01*
X189908571Y-139144285D01*
X189837142Y-139287142D01*
X189765714Y-139358571D01*
X189622857Y-139430000D01*
X189337142Y-139501428D01*
X188980000Y-139501428D01*
X188694285Y-139430000D01*
X188551428Y-139358571D01*
X188480000Y-139287142D01*
X188408571Y-139144285D01*
X188408571Y-138215714D02*
X189908571Y-137715714D01*
X188408571Y-137215714D01*
D13*
X109942380Y-55443333D02*
X110656666Y-55443333D01*
X110799523Y-55490952D01*
X110894761Y-55586190D01*
X110942380Y-55729047D01*
X110942380Y-55824285D01*
X110942380Y-54967142D02*
X109942380Y-54967142D01*
X109942380Y-54586190D01*
X109990000Y-54490952D01*
X110037619Y-54443333D01*
X110132857Y-54395714D01*
X110275714Y-54395714D01*
X110370952Y-54443333D01*
X110418571Y-54490952D01*
X110466190Y-54586190D01*
X110466190Y-54967142D01*
X110942380Y-53919523D02*
X110942380Y-53729047D01*
X110894761Y-53633809D01*
X110847142Y-53586190D01*
X110704285Y-53490952D01*
X110513809Y-53443333D01*
X110132857Y-53443333D01*
X110037619Y-53490952D01*
X109990000Y-53538571D01*
X109942380Y-53633809D01*
X109942380Y-53824285D01*
X109990000Y-53919523D01*
X110037619Y-53967142D01*
X110132857Y-54014761D01*
X110370952Y-54014761D01*
X110466190Y-53967142D01*
X110513809Y-53919523D01*
X110561428Y-53824285D01*
X110561428Y-53633809D01*
X110513809Y-53538571D01*
X110466190Y-53490952D01*
X110370952Y-53443333D01*
X96104476Y-55332380D02*
X96104476Y-56046666D01*
X96056857Y-56189523D01*
X95961619Y-56284761D01*
X95818761Y-56332380D01*
X95723523Y-56332380D01*
X96580666Y-56332380D02*
X96580666Y-55332380D01*
X96961619Y-55332380D01*
X97056857Y-55380000D01*
X97104476Y-55427619D01*
X97152095Y-55522857D01*
X97152095Y-55665714D01*
X97104476Y-55760952D01*
X97056857Y-55808571D01*
X96961619Y-55856190D01*
X96580666Y-55856190D01*
X98104476Y-56332380D02*
X97533047Y-56332380D01*
X97818761Y-56332380D02*
X97818761Y-55332380D01*
X97723523Y-55475238D01*
X97628285Y-55570476D01*
X97533047Y-55618095D01*
X98723523Y-55332380D02*
X98818761Y-55332380D01*
X98914000Y-55380000D01*
X98961619Y-55427619D01*
X99009238Y-55522857D01*
X99056857Y-55713333D01*
X99056857Y-55951428D01*
X99009238Y-56141904D01*
X98961619Y-56237142D01*
X98914000Y-56284761D01*
X98818761Y-56332380D01*
X98723523Y-56332380D01*
X98628285Y-56284761D01*
X98580666Y-56237142D01*
X98533047Y-56141904D01*
X98485428Y-55951428D01*
X98485428Y-55713333D01*
X98533047Y-55522857D01*
X98580666Y-55427619D01*
X98628285Y-55380000D01*
X98723523Y-55332380D01*
X182697380Y-75731666D02*
X182221190Y-76065000D01*
X182697380Y-76303095D02*
X181697380Y-76303095D01*
X181697380Y-75922142D01*
X181745000Y-75826904D01*
X181792619Y-75779285D01*
X181887857Y-75731666D01*
X182030714Y-75731666D01*
X182125952Y-75779285D01*
X182173571Y-75826904D01*
X182221190Y-75922142D01*
X182221190Y-76303095D01*
X181697380Y-75398333D02*
X181697380Y-74779285D01*
X182078333Y-75112619D01*
X182078333Y-74969761D01*
X182125952Y-74874523D01*
X182173571Y-74826904D01*
X182268809Y-74779285D01*
X182506904Y-74779285D01*
X182602142Y-74826904D01*
X182649761Y-74874523D01*
X182697380Y-74969761D01*
X182697380Y-75255476D01*
X182649761Y-75350714D01*
X182602142Y-75398333D01*
X157998103Y-102312372D02*
X157998103Y-103121896D01*
X158045722Y-103217134D01*
X158093341Y-103264753D01*
X158188579Y-103312372D01*
X158379055Y-103312372D01*
X158474293Y-103264753D01*
X158521912Y-103217134D01*
X158569531Y-103121896D01*
X158569531Y-102312372D01*
X159474293Y-102645706D02*
X159474293Y-103312372D01*
X159236198Y-102264753D02*
X158998103Y-102979039D01*
X159617150Y-102979039D01*
X139422142Y-50966666D02*
X139469761Y-51014285D01*
X139517380Y-51157142D01*
X139517380Y-51252380D01*
X139469761Y-51395238D01*
X139374523Y-51490476D01*
X139279285Y-51538095D01*
X139088809Y-51585714D01*
X138945952Y-51585714D01*
X138755476Y-51538095D01*
X138660238Y-51490476D01*
X138565000Y-51395238D01*
X138517380Y-51252380D01*
X138517380Y-51157142D01*
X138565000Y-51014285D01*
X138612619Y-50966666D01*
X139517380Y-50490476D02*
X139517380Y-50300000D01*
X139469761Y-50204761D01*
X139422142Y-50157142D01*
X139279285Y-50061904D01*
X139088809Y-50014285D01*
X138707857Y-50014285D01*
X138612619Y-50061904D01*
X138565000Y-50109523D01*
X138517380Y-50204761D01*
X138517380Y-50395238D01*
X138565000Y-50490476D01*
X138612619Y-50538095D01*
X138707857Y-50585714D01*
X138945952Y-50585714D01*
X139041190Y-50538095D01*
X139088809Y-50490476D01*
X139136428Y-50395238D01*
X139136428Y-50204761D01*
X139088809Y-50109523D01*
X139041190Y-50061904D01*
X138945952Y-50014285D01*
X109942380Y-69418333D02*
X110656666Y-69418333D01*
X110799523Y-69465952D01*
X110894761Y-69561190D01*
X110942380Y-69704047D01*
X110942380Y-69799285D01*
X110942380Y-68942142D02*
X109942380Y-68942142D01*
X109942380Y-68561190D01*
X109990000Y-68465952D01*
X110037619Y-68418333D01*
X110132857Y-68370714D01*
X110275714Y-68370714D01*
X110370952Y-68418333D01*
X110418571Y-68465952D01*
X110466190Y-68561190D01*
X110466190Y-68942142D01*
X109942380Y-68037380D02*
X109942380Y-67370714D01*
X110942380Y-67799285D01*
X96821666Y-130862268D02*
X96821666Y-131576554D01*
X96774047Y-131719411D01*
X96678809Y-131814649D01*
X96535952Y-131862268D01*
X96440714Y-131862268D01*
X97821666Y-131862268D02*
X97250238Y-131862268D01*
X97535952Y-131862268D02*
X97535952Y-130862268D01*
X97440714Y-131005126D01*
X97345476Y-131100364D01*
X97250238Y-131147983D01*
X142073333Y-100687142D02*
X142025714Y-100734761D01*
X141882857Y-100782380D01*
X141787619Y-100782380D01*
X141644761Y-100734761D01*
X141549523Y-100639523D01*
X141501904Y-100544285D01*
X141454285Y-100353809D01*
X141454285Y-100210952D01*
X141501904Y-100020476D01*
X141549523Y-99925238D01*
X141644761Y-99830000D01*
X141787619Y-99782380D01*
X141882857Y-99782380D01*
X142025714Y-99830000D01*
X142073333Y-99877619D01*
X142406666Y-99782380D02*
X143025714Y-99782380D01*
X142692380Y-100163333D01*
X142835238Y-100163333D01*
X142930476Y-100210952D01*
X142978095Y-100258571D01*
X143025714Y-100353809D01*
X143025714Y-100591904D01*
X142978095Y-100687142D01*
X142930476Y-100734761D01*
X142835238Y-100782380D01*
X142549523Y-100782380D01*
X142454285Y-100734761D01*
X142406666Y-100687142D01*
X181427380Y-110021666D02*
X180951190Y-110355000D01*
X181427380Y-110593095D02*
X180427380Y-110593095D01*
X180427380Y-110212142D01*
X180475000Y-110116904D01*
X180522619Y-110069285D01*
X180617857Y-110021666D01*
X180760714Y-110021666D01*
X180855952Y-110069285D01*
X180903571Y-110116904D01*
X180951190Y-110212142D01*
X180951190Y-110593095D01*
X181427380Y-109069285D02*
X181427380Y-109640714D01*
X181427380Y-109355000D02*
X180427380Y-109355000D01*
X180570238Y-109450238D01*
X180665476Y-109545476D01*
X180713095Y-109640714D01*
X109942380Y-75763333D02*
X110656666Y-75763333D01*
X110799523Y-75810952D01*
X110894761Y-75906190D01*
X110942380Y-76049047D01*
X110942380Y-76144285D01*
X110942380Y-75287142D02*
X109942380Y-75287142D01*
X109942380Y-74906190D01*
X109990000Y-74810952D01*
X110037619Y-74763333D01*
X110132857Y-74715714D01*
X110275714Y-74715714D01*
X110370952Y-74763333D01*
X110418571Y-74810952D01*
X110466190Y-74906190D01*
X110466190Y-75287142D01*
X109942380Y-73858571D02*
X109942380Y-74049047D01*
X109990000Y-74144285D01*
X110037619Y-74191904D01*
X110180476Y-74287142D01*
X110370952Y-74334761D01*
X110751904Y-74334761D01*
X110847142Y-74287142D01*
X110894761Y-74239523D01*
X110942380Y-74144285D01*
X110942380Y-73953809D01*
X110894761Y-73858571D01*
X110847142Y-73810952D01*
X110751904Y-73763333D01*
X110513809Y-73763333D01*
X110418571Y-73810952D01*
X110370952Y-73858571D01*
X110323333Y-73953809D01*
X110323333Y-74144285D01*
X110370952Y-74239523D01*
X110418571Y-74287142D01*
X110513809Y-74334761D01*
X180776666Y-47077380D02*
X180776666Y-47791666D01*
X180729047Y-47934523D01*
X180633809Y-48029761D01*
X180490952Y-48077380D01*
X180395714Y-48077380D01*
X181252857Y-48077380D02*
X181252857Y-47077380D01*
X181633809Y-47077380D01*
X181729047Y-47125000D01*
X181776666Y-47172619D01*
X181824285Y-47267857D01*
X181824285Y-47410714D01*
X181776666Y-47505952D01*
X181729047Y-47553571D01*
X181633809Y-47601190D01*
X181252857Y-47601190D01*
X182157619Y-47077380D02*
X182776666Y-47077380D01*
X182443333Y-47458333D01*
X182586190Y-47458333D01*
X182681428Y-47505952D01*
X182729047Y-47553571D01*
X182776666Y-47648809D01*
X182776666Y-47886904D01*
X182729047Y-47982142D01*
X182681428Y-48029761D01*
X182586190Y-48077380D01*
X182300476Y-48077380D01*
X182205238Y-48029761D01*
X182157619Y-47982142D01*
X183181666Y-144232380D02*
X183181666Y-144946666D01*
X183134047Y-145089523D01*
X183038809Y-145184761D01*
X182895952Y-145232380D01*
X182800714Y-145232380D01*
X184134047Y-144232380D02*
X183657857Y-144232380D01*
X183610238Y-144708571D01*
X183657857Y-144660952D01*
X183753095Y-144613333D01*
X183991190Y-144613333D01*
X184086428Y-144660952D01*
X184134047Y-144708571D01*
X184181666Y-144803809D01*
X184181666Y-145041904D01*
X184134047Y-145137142D01*
X184086428Y-145184761D01*
X183991190Y-145232380D01*
X183753095Y-145232380D01*
X183657857Y-145184761D01*
X183610238Y-145137142D01*
X165679523Y-145232380D02*
X165346190Y-144756190D01*
X165108095Y-145232380D02*
X165108095Y-144232380D01*
X165489047Y-144232380D01*
X165584285Y-144280000D01*
X165631904Y-144327619D01*
X165679523Y-144422857D01*
X165679523Y-144565714D01*
X165631904Y-144660952D01*
X165584285Y-144708571D01*
X165489047Y-144756190D01*
X165108095Y-144756190D01*
X166108095Y-145232380D02*
X166108095Y-144232380D01*
X166679523Y-145232380D01*
X166679523Y-144232380D01*
X167108095Y-144327619D02*
X167155714Y-144280000D01*
X167250952Y-144232380D01*
X167489047Y-144232380D01*
X167584285Y-144280000D01*
X167631904Y-144327619D01*
X167679523Y-144422857D01*
X167679523Y-144518095D01*
X167631904Y-144660952D01*
X167060476Y-145232380D01*
X167679523Y-145232380D01*
X117348095Y-61687380D02*
X117348095Y-62496904D01*
X117395714Y-62592142D01*
X117443333Y-62639761D01*
X117538571Y-62687380D01*
X117729047Y-62687380D01*
X117824285Y-62639761D01*
X117871904Y-62592142D01*
X117919523Y-62496904D01*
X117919523Y-61687380D01*
X118538571Y-62115952D02*
X118443333Y-62068333D01*
X118395714Y-62020714D01*
X118348095Y-61925476D01*
X118348095Y-61877857D01*
X118395714Y-61782619D01*
X118443333Y-61735000D01*
X118538571Y-61687380D01*
X118729047Y-61687380D01*
X118824285Y-61735000D01*
X118871904Y-61782619D01*
X118919523Y-61877857D01*
X118919523Y-61925476D01*
X118871904Y-62020714D01*
X118824285Y-62068333D01*
X118729047Y-62115952D01*
X118538571Y-62115952D01*
X118443333Y-62163571D01*
X118395714Y-62211190D01*
X118348095Y-62306428D01*
X118348095Y-62496904D01*
X118395714Y-62592142D01*
X118443333Y-62639761D01*
X118538571Y-62687380D01*
X118729047Y-62687380D01*
X118824285Y-62639761D01*
X118871904Y-62592142D01*
X118919523Y-62496904D01*
X118919523Y-62306428D01*
X118871904Y-62211190D01*
X118824285Y-62163571D01*
X118729047Y-62115952D01*
X120097380Y-89656904D02*
X120906904Y-89656904D01*
X121002142Y-89609285D01*
X121049761Y-89561666D01*
X121097380Y-89466428D01*
X121097380Y-89275952D01*
X121049761Y-89180714D01*
X121002142Y-89133095D01*
X120906904Y-89085476D01*
X120097380Y-89085476D01*
X121097380Y-88085476D02*
X121097380Y-88656904D01*
X121097380Y-88371190D02*
X120097380Y-88371190D01*
X120240238Y-88466428D01*
X120335476Y-88561666D01*
X120383095Y-88656904D01*
X131318095Y-48987380D02*
X131318095Y-49796904D01*
X131365714Y-49892142D01*
X131413333Y-49939761D01*
X131508571Y-49987380D01*
X131699047Y-49987380D01*
X131794285Y-49939761D01*
X131841904Y-49892142D01*
X131889523Y-49796904D01*
X131889523Y-48987380D01*
X132413333Y-49987380D02*
X132603809Y-49987380D01*
X132699047Y-49939761D01*
X132746666Y-49892142D01*
X132841904Y-49749285D01*
X132889523Y-49558809D01*
X132889523Y-49177857D01*
X132841904Y-49082619D01*
X132794285Y-49035000D01*
X132699047Y-48987380D01*
X132508571Y-48987380D01*
X132413333Y-49035000D01*
X132365714Y-49082619D01*
X132318095Y-49177857D01*
X132318095Y-49415952D01*
X132365714Y-49511190D01*
X132413333Y-49558809D01*
X132508571Y-49606428D01*
X132699047Y-49606428D01*
X132794285Y-49558809D01*
X132841904Y-49511190D01*
X132889523Y-49415952D01*
X153392142Y-51402857D02*
X153439761Y-51450476D01*
X153487380Y-51593333D01*
X153487380Y-51688571D01*
X153439761Y-51831428D01*
X153344523Y-51926666D01*
X153249285Y-51974285D01*
X153058809Y-52021904D01*
X152915952Y-52021904D01*
X152725476Y-51974285D01*
X152630238Y-51926666D01*
X152535000Y-51831428D01*
X152487380Y-51688571D01*
X152487380Y-51593333D01*
X152535000Y-51450476D01*
X152582619Y-51402857D01*
X153487380Y-50450476D02*
X153487380Y-51021904D01*
X153487380Y-50736190D02*
X152487380Y-50736190D01*
X152630238Y-50831428D01*
X152725476Y-50926666D01*
X152773095Y-51021904D01*
X152487380Y-49831428D02*
X152487380Y-49736190D01*
X152535000Y-49640952D01*
X152582619Y-49593333D01*
X152677857Y-49545714D01*
X152868333Y-49498095D01*
X153106428Y-49498095D01*
X153296904Y-49545714D01*
X153392142Y-49593333D01*
X153439761Y-49640952D01*
X153487380Y-49736190D01*
X153487380Y-49831428D01*
X153439761Y-49926666D01*
X153392142Y-49974285D01*
X153296904Y-50021904D01*
X153106428Y-50069523D01*
X152868333Y-50069523D01*
X152677857Y-50021904D01*
X152582619Y-49974285D01*
X152535000Y-49926666D01*
X152487380Y-49831428D01*
X187682142Y-110457857D02*
X187729761Y-110505476D01*
X187777380Y-110648333D01*
X187777380Y-110743571D01*
X187729761Y-110886428D01*
X187634523Y-110981666D01*
X187539285Y-111029285D01*
X187348809Y-111076904D01*
X187205952Y-111076904D01*
X187015476Y-111029285D01*
X186920238Y-110981666D01*
X186825000Y-110886428D01*
X186777380Y-110743571D01*
X186777380Y-110648333D01*
X186825000Y-110505476D01*
X186872619Y-110457857D01*
X187777380Y-109505476D02*
X187777380Y-110076904D01*
X187777380Y-109791190D02*
X186777380Y-109791190D01*
X186920238Y-109886428D01*
X187015476Y-109981666D01*
X187063095Y-110076904D01*
X186872619Y-109124523D02*
X186825000Y-109076904D01*
X186777380Y-108981666D01*
X186777380Y-108743571D01*
X186825000Y-108648333D01*
X186872619Y-108600714D01*
X186967857Y-108553095D01*
X187063095Y-108553095D01*
X187205952Y-108600714D01*
X187777380Y-109172142D01*
X187777380Y-108553095D01*
X166401904Y-64222380D02*
X166401904Y-65031904D01*
X166449523Y-65127142D01*
X166497142Y-65174761D01*
X166592380Y-65222380D01*
X166782857Y-65222380D01*
X166878095Y-65174761D01*
X166925714Y-65127142D01*
X166973333Y-65031904D01*
X166973333Y-64222380D01*
X167973333Y-65222380D02*
X167401904Y-65222380D01*
X167687619Y-65222380D02*
X167687619Y-64222380D01*
X167592380Y-64365238D01*
X167497142Y-64460476D01*
X167401904Y-64508095D01*
X168925714Y-65222380D02*
X168354285Y-65222380D01*
X168640000Y-65222380D02*
X168640000Y-64222380D01*
X168544761Y-64365238D01*
X168449523Y-64460476D01*
X168354285Y-64508095D01*
X194611666Y-85812380D02*
X194611666Y-86526666D01*
X194564047Y-86669523D01*
X194468809Y-86764761D01*
X194325952Y-86812380D01*
X194230714Y-86812380D01*
X194992619Y-85812380D02*
X195611666Y-85812380D01*
X195278333Y-86193333D01*
X195421190Y-86193333D01*
X195516428Y-86240952D01*
X195564047Y-86288571D01*
X195611666Y-86383809D01*
X195611666Y-86621904D01*
X195564047Y-86717142D01*
X195516428Y-86764761D01*
X195421190Y-86812380D01*
X195135476Y-86812380D01*
X195040238Y-86764761D01*
X194992619Y-86717142D01*
X109952380Y-62418333D02*
X110666666Y-62418333D01*
X110809523Y-62465952D01*
X110904761Y-62561190D01*
X110952380Y-62704047D01*
X110952380Y-62799285D01*
X110952380Y-61942142D02*
X109952380Y-61942142D01*
X109952380Y-61561190D01*
X110000000Y-61465952D01*
X110047619Y-61418333D01*
X110142857Y-61370714D01*
X110285714Y-61370714D01*
X110380952Y-61418333D01*
X110428571Y-61465952D01*
X110476190Y-61561190D01*
X110476190Y-61942142D01*
X110380952Y-60799285D02*
X110333333Y-60894523D01*
X110285714Y-60942142D01*
X110190476Y-60989761D01*
X110142857Y-60989761D01*
X110047619Y-60942142D01*
X110000000Y-60894523D01*
X109952380Y-60799285D01*
X109952380Y-60608809D01*
X110000000Y-60513571D01*
X110047619Y-60465952D01*
X110142857Y-60418333D01*
X110190476Y-60418333D01*
X110285714Y-60465952D01*
X110333333Y-60513571D01*
X110380952Y-60608809D01*
X110380952Y-60799285D01*
X110428571Y-60894523D01*
X110476190Y-60942142D01*
X110571428Y-60989761D01*
X110761904Y-60989761D01*
X110857142Y-60942142D01*
X110904761Y-60894523D01*
X110952380Y-60799285D01*
X110952380Y-60608809D01*
X110904761Y-60513571D01*
X110857142Y-60465952D01*
X110761904Y-60418333D01*
X110571428Y-60418333D01*
X110476190Y-60465952D01*
X110428571Y-60513571D01*
X110380952Y-60608809D01*
X117292380Y-96575476D02*
X116816190Y-96908809D01*
X117292380Y-97146904D02*
X116292380Y-97146904D01*
X116292380Y-96765952D01*
X116340000Y-96670714D01*
X116387619Y-96623095D01*
X116482857Y-96575476D01*
X116625714Y-96575476D01*
X116720952Y-96623095D01*
X116768571Y-96670714D01*
X116816190Y-96765952D01*
X116816190Y-97146904D01*
X117292380Y-96146904D02*
X116292380Y-96146904D01*
X117292380Y-95575476D01*
X116292380Y-95575476D01*
X117292380Y-94575476D02*
X117292380Y-95146904D01*
X117292380Y-94861190D02*
X116292380Y-94861190D01*
X116435238Y-94956428D01*
X116530476Y-95051666D01*
X116578095Y-95146904D01*
X117300476Y-51522380D02*
X117967142Y-52522380D01*
X117967142Y-51522380D02*
X117300476Y-52522380D01*
X118871904Y-52522380D02*
X118300476Y-52522380D01*
X118586190Y-52522380D02*
X118586190Y-51522380D01*
X118490952Y-51665238D01*
X118395714Y-51760476D01*
X118300476Y-51808095D01*
X111577380Y-137326666D02*
X111101190Y-137660000D01*
X111577380Y-137898095D02*
X110577380Y-137898095D01*
X110577380Y-137517142D01*
X110625000Y-137421904D01*
X110672619Y-137374285D01*
X110767857Y-137326666D01*
X110910714Y-137326666D01*
X111005952Y-137374285D01*
X111053571Y-137421904D01*
X111101190Y-137517142D01*
X111101190Y-137898095D01*
X110910714Y-136469523D02*
X111577380Y-136469523D01*
X110529761Y-136707619D02*
X111244047Y-136945714D01*
X111244047Y-136326666D01*
X195397380Y-81358095D02*
X194397380Y-81358095D01*
X194397380Y-81120000D01*
X194445000Y-80977142D01*
X194540238Y-80881904D01*
X194635476Y-80834285D01*
X194825952Y-80786666D01*
X194968809Y-80786666D01*
X195159285Y-80834285D01*
X195254523Y-80881904D01*
X195349761Y-80977142D01*
X195397380Y-81120000D01*
X195397380Y-81358095D01*
X195397380Y-79834285D02*
X195397380Y-80405714D01*
X195397380Y-80120000D02*
X194397380Y-80120000D01*
X194540238Y-80215238D01*
X194635476Y-80310476D01*
X194683095Y-80405714D01*
X182602142Y-58387857D02*
X182649761Y-58435476D01*
X182697380Y-58578333D01*
X182697380Y-58673571D01*
X182649761Y-58816428D01*
X182554523Y-58911666D01*
X182459285Y-58959285D01*
X182268809Y-59006904D01*
X182125952Y-59006904D01*
X181935476Y-58959285D01*
X181840238Y-58911666D01*
X181745000Y-58816428D01*
X181697380Y-58673571D01*
X181697380Y-58578333D01*
X181745000Y-58435476D01*
X181792619Y-58387857D01*
X182697380Y-57435476D02*
X182697380Y-58006904D01*
X182697380Y-57721190D02*
X181697380Y-57721190D01*
X181840238Y-57816428D01*
X181935476Y-57911666D01*
X181983095Y-58006904D01*
X182697380Y-56483095D02*
X182697380Y-57054523D01*
X182697380Y-56768809D02*
X181697380Y-56768809D01*
X181840238Y-56864047D01*
X181935476Y-56959285D01*
X181983095Y-57054523D01*
X193796761Y-111533333D02*
X193844380Y-111390476D01*
X193844380Y-111152380D01*
X193796761Y-111057142D01*
X193749142Y-111009523D01*
X193653904Y-110961904D01*
X193558666Y-110961904D01*
X193463428Y-111009523D01*
X193415809Y-111057142D01*
X193368190Y-111152380D01*
X193320571Y-111342857D01*
X193272952Y-111438095D01*
X193225333Y-111485714D01*
X193130095Y-111533333D01*
X193034857Y-111533333D01*
X192939619Y-111485714D01*
X192892000Y-111438095D01*
X192844380Y-111342857D01*
X192844380Y-111104761D01*
X192892000Y-110961904D01*
X192844380Y-110628571D02*
X193844380Y-110390476D01*
X193130095Y-110200000D01*
X193844380Y-110009523D01*
X192844380Y-109771428D01*
X193844380Y-108866666D02*
X193844380Y-109438095D01*
X193844380Y-109152380D02*
X192844380Y-109152380D01*
X192987238Y-109247619D01*
X193082476Y-109342857D01*
X193130095Y-109438095D01*
X109942380Y-82113333D02*
X110656666Y-82113333D01*
X110799523Y-82160952D01*
X110894761Y-82256190D01*
X110942380Y-82399047D01*
X110942380Y-82494285D01*
X110942380Y-81637142D02*
X109942380Y-81637142D01*
X109942380Y-81256190D01*
X109990000Y-81160952D01*
X110037619Y-81113333D01*
X110132857Y-81065714D01*
X110275714Y-81065714D01*
X110370952Y-81113333D01*
X110418571Y-81160952D01*
X110466190Y-81256190D01*
X110466190Y-81637142D01*
X109942380Y-80160952D02*
X109942380Y-80637142D01*
X110418571Y-80684761D01*
X110370952Y-80637142D01*
X110323333Y-80541904D01*
X110323333Y-80303809D01*
X110370952Y-80208571D01*
X110418571Y-80160952D01*
X110513809Y-80113333D01*
X110751904Y-80113333D01*
X110847142Y-80160952D01*
X110894761Y-80208571D01*
X110942380Y-80303809D01*
X110942380Y-80541904D01*
X110894761Y-80637142D01*
X110847142Y-80684761D01*
X185364523Y-48077380D02*
X185031190Y-47601190D01*
X184793095Y-48077380D02*
X184793095Y-47077380D01*
X185174047Y-47077380D01*
X185269285Y-47125000D01*
X185316904Y-47172619D01*
X185364523Y-47267857D01*
X185364523Y-47410714D01*
X185316904Y-47505952D01*
X185269285Y-47553571D01*
X185174047Y-47601190D01*
X184793095Y-47601190D01*
X185793095Y-48077380D02*
X185793095Y-47077380D01*
X186364523Y-48077380D01*
X186364523Y-47077380D01*
X187269285Y-47410714D02*
X187269285Y-48077380D01*
X187031190Y-47029761D02*
X186793095Y-47744047D01*
X187412142Y-47744047D01*
X175093333Y-98147142D02*
X175045714Y-98194761D01*
X174902857Y-98242380D01*
X174807619Y-98242380D01*
X174664761Y-98194761D01*
X174569523Y-98099523D01*
X174521904Y-98004285D01*
X174474285Y-97813809D01*
X174474285Y-97670952D01*
X174521904Y-97480476D01*
X174569523Y-97385238D01*
X174664761Y-97290000D01*
X174807619Y-97242380D01*
X174902857Y-97242380D01*
X175045714Y-97290000D01*
X175093333Y-97337619D01*
X175998095Y-97242380D02*
X175521904Y-97242380D01*
X175474285Y-97718571D01*
X175521904Y-97670952D01*
X175617142Y-97623333D01*
X175855238Y-97623333D01*
X175950476Y-97670952D01*
X175998095Y-97718571D01*
X176045714Y-97813809D01*
X176045714Y-98051904D01*
X175998095Y-98147142D01*
X175950476Y-98194761D01*
X175855238Y-98242380D01*
X175617142Y-98242380D01*
X175521904Y-98194761D01*
X175474285Y-98147142D01*
X165679523Y-122372380D02*
X165346190Y-121896190D01*
X165108095Y-122372380D02*
X165108095Y-121372380D01*
X165489047Y-121372380D01*
X165584285Y-121420000D01*
X165631904Y-121467619D01*
X165679523Y-121562857D01*
X165679523Y-121705714D01*
X165631904Y-121800952D01*
X165584285Y-121848571D01*
X165489047Y-121896190D01*
X165108095Y-121896190D01*
X166108095Y-122372380D02*
X166108095Y-121372380D01*
X166679523Y-122372380D01*
X166679523Y-121372380D01*
X167060476Y-121372380D02*
X167679523Y-121372380D01*
X167346190Y-121753333D01*
X167489047Y-121753333D01*
X167584285Y-121800952D01*
X167631904Y-121848571D01*
X167679523Y-121943809D01*
X167679523Y-122181904D01*
X167631904Y-122277142D01*
X167584285Y-122324761D01*
X167489047Y-122372380D01*
X167203333Y-122372380D01*
X167108095Y-122324761D01*
X167060476Y-122277142D01*
X157998103Y-125202370D02*
X157998103Y-126011894D01*
X158045722Y-126107132D01*
X158093341Y-126154751D01*
X158188579Y-126202370D01*
X158379055Y-126202370D01*
X158474293Y-126154751D01*
X158521912Y-126107132D01*
X158569531Y-126011894D01*
X158569531Y-125202370D01*
X159474293Y-125202370D02*
X159283817Y-125202370D01*
X159188579Y-125249990D01*
X159140960Y-125297609D01*
X159045722Y-125440466D01*
X158998103Y-125630942D01*
X158998103Y-126011894D01*
X159045722Y-126107132D01*
X159093341Y-126154751D01*
X159188579Y-126202370D01*
X159379055Y-126202370D01*
X159474293Y-126154751D01*
X159521912Y-126107132D01*
X159569531Y-126011894D01*
X159569531Y-125773799D01*
X159521912Y-125678561D01*
X159474293Y-125630942D01*
X159379055Y-125583323D01*
X159188579Y-125583323D01*
X159093341Y-125630942D01*
X159045722Y-125678561D01*
X158998103Y-125773799D01*
X173228095Y-125182380D02*
X173228095Y-125991904D01*
X173275714Y-126087142D01*
X173323333Y-126134761D01*
X173418571Y-126182380D01*
X173609047Y-126182380D01*
X173704285Y-126134761D01*
X173751904Y-126087142D01*
X173799523Y-125991904D01*
X173799523Y-125182380D01*
X174180476Y-125182380D02*
X174847142Y-125182380D01*
X174418571Y-126182380D01*
X131913333Y-100687142D02*
X131865714Y-100734761D01*
X131722857Y-100782380D01*
X131627619Y-100782380D01*
X131484761Y-100734761D01*
X131389523Y-100639523D01*
X131341904Y-100544285D01*
X131294285Y-100353809D01*
X131294285Y-100210952D01*
X131341904Y-100020476D01*
X131389523Y-99925238D01*
X131484761Y-99830000D01*
X131627619Y-99782380D01*
X131722857Y-99782380D01*
X131865714Y-99830000D01*
X131913333Y-99877619D01*
X132865714Y-100782380D02*
X132294285Y-100782380D01*
X132580000Y-100782380D02*
X132580000Y-99782380D01*
X132484761Y-99925238D01*
X132389523Y-100020476D01*
X132294285Y-100068095D01*
X109942380Y-93543333D02*
X110656666Y-93543333D01*
X110799523Y-93590952D01*
X110894761Y-93686190D01*
X110942380Y-93829047D01*
X110942380Y-93924285D01*
X110942380Y-93067142D02*
X109942380Y-93067142D01*
X109942380Y-92686190D01*
X109990000Y-92590952D01*
X110037619Y-92543333D01*
X110132857Y-92495714D01*
X110275714Y-92495714D01*
X110370952Y-92543333D01*
X110418571Y-92590952D01*
X110466190Y-92686190D01*
X110466190Y-93067142D01*
X110275714Y-91638571D02*
X110942380Y-91638571D01*
X109894761Y-91876666D02*
X110609047Y-92114761D01*
X110609047Y-91495714D01*
X181260904Y-96492380D02*
X181260904Y-97301904D01*
X181308523Y-97397142D01*
X181356142Y-97444761D01*
X181451380Y-97492380D01*
X181641857Y-97492380D01*
X181737095Y-97444761D01*
X181784714Y-97397142D01*
X181832333Y-97301904D01*
X181832333Y-96492380D01*
X182832333Y-97492380D02*
X182260904Y-97492380D01*
X182546619Y-97492380D02*
X182546619Y-96492380D01*
X182451380Y-96635238D01*
X182356142Y-96730476D01*
X182260904Y-96778095D01*
X183213285Y-96587619D02*
X183260904Y-96540000D01*
X183356142Y-96492380D01*
X183594238Y-96492380D01*
X183689476Y-96540000D01*
X183737095Y-96587619D01*
X183784714Y-96682857D01*
X183784714Y-96778095D01*
X183737095Y-96920952D01*
X183165666Y-97492380D01*
X183784714Y-97492380D01*
X194611666Y-115657380D02*
X194611666Y-116371666D01*
X194564047Y-116514523D01*
X194468809Y-116609761D01*
X194325952Y-116657380D01*
X194230714Y-116657380D01*
X195516428Y-115990714D02*
X195516428Y-116657380D01*
X195278333Y-115609761D02*
X195040238Y-116324047D01*
X195659285Y-116324047D01*
X125452142Y-63666666D02*
X125499761Y-63714285D01*
X125547380Y-63857142D01*
X125547380Y-63952380D01*
X125499761Y-64095238D01*
X125404523Y-64190476D01*
X125309285Y-64238095D01*
X125118809Y-64285714D01*
X124975952Y-64285714D01*
X124785476Y-64238095D01*
X124690238Y-64190476D01*
X124595000Y-64095238D01*
X124547380Y-63952380D01*
X124547380Y-63857142D01*
X124595000Y-63714285D01*
X124642619Y-63666666D01*
X124975952Y-63095238D02*
X124928333Y-63190476D01*
X124880714Y-63238095D01*
X124785476Y-63285714D01*
X124737857Y-63285714D01*
X124642619Y-63238095D01*
X124595000Y-63190476D01*
X124547380Y-63095238D01*
X124547380Y-62904761D01*
X124595000Y-62809523D01*
X124642619Y-62761904D01*
X124737857Y-62714285D01*
X124785476Y-62714285D01*
X124880714Y-62761904D01*
X124928333Y-62809523D01*
X124975952Y-62904761D01*
X124975952Y-63095238D01*
X125023571Y-63190476D01*
X125071190Y-63238095D01*
X125166428Y-63285714D01*
X125356904Y-63285714D01*
X125452142Y-63238095D01*
X125499761Y-63190476D01*
X125547380Y-63095238D01*
X125547380Y-62904761D01*
X125499761Y-62809523D01*
X125452142Y-62761904D01*
X125356904Y-62714285D01*
X125166428Y-62714285D01*
X125071190Y-62761904D01*
X125023571Y-62809523D01*
X124975952Y-62904761D01*
X184602380Y-110021666D02*
X184126190Y-110355000D01*
X184602380Y-110593095D02*
X183602380Y-110593095D01*
X183602380Y-110212142D01*
X183650000Y-110116904D01*
X183697619Y-110069285D01*
X183792857Y-110021666D01*
X183935714Y-110021666D01*
X184030952Y-110069285D01*
X184078571Y-110116904D01*
X184126190Y-110212142D01*
X184126190Y-110593095D01*
X183697619Y-109640714D02*
X183650000Y-109593095D01*
X183602380Y-109497857D01*
X183602380Y-109259761D01*
X183650000Y-109164523D01*
X183697619Y-109116904D01*
X183792857Y-109069285D01*
X183888095Y-109069285D01*
X184030952Y-109116904D01*
X184602380Y-109688333D01*
X184602380Y-109069285D01*
X181967142Y-126571666D02*
X182014761Y-126619285D01*
X182062380Y-126762142D01*
X182062380Y-126857380D01*
X182014761Y-127000238D01*
X181919523Y-127095476D01*
X181824285Y-127143095D01*
X181633809Y-127190714D01*
X181490952Y-127190714D01*
X181300476Y-127143095D01*
X181205238Y-127095476D01*
X181110000Y-127000238D01*
X181062380Y-126857380D01*
X181062380Y-126762142D01*
X181110000Y-126619285D01*
X181157619Y-126571666D01*
X181062380Y-126238333D02*
X181062380Y-125571666D01*
X182062380Y-126000238D01*
X166727142Y-126491666D02*
X166774761Y-126539285D01*
X166822380Y-126682142D01*
X166822380Y-126777380D01*
X166774761Y-126920238D01*
X166679523Y-127015476D01*
X166584285Y-127063095D01*
X166393809Y-127110714D01*
X166250952Y-127110714D01*
X166060476Y-127063095D01*
X165965238Y-127015476D01*
X165870000Y-126920238D01*
X165822380Y-126777380D01*
X165822380Y-126682142D01*
X165870000Y-126539285D01*
X165917619Y-126491666D01*
X165822380Y-125634523D02*
X165822380Y-125825000D01*
X165870000Y-125920238D01*
X165917619Y-125967857D01*
X166060476Y-126063095D01*
X166250952Y-126110714D01*
X166631904Y-126110714D01*
X166727142Y-126063095D01*
X166774761Y-126015476D01*
X166822380Y-125920238D01*
X166822380Y-125729761D01*
X166774761Y-125634523D01*
X166727142Y-125586904D01*
X166631904Y-125539285D01*
X166393809Y-125539285D01*
X166298571Y-125586904D01*
X166250952Y-125634523D01*
X166203333Y-125729761D01*
X166203333Y-125920238D01*
X166250952Y-126015476D01*
X166298571Y-126063095D01*
X166393809Y-126110714D01*
X166737142Y-103671666D02*
X166784761Y-103719285D01*
X166832380Y-103862142D01*
X166832380Y-103957380D01*
X166784761Y-104100238D01*
X166689523Y-104195476D01*
X166594285Y-104243095D01*
X166403809Y-104290714D01*
X166260952Y-104290714D01*
X166070476Y-104243095D01*
X165975238Y-104195476D01*
X165880000Y-104100238D01*
X165832380Y-103957380D01*
X165832380Y-103862142D01*
X165880000Y-103719285D01*
X165927619Y-103671666D01*
X166165714Y-102814523D02*
X166832380Y-102814523D01*
X165784761Y-103052619D02*
X166499047Y-103290714D01*
X166499047Y-102671666D01*
X100322142Y-138152142D02*
X100274523Y-138199761D01*
X100131666Y-138247380D01*
X100036428Y-138247380D01*
X99893571Y-138199761D01*
X99798333Y-138104523D01*
X99750714Y-138009285D01*
X99703095Y-137818809D01*
X99703095Y-137675952D01*
X99750714Y-137485476D01*
X99798333Y-137390238D01*
X99893571Y-137295000D01*
X100036428Y-137247380D01*
X100131666Y-137247380D01*
X100274523Y-137295000D01*
X100322142Y-137342619D01*
X101274523Y-138247380D02*
X100703095Y-138247380D01*
X100988809Y-138247380D02*
X100988809Y-137247380D01*
X100893571Y-137390238D01*
X100798333Y-137485476D01*
X100703095Y-137533095D01*
X101607857Y-137247380D02*
X102226904Y-137247380D01*
X101893571Y-137628333D01*
X102036428Y-137628333D01*
X102131666Y-137675952D01*
X102179285Y-137723571D01*
X102226904Y-137818809D01*
X102226904Y-138056904D01*
X102179285Y-138152142D01*
X102131666Y-138199761D01*
X102036428Y-138247380D01*
X101750714Y-138247380D01*
X101655476Y-138199761D01*
X101607857Y-138152142D01*
X144801904Y-48987380D02*
X144801904Y-49796904D01*
X144849523Y-49892142D01*
X144897142Y-49939761D01*
X144992380Y-49987380D01*
X145182857Y-49987380D01*
X145278095Y-49939761D01*
X145325714Y-49892142D01*
X145373333Y-49796904D01*
X145373333Y-48987380D01*
X146373333Y-49987380D02*
X145801904Y-49987380D01*
X146087619Y-49987380D02*
X146087619Y-48987380D01*
X145992380Y-49130238D01*
X145897142Y-49225476D01*
X145801904Y-49273095D01*
X146992380Y-48987380D02*
X147087619Y-48987380D01*
X147182857Y-49035000D01*
X147230476Y-49082619D01*
X147278095Y-49177857D01*
X147325714Y-49368333D01*
X147325714Y-49606428D01*
X147278095Y-49796904D01*
X147230476Y-49892142D01*
X147182857Y-49939761D01*
X147087619Y-49987380D01*
X146992380Y-49987380D01*
X146897142Y-49939761D01*
X146849523Y-49892142D01*
X146801904Y-49796904D01*
X146754285Y-49606428D01*
X146754285Y-49368333D01*
X146801904Y-49177857D01*
X146849523Y-49082619D01*
X146897142Y-49035000D01*
X146992380Y-48987380D01*
X121753333Y-100687142D02*
X121705714Y-100734761D01*
X121562857Y-100782380D01*
X121467619Y-100782380D01*
X121324761Y-100734761D01*
X121229523Y-100639523D01*
X121181904Y-100544285D01*
X121134285Y-100353809D01*
X121134285Y-100210952D01*
X121181904Y-100020476D01*
X121229523Y-99925238D01*
X121324761Y-99830000D01*
X121467619Y-99782380D01*
X121562857Y-99782380D01*
X121705714Y-99830000D01*
X121753333Y-99877619D01*
X122134285Y-99877619D02*
X122181904Y-99830000D01*
X122277142Y-99782380D01*
X122515238Y-99782380D01*
X122610476Y-99830000D01*
X122658095Y-99877619D01*
X122705714Y-99972857D01*
X122705714Y-100068095D01*
X122658095Y-100210952D01*
X122086666Y-100782380D01*
X122705714Y-100782380D01*
X177601666Y-47077380D02*
X177601666Y-47791666D01*
X177554047Y-47934523D01*
X177458809Y-48029761D01*
X177315952Y-48077380D01*
X177220714Y-48077380D01*
X178077857Y-48077380D02*
X178077857Y-47077380D01*
X178458809Y-47077380D01*
X178554047Y-47125000D01*
X178601666Y-47172619D01*
X178649285Y-47267857D01*
X178649285Y-47410714D01*
X178601666Y-47505952D01*
X178554047Y-47553571D01*
X178458809Y-47601190D01*
X178077857Y-47601190D01*
X179030238Y-47172619D02*
X179077857Y-47125000D01*
X179173095Y-47077380D01*
X179411190Y-47077380D01*
X179506428Y-47125000D01*
X179554047Y-47172619D01*
X179601666Y-47267857D01*
X179601666Y-47363095D01*
X179554047Y-47505952D01*
X178982619Y-48077380D01*
X179601666Y-48077380D01*
X176355476Y-88352380D02*
X177022142Y-89352380D01*
X177022142Y-88352380D02*
X176355476Y-89352380D01*
X177355476Y-88447619D02*
X177403095Y-88400000D01*
X177498333Y-88352380D01*
X177736428Y-88352380D01*
X177831666Y-88400000D01*
X177879285Y-88447619D01*
X177926904Y-88542857D01*
X177926904Y-88638095D01*
X177879285Y-88780952D01*
X177307857Y-89352380D01*
X177926904Y-89352380D01*
X141478095Y-104862380D02*
X141478095Y-105671904D01*
X141525714Y-105767142D01*
X141573333Y-105814761D01*
X141668571Y-105862380D01*
X141859047Y-105862380D01*
X141954285Y-105814761D01*
X142001904Y-105767142D01*
X142049523Y-105671904D01*
X142049523Y-104862380D01*
X142430476Y-104862380D02*
X143049523Y-104862380D01*
X142716190Y-105243333D01*
X142859047Y-105243333D01*
X142954285Y-105290952D01*
X143001904Y-105338571D01*
X143049523Y-105433809D01*
X143049523Y-105671904D01*
X143001904Y-105767142D01*
X142954285Y-105814761D01*
X142859047Y-105862380D01*
X142573333Y-105862380D01*
X142478095Y-105814761D01*
X142430476Y-105767142D01*
X174426666Y-47047380D02*
X174426666Y-47761666D01*
X174379047Y-47904523D01*
X174283809Y-47999761D01*
X174140952Y-48047380D01*
X174045714Y-48047380D01*
X174902857Y-48047380D02*
X174902857Y-47047380D01*
X175283809Y-47047380D01*
X175379047Y-47095000D01*
X175426666Y-47142619D01*
X175474285Y-47237857D01*
X175474285Y-47380714D01*
X175426666Y-47475952D01*
X175379047Y-47523571D01*
X175283809Y-47571190D01*
X174902857Y-47571190D01*
X176426666Y-48047380D02*
X175855238Y-48047380D01*
X176140952Y-48047380D02*
X176140952Y-47047380D01*
X176045714Y-47190238D01*
X175950476Y-47285476D01*
X175855238Y-47333095D01*
X139422142Y-61522857D02*
X139469761Y-61570476D01*
X139517380Y-61713333D01*
X139517380Y-61808571D01*
X139469761Y-61951428D01*
X139374523Y-62046666D01*
X139279285Y-62094285D01*
X139088809Y-62141904D01*
X138945952Y-62141904D01*
X138755476Y-62094285D01*
X138660238Y-62046666D01*
X138565000Y-61951428D01*
X138517380Y-61808571D01*
X138517380Y-61713333D01*
X138565000Y-61570476D01*
X138612619Y-61522857D01*
X139517380Y-60570476D02*
X139517380Y-61141904D01*
X139517380Y-60856190D02*
X138517380Y-60856190D01*
X138660238Y-60951428D01*
X138755476Y-61046666D01*
X138803095Y-61141904D01*
X138850714Y-59713333D02*
X139517380Y-59713333D01*
X138469761Y-59951428D02*
X139184047Y-60189523D01*
X139184047Y-59570476D01*
X173218087Y-102312372D02*
X173218087Y-103121896D01*
X173265706Y-103217134D01*
X173313325Y-103264753D01*
X173408563Y-103312372D01*
X173599039Y-103312372D01*
X173694277Y-103264753D01*
X173741896Y-103217134D01*
X173789515Y-103121896D01*
X173789515Y-102312372D01*
X174741896Y-102312372D02*
X174265706Y-102312372D01*
X174218087Y-102788563D01*
X174265706Y-102740944D01*
X174360944Y-102693325D01*
X174599039Y-102693325D01*
X174694277Y-102740944D01*
X174741896Y-102788563D01*
X174789515Y-102883801D01*
X174789515Y-103121896D01*
X174741896Y-103217134D01*
X174694277Y-103264753D01*
X174599039Y-103312372D01*
X174360944Y-103312372D01*
X174265706Y-103264753D01*
X174218087Y-103217134D01*
X121158095Y-104862380D02*
X121158095Y-105671904D01*
X121205714Y-105767142D01*
X121253333Y-105814761D01*
X121348571Y-105862380D01*
X121539047Y-105862380D01*
X121634285Y-105814761D01*
X121681904Y-105767142D01*
X121729523Y-105671904D01*
X121729523Y-104862380D01*
X122158095Y-104957619D02*
X122205714Y-104910000D01*
X122300952Y-104862380D01*
X122539047Y-104862380D01*
X122634285Y-104910000D01*
X122681904Y-104957619D01*
X122729523Y-105052857D01*
X122729523Y-105148095D01*
X122681904Y-105290952D01*
X122110476Y-105862380D01*
X122729523Y-105862380D01*
X139277380Y-71286666D02*
X138801190Y-71620000D01*
X139277380Y-71858095D02*
X138277380Y-71858095D01*
X138277380Y-71477142D01*
X138325000Y-71381904D01*
X138372619Y-71334285D01*
X138467857Y-71286666D01*
X138610714Y-71286666D01*
X138705952Y-71334285D01*
X138753571Y-71381904D01*
X138801190Y-71477142D01*
X138801190Y-71858095D01*
X138277380Y-70381904D02*
X138277380Y-70858095D01*
X138753571Y-70905714D01*
X138705952Y-70858095D01*
X138658333Y-70762857D01*
X138658333Y-70524761D01*
X138705952Y-70429523D01*
X138753571Y-70381904D01*
X138848809Y-70334285D01*
X139086904Y-70334285D01*
X139182142Y-70381904D01*
X139229761Y-70429523D01*
X139277380Y-70524761D01*
X139277380Y-70762857D01*
X139229761Y-70858095D01*
X139182142Y-70905714D01*
X194611666Y-55840380D02*
X194611666Y-56554666D01*
X194564047Y-56697523D01*
X194468809Y-56792761D01*
X194325952Y-56840380D01*
X194230714Y-56840380D01*
X195040238Y-55935619D02*
X195087857Y-55888000D01*
X195183095Y-55840380D01*
X195421190Y-55840380D01*
X195516428Y-55888000D01*
X195564047Y-55935619D01*
X195611666Y-56030857D01*
X195611666Y-56126095D01*
X195564047Y-56268952D01*
X194992619Y-56840380D01*
X195611666Y-56840380D01*
X184237380Y-65449523D02*
X184951666Y-65449523D01*
X185094523Y-65497142D01*
X185189761Y-65592380D01*
X185237380Y-65735238D01*
X185237380Y-65830476D01*
X185237380Y-64973333D02*
X184237380Y-64973333D01*
X184237380Y-64592380D01*
X184285000Y-64497142D01*
X184332619Y-64449523D01*
X184427857Y-64401904D01*
X184570714Y-64401904D01*
X184665952Y-64449523D01*
X184713571Y-64497142D01*
X184761190Y-64592380D01*
X184761190Y-64973333D01*
X185237380Y-63449523D02*
X185237380Y-64020952D01*
X185237380Y-63735238D02*
X184237380Y-63735238D01*
X184380238Y-63830476D01*
X184475476Y-63925714D01*
X184523095Y-64020952D01*
X185237380Y-62497142D02*
X185237380Y-63068571D01*
X185237380Y-62782857D02*
X184237380Y-62782857D01*
X184380238Y-62878095D01*
X184475476Y-62973333D01*
X184523095Y-63068571D01*
D10*
X106620000Y-53340000D02*
X106620000Y-52010000D01*
X106620000Y-52010000D02*
X107950000Y-52010000D01*
X106620000Y-57210000D02*
X109280000Y-57210000D01*
X109280000Y-54610000D02*
X109280000Y-57210000D01*
X106620000Y-54610000D02*
X109280000Y-54610000D01*
X106620000Y-54610000D02*
X106620000Y-57210000D01*
X104454000Y-57210000D02*
X104454000Y-54550000D01*
X100584000Y-57210000D02*
X99254000Y-57210000D01*
X101854000Y-57210000D02*
X101854000Y-54550000D01*
X99254000Y-57210000D02*
X99254000Y-55880000D01*
X101854000Y-57210000D02*
X104454000Y-57210000D01*
X101854000Y-54550000D02*
X104454000Y-54550000D01*
X180875000Y-78835000D02*
X183615000Y-78835000D01*
X183615000Y-72295000D02*
X180875000Y-72295000D01*
X182245000Y-71525000D02*
X182245000Y-72295000D01*
X183615000Y-78835000D02*
X183615000Y-72295000D01*
X180875000Y-72295000D02*
X180875000Y-78835000D01*
X182245000Y-79605000D02*
X182245000Y-78835000D01*
X163900008Y-120759992D02*
X163900008Y-100199992D01*
X161410008Y-100259992D02*
X159760008Y-100259992D01*
X153620008Y-100199992D02*
X153620008Y-120759992D01*
X163900008Y-100199992D02*
X153620008Y-100199992D01*
X157760008Y-100259992D02*
X156110008Y-100259992D01*
X156110008Y-100259992D02*
X156110008Y-120699992D01*
X153620008Y-120759992D02*
X163900008Y-120759992D01*
X161410008Y-120699992D02*
X161410008Y-100259992D01*
X156110008Y-120699992D02*
X161410008Y-120699992D01*
X157760008Y-100259992D02*
G75*
G03*
X159760008Y-100259992I1000000J0D01*
G01*
X140435000Y-48330000D02*
X140435000Y-53270000D01*
X138010000Y-48330000D02*
X137695000Y-48330000D01*
X138010000Y-53270000D02*
X137695000Y-53270000D01*
X137695000Y-48330000D02*
X137695000Y-53270000D01*
X140435000Y-53270000D02*
X140120000Y-53270000D01*
X140435000Y-48330000D02*
X140120000Y-48330000D01*
X109280000Y-68580000D02*
X109280000Y-71180000D01*
X106620000Y-71180000D02*
X109280000Y-71180000D01*
X106620000Y-65980000D02*
X107950000Y-65980000D01*
X106620000Y-68580000D02*
X106620000Y-71180000D01*
X106620000Y-68580000D02*
X109280000Y-68580000D01*
X106620000Y-67310000D02*
X106620000Y-65980000D01*
X104837500Y-125095000D02*
X105837500Y-125595000D01*
X90097500Y-130305000D02*
X90097500Y-58925000D01*
X99217500Y-58925000D02*
X99217500Y-130305000D01*
X105837500Y-124595000D02*
X104837500Y-125095000D01*
X105837500Y-125595000D02*
X105837500Y-124595000D01*
X99217500Y-92565000D02*
X90097500Y-92565000D01*
X99217500Y-130305000D02*
X90097500Y-130305000D01*
X99217500Y-96665000D02*
X90097500Y-96665000D01*
X90097500Y-58925000D02*
X99217500Y-58925000D01*
X144710000Y-98960000D02*
X139770000Y-98960000D01*
X139770000Y-101700000D02*
X139770000Y-101385000D01*
X144710000Y-101700000D02*
X139770000Y-101700000D01*
X139770000Y-99275000D02*
X139770000Y-98960000D01*
X144710000Y-101700000D02*
X144710000Y-101385000D01*
X144710000Y-99275000D02*
X144710000Y-98960000D01*
X182345000Y-113125000D02*
X182345000Y-106585000D01*
X180975000Y-113895000D02*
X180975000Y-113125000D01*
X179605000Y-113125000D02*
X182345000Y-113125000D01*
X182345000Y-106585000D02*
X179605000Y-106585000D01*
X179605000Y-106585000D02*
X179605000Y-113125000D01*
X180975000Y-105815000D02*
X180975000Y-106585000D01*
X106620000Y-74930000D02*
X109280000Y-74930000D01*
X106620000Y-74930000D02*
X106620000Y-77530000D01*
X106620000Y-72330000D02*
X107950000Y-72330000D01*
X106620000Y-73660000D02*
X106620000Y-72330000D01*
X109280000Y-74930000D02*
X109280000Y-77530000D01*
X106620000Y-77530000D02*
X109280000Y-77530000D01*
X170755000Y-46295000D02*
X172085000Y-46295000D01*
X170755000Y-48895000D02*
X170755000Y-51495000D01*
X170755000Y-47625000D02*
X170755000Y-46295000D01*
X170755000Y-48895000D02*
X173415000Y-48895000D01*
X173415000Y-48895000D02*
X173415000Y-51495000D01*
X170755000Y-51495000D02*
X173415000Y-51495000D01*
X180525000Y-134620000D02*
X181525000Y-134620000D01*
X181525000Y-134620000D02*
X181525000Y-142240000D01*
X185945000Y-137960000D02*
X186545000Y-137960000D01*
X180525000Y-134870000D02*
X181525000Y-134870000D01*
X185945000Y-135420000D02*
X186545000Y-135420000D01*
X185945000Y-133820000D02*
X185945000Y-135420000D01*
X182055000Y-141990000D02*
X181525000Y-142240000D01*
X185945000Y-141440000D02*
X185945000Y-143040000D01*
X186545000Y-138900000D02*
X185945000Y-138900000D01*
X186545000Y-133240000D02*
X180525000Y-133240000D01*
X180525000Y-141990000D02*
X181525000Y-141990000D01*
X186545000Y-143620000D02*
X186545000Y-133240000D01*
X185515000Y-132950000D02*
X181515000Y-132950000D01*
X186545000Y-141440000D02*
X185945000Y-141440000D01*
X185945000Y-136360000D02*
X185945000Y-137960000D01*
X185945000Y-143040000D02*
X186545000Y-143040000D01*
X185945000Y-138900000D02*
X185945000Y-140500000D01*
X186545000Y-136360000D02*
X185945000Y-136360000D01*
X185945000Y-140500000D02*
X186545000Y-140500000D01*
X186545000Y-133820000D02*
X185945000Y-133820000D01*
X182055000Y-134870000D02*
X182055000Y-141990000D01*
X181525000Y-134620000D02*
X182055000Y-134870000D01*
X181525000Y-142240000D02*
X180525000Y-142240000D01*
X180525000Y-133240000D02*
X180525000Y-143620000D01*
X180525000Y-143620000D02*
X186545000Y-143620000D01*
X167770000Y-133350000D02*
X164970000Y-133350000D01*
X167770000Y-143680000D02*
X167770000Y-130640000D01*
X167770000Y-130640000D02*
X164970000Y-130640000D01*
X164970000Y-143680000D02*
X167770000Y-143680000D01*
X164970000Y-130640000D02*
X164970000Y-143680000D01*
X112970000Y-59570000D02*
X112970000Y-77590000D01*
X123250000Y-59570000D02*
X112970000Y-59570000D01*
X120760000Y-77530000D02*
X120760000Y-59630000D01*
X115460000Y-77530000D02*
X120760000Y-77530000D01*
X112970000Y-77590000D02*
X123250000Y-77590000D01*
X120760000Y-59630000D02*
X119110000Y-59630000D01*
X123250000Y-77590000D02*
X123250000Y-59570000D01*
X117110000Y-59630000D02*
X115460000Y-59630000D01*
X115460000Y-59630000D02*
X115460000Y-77530000D01*
X117110000Y-59630000D02*
G75*
G03*
X119110000Y-59630000I1000000J0D01*
G01*
X169030000Y-79950000D02*
X117990000Y-79950000D01*
X117990000Y-79950000D02*
X117990000Y-97850000D01*
X169030000Y-97850000D02*
X169030000Y-79950000D01*
X117990000Y-97850000D02*
X169030000Y-97850000D01*
X168970000Y-95360000D02*
X168970000Y-82440000D01*
X168970000Y-82440000D02*
X118050000Y-82440000D01*
X118050000Y-82440000D02*
X118050000Y-87900000D01*
X118050000Y-89900000D02*
X118050000Y-95360000D01*
X118050000Y-95360000D02*
X168970000Y-95360000D01*
X118050000Y-89900000D02*
G75*
G03*
X118050000Y-87900000I0J1000000D01*
G01*
X134730000Y-77530000D02*
X134730000Y-46930000D01*
X126940000Y-77590000D02*
X137220000Y-77590000D01*
X131080000Y-46930000D02*
X129430000Y-46930000D01*
X137220000Y-77590000D02*
X137220000Y-46870000D01*
X126940000Y-46870000D02*
X126940000Y-77590000D01*
X137220000Y-46870000D02*
X126940000Y-46870000D01*
X129430000Y-77530000D02*
X134730000Y-77530000D01*
X134730000Y-46930000D02*
X133080000Y-46930000D01*
X129430000Y-46930000D02*
X129430000Y-77530000D01*
X131080000Y-46930000D02*
G75*
G03*
X133080000Y-46930000I1000000J0D01*
G01*
X154405000Y-48290000D02*
X154405000Y-53230000D01*
X154405000Y-48290000D02*
X154090000Y-48290000D01*
X154405000Y-53230000D02*
X154090000Y-53230000D01*
X151980000Y-53230000D02*
X151665000Y-53230000D01*
X151980000Y-48290000D02*
X151665000Y-48290000D01*
X151665000Y-48290000D02*
X151665000Y-53230000D01*
X186270000Y-107345000D02*
X185955000Y-107345000D01*
X188695000Y-107345000D02*
X188695000Y-112285000D01*
X185955000Y-107345000D02*
X185955000Y-112285000D01*
X186270000Y-112285000D02*
X185955000Y-112285000D01*
X188695000Y-112285000D02*
X188380000Y-112285000D01*
X188695000Y-107345000D02*
X188380000Y-107345000D01*
X156790000Y-52920000D02*
X155790000Y-53920000D01*
X179490000Y-76620000D02*
X179490000Y-52920000D01*
X155790000Y-53920000D02*
X155790000Y-76620000D01*
X155790000Y-76620000D02*
X179490000Y-76620000D01*
X166640000Y-52920000D02*
X156790000Y-52920000D01*
X179490000Y-52920000D02*
X168640000Y-52920000D01*
X202495000Y-101156670D02*
X193865000Y-101156670D01*
X193865000Y-101240000D02*
X193515000Y-101240000D01*
X202495000Y-102455715D02*
X193865000Y-102455715D01*
X193865000Y-99420000D02*
X193455000Y-99420000D01*
X193865000Y-93620000D02*
X193455000Y-93620000D01*
X202495000Y-101274765D02*
X193865000Y-101274765D01*
X202495000Y-101983335D02*
X193865000Y-101983335D01*
X193865000Y-96880000D02*
X193455000Y-96880000D01*
X202495000Y-102930000D02*
X193865000Y-102930000D01*
X193865000Y-94340000D02*
X193455000Y-94340000D01*
X202495000Y-102337620D02*
X193865000Y-102337620D01*
X202495000Y-102101430D02*
X193865000Y-102101430D01*
X202495000Y-101392860D02*
X193865000Y-101392860D01*
X202495000Y-97790000D02*
X193865000Y-97790000D01*
X202495000Y-100802385D02*
X193865000Y-100802385D01*
X193865000Y-88540000D02*
X193455000Y-88540000D01*
X202495000Y-102573810D02*
X193865000Y-102573810D01*
X202495000Y-102810000D02*
X193865000Y-102810000D01*
X202495000Y-102930000D02*
X202495000Y-87570000D01*
X202495000Y-101747145D02*
X193865000Y-101747145D01*
X202495000Y-92710000D02*
X193865000Y-92710000D01*
X202495000Y-101510955D02*
X193865000Y-101510955D01*
X193865000Y-89260000D02*
X193455000Y-89260000D01*
X202495000Y-101038575D02*
X193865000Y-101038575D01*
X193865000Y-101960000D02*
X193515000Y-101960000D01*
X202495000Y-100920480D02*
X193865000Y-100920480D01*
X193865000Y-96160000D02*
X193455000Y-96160000D01*
X193865000Y-98700000D02*
X193455000Y-98700000D01*
X202495000Y-100684290D02*
X193865000Y-100684290D01*
X202495000Y-102691905D02*
X193865000Y-102691905D01*
X202495000Y-101865240D02*
X193865000Y-101865240D01*
X202495000Y-100330000D02*
X193865000Y-100330000D01*
X193865000Y-91800000D02*
X193455000Y-91800000D01*
X192405000Y-102930000D02*
X191295000Y-102930000D01*
X202495000Y-95250000D02*
X193865000Y-95250000D01*
X202495000Y-90170000D02*
X193865000Y-90170000D01*
X202495000Y-87570000D02*
X193865000Y-87570000D01*
X202495000Y-101629050D02*
X193865000Y-101629050D01*
X193865000Y-91080000D02*
X193455000Y-91080000D01*
X191295000Y-102930000D02*
X191295000Y-101600000D01*
X202495000Y-100448100D02*
X193865000Y-100448100D01*
X193865000Y-102930000D02*
X193865000Y-87570000D01*
X202495000Y-100566195D02*
X193865000Y-100566195D01*
X202495000Y-102219525D02*
X193865000Y-102219525D01*
X106620000Y-61595000D02*
X106620000Y-64195000D01*
X106620000Y-60325000D02*
X106620000Y-58995000D01*
X106620000Y-64195000D02*
X109280000Y-64195000D01*
X106620000Y-61595000D02*
X109280000Y-61595000D01*
X106620000Y-58995000D02*
X107950000Y-58995000D01*
X109280000Y-61595000D02*
X109280000Y-64195000D01*
X115700000Y-101770000D02*
X115700000Y-78570000D01*
X112900000Y-78570000D02*
X112900000Y-101770000D01*
X112900000Y-101770000D02*
X115700000Y-101770000D01*
X115700000Y-78570000D02*
X112900000Y-78570000D01*
X112900000Y-99060000D02*
X115700000Y-99060000D01*
X111660000Y-58520000D02*
X123810000Y-58520000D01*
X124560000Y-57770000D02*
X124560000Y-46370000D01*
X111660000Y-46370000D02*
X111660000Y-58520000D01*
X123810000Y-45620000D02*
X112410000Y-45620000D01*
X124560000Y-46370000D02*
G75*
G03*
X123810000Y-45620000I-750000J0D01*
G01*
X123810000Y-58520000D02*
G75*
G03*
X124560000Y-57770000I0J750000D01*
G01*
X112410000Y-45620000D02*
G75*
G03*
X111660000Y-46370000I0J-750000D01*
G01*
X112495000Y-140430000D02*
X112495000Y-133890000D01*
X112495000Y-133890000D02*
X109755000Y-133890000D01*
X111125000Y-141200000D02*
X111125000Y-140430000D01*
X111125000Y-133120000D02*
X111125000Y-133890000D01*
X109755000Y-133890000D02*
X109755000Y-140430000D01*
X109755000Y-140430000D02*
X112495000Y-140430000D01*
X192980000Y-82180000D02*
X196840000Y-82180000D01*
X192980000Y-78660000D02*
X194100000Y-78660000D01*
X192980000Y-79060000D02*
X192980000Y-78660000D01*
X192850000Y-79350000D02*
X192850000Y-79350000D01*
X192980000Y-81890000D02*
X192850000Y-81890000D01*
X192850000Y-79350000D02*
X192980000Y-79350000D01*
X192980000Y-79060000D02*
X196840000Y-79060000D01*
X192980000Y-79350000D02*
X192850000Y-79350000D01*
X192980000Y-82180000D02*
X192980000Y-79060000D01*
X192980000Y-79350000D02*
X192980000Y-79350000D01*
X194100000Y-79060000D02*
X192980000Y-79060000D01*
X192850000Y-81890000D02*
X192980000Y-81890000D01*
X194100000Y-78660000D02*
X194100000Y-79060000D01*
X192980000Y-81890000D02*
X192980000Y-81890000D01*
X192850000Y-81890000D02*
X192850000Y-81890000D01*
X196840000Y-82180000D02*
G75*
G03*
X196840000Y-79060000I0J1560000D01*
G01*
X183615000Y-55275000D02*
X183300000Y-55275000D01*
X183615000Y-60215000D02*
X183300000Y-60215000D01*
X183615000Y-55275000D02*
X183615000Y-60215000D01*
X181190000Y-60215000D02*
X180875000Y-60215000D01*
X181190000Y-55275000D02*
X180875000Y-55275000D01*
X180875000Y-55275000D02*
X180875000Y-60215000D01*
X191272000Y-106860000D02*
X190762000Y-106860000D01*
X197772000Y-106340000D02*
X193872000Y-106340000D01*
X197772000Y-114060000D02*
X193872000Y-114060000D01*
X190762000Y-106340000D02*
X190762000Y-106860000D01*
X194102000Y-113540000D02*
X193872000Y-113540000D01*
X194102000Y-106860000D02*
X193872000Y-106860000D01*
X197772000Y-106340000D02*
X197772000Y-114060000D01*
X191272000Y-113540000D02*
X190762000Y-113540000D01*
X190762000Y-113540000D02*
X190762000Y-114060000D01*
X194102000Y-113000000D02*
X194102000Y-113540000D01*
X191272000Y-106340000D02*
X190762000Y-106340000D01*
X194102000Y-108500000D02*
X194102000Y-111900000D01*
X191272000Y-114060000D02*
X190762000Y-114060000D01*
X194102000Y-106860000D02*
X194102000Y-107400000D01*
X106620000Y-83880000D02*
X109280000Y-83880000D01*
X106620000Y-81280000D02*
X106620000Y-83880000D01*
X109280000Y-81280000D02*
X109280000Y-83880000D01*
X106620000Y-78680000D02*
X107950000Y-78680000D01*
X106620000Y-80010000D02*
X106620000Y-78680000D01*
X106620000Y-81280000D02*
X109280000Y-81280000D01*
X187515000Y-48765000D02*
X174475000Y-48765000D01*
X174475000Y-48765000D02*
X174475000Y-51565000D01*
X187515000Y-51565000D02*
X187515000Y-48765000D01*
X184805000Y-51565000D02*
X184805000Y-48765000D01*
X174475000Y-51565000D02*
X187515000Y-51565000D01*
X177730000Y-99160000D02*
X177730000Y-98845000D01*
X172790000Y-99160000D02*
X172790000Y-98845000D01*
X177730000Y-96420000D02*
X172790000Y-96420000D01*
X177730000Y-96735000D02*
X177730000Y-96420000D01*
X177730000Y-99160000D02*
X172790000Y-99160000D01*
X172790000Y-96735000D02*
X172790000Y-96420000D01*
X167770000Y-107860000D02*
X164970000Y-107860000D01*
X164970000Y-107860000D02*
X164970000Y-120900000D01*
X167770000Y-110570000D02*
X164970000Y-110570000D01*
X167770000Y-120900000D02*
X167770000Y-107860000D01*
X164970000Y-120900000D02*
X167770000Y-120900000D01*
X161410008Y-143589990D02*
X161410008Y-123149990D01*
X156110008Y-123149990D02*
X156110008Y-143589990D01*
X157760008Y-123149990D02*
X156110008Y-123149990D01*
X156110008Y-143589990D02*
X161410008Y-143589990D01*
X161410008Y-123149990D02*
X159760008Y-123149990D01*
X163900008Y-123089990D02*
X153620008Y-123089990D01*
X153620008Y-143649990D02*
X163900008Y-143649990D01*
X153620008Y-123089990D02*
X153620008Y-143649990D01*
X163900008Y-143649990D02*
X163900008Y-123089990D01*
X157760008Y-123149990D02*
G75*
G03*
X159760008Y-123149990I1000000J0D01*
G01*
X176640000Y-123130000D02*
X174990000Y-123130000D01*
X176640000Y-143570000D02*
X176640000Y-123130000D01*
X168850000Y-143630000D02*
X179130000Y-143630000D01*
X172990000Y-123130000D02*
X171340000Y-123130000D01*
X171340000Y-123130000D02*
X171340000Y-143570000D01*
X171340000Y-143570000D02*
X176640000Y-143570000D01*
X168850000Y-123070000D02*
X168850000Y-143630000D01*
X179130000Y-123070000D02*
X168850000Y-123070000D01*
X179130000Y-143630000D02*
X179130000Y-123070000D01*
X172990000Y-123130000D02*
G75*
G03*
X174990000Y-123130000I1000000J0D01*
G01*
X134550000Y-98960000D02*
X129610000Y-98960000D01*
X134550000Y-101700000D02*
X129610000Y-101700000D01*
X134550000Y-99275000D02*
X134550000Y-98960000D01*
X134550000Y-101700000D02*
X134550000Y-101385000D01*
X129610000Y-101700000D02*
X129610000Y-101385000D01*
X129610000Y-99275000D02*
X129610000Y-98960000D01*
X106620000Y-88840000D02*
X107950000Y-88840000D01*
X106620000Y-91440000D02*
X109280000Y-91440000D01*
X109280000Y-91440000D02*
X109280000Y-96580000D01*
X106620000Y-91440000D02*
X106620000Y-96580000D01*
X106620000Y-96580000D02*
X109280000Y-96580000D01*
X106620000Y-90170000D02*
X106620000Y-88840000D01*
X184299000Y-97845000D02*
X180699000Y-97845000D01*
X183319000Y-102145000D02*
G75*
G03*
X184310875Y-97853259I-820000J2450000D01*
G01*
X180690555Y-97867316D02*
G75*
G03*
X181719000Y-102145000I1808445J-1827684D01*
G01*
X202495000Y-132775000D02*
X193865000Y-132775000D01*
X193865000Y-121645000D02*
X193455000Y-121645000D01*
X202495000Y-131474050D02*
X193865000Y-131474050D01*
X193865000Y-132775000D02*
X193865000Y-117415000D01*
X193865000Y-131805000D02*
X193515000Y-131805000D01*
X193865000Y-126725000D02*
X193455000Y-126725000D01*
X202495000Y-130883575D02*
X193865000Y-130883575D01*
X193865000Y-126005000D02*
X193455000Y-126005000D01*
X193865000Y-128545000D02*
X193455000Y-128545000D01*
X202495000Y-120015000D02*
X193865000Y-120015000D01*
X202495000Y-132182620D02*
X193865000Y-132182620D01*
X202495000Y-131946430D02*
X193865000Y-131946430D01*
X202495000Y-130529290D02*
X193865000Y-130529290D01*
X202495000Y-131237860D02*
X193865000Y-131237860D01*
X193865000Y-123465000D02*
X193455000Y-123465000D01*
X202495000Y-130175000D02*
X193865000Y-130175000D01*
X193865000Y-129265000D02*
X193455000Y-129265000D01*
X202495000Y-130765480D02*
X193865000Y-130765480D01*
X202495000Y-132064525D02*
X193865000Y-132064525D01*
X193865000Y-120925000D02*
X193455000Y-120925000D01*
X202495000Y-130411195D02*
X193865000Y-130411195D01*
X202495000Y-130647385D02*
X193865000Y-130647385D01*
X202495000Y-130293100D02*
X193865000Y-130293100D01*
X202495000Y-131001670D02*
X193865000Y-131001670D01*
X202495000Y-132536905D02*
X193865000Y-132536905D01*
X202495000Y-132418810D02*
X193865000Y-132418810D01*
X202495000Y-127635000D02*
X193865000Y-127635000D01*
X193865000Y-124185000D02*
X193455000Y-124185000D01*
X193865000Y-119105000D02*
X193455000Y-119105000D01*
X202495000Y-132300715D02*
X193865000Y-132300715D01*
X202495000Y-131828335D02*
X193865000Y-131828335D01*
X191295000Y-132775000D02*
X191295000Y-131445000D01*
X202495000Y-131710240D02*
X193865000Y-131710240D01*
X202495000Y-131355955D02*
X193865000Y-131355955D01*
X202495000Y-132655000D02*
X193865000Y-132655000D01*
X202495000Y-117415000D02*
X193865000Y-117415000D01*
X193865000Y-118385000D02*
X193455000Y-118385000D01*
X192405000Y-132775000D02*
X191295000Y-132775000D01*
X202495000Y-125095000D02*
X193865000Y-125095000D01*
X202495000Y-122555000D02*
X193865000Y-122555000D01*
X202495000Y-131592145D02*
X193865000Y-131592145D01*
X202495000Y-131119765D02*
X193865000Y-131119765D01*
X202495000Y-132775000D02*
X202495000Y-117415000D01*
X193865000Y-131085000D02*
X193515000Y-131085000D01*
X124040000Y-61030000D02*
X123725000Y-61030000D01*
X126465000Y-61030000D02*
X126150000Y-61030000D01*
X123725000Y-61030000D02*
X123725000Y-65970000D01*
X124040000Y-65970000D02*
X123725000Y-65970000D01*
X126465000Y-65970000D02*
X126150000Y-65970000D01*
X126465000Y-61030000D02*
X126465000Y-65970000D01*
X185520000Y-113125000D02*
X185520000Y-106585000D01*
X184150000Y-113895000D02*
X184150000Y-113125000D01*
X184150000Y-105815000D02*
X184150000Y-106585000D01*
X182780000Y-106585000D02*
X182780000Y-113125000D01*
X182780000Y-113125000D02*
X185520000Y-113125000D01*
X185520000Y-106585000D02*
X182780000Y-106585000D01*
X180240000Y-123935000D02*
X180240000Y-128875000D01*
X180555000Y-123935000D02*
X180240000Y-123935000D01*
X182980000Y-128875000D02*
X182665000Y-128875000D01*
X180555000Y-128875000D02*
X180240000Y-128875000D01*
X182980000Y-123935000D02*
X182980000Y-128875000D01*
X182980000Y-123935000D02*
X182665000Y-123935000D01*
X165000000Y-123855000D02*
X165000000Y-128795000D01*
X167740000Y-123855000D02*
X167740000Y-128795000D01*
X165315000Y-128795000D02*
X165000000Y-128795000D01*
X167740000Y-128795000D02*
X167425000Y-128795000D01*
X167740000Y-123855000D02*
X167425000Y-123855000D01*
X165315000Y-123855000D02*
X165000000Y-123855000D01*
X167740000Y-100995000D02*
X167740000Y-105935000D01*
X165000000Y-100995000D02*
X165000000Y-105935000D01*
X165315000Y-100995000D02*
X165000000Y-100995000D01*
X165315000Y-105935000D02*
X165000000Y-105935000D01*
X167740000Y-105935000D02*
X167425000Y-105935000D01*
X167740000Y-100995000D02*
X167425000Y-100995000D01*
X102063000Y-136390888D02*
X99867000Y-136390888D01*
X103233000Y-135270888D02*
X102005000Y-135270888D01*
X99925000Y-135190888D02*
X98655000Y-135190888D01*
X99925000Y-135870888D02*
X99139000Y-135870888D01*
X102791000Y-135870888D02*
X102005000Y-135870888D01*
X102216000Y-136310888D02*
X102005000Y-136310888D01*
X103114000Y-135470888D02*
X102005000Y-135470888D01*
X99925000Y-134629888D02*
X98454000Y-134629888D01*
X99925000Y-134990888D02*
X98567000Y-134990888D01*
X103538000Y-134229888D02*
X98392000Y-134229888D01*
X102408000Y-136190888D02*
X102005000Y-136190888D01*
X99925000Y-135470888D02*
X98816000Y-135470888D01*
X99925000Y-134389888D02*
X98409000Y-134389888D01*
X102750000Y-135910888D02*
X102005000Y-135910888D01*
X99925000Y-135070888D02*
X98600000Y-135070888D01*
X99925000Y-135950888D02*
X99222000Y-135950888D01*
X99925000Y-134750888D02*
X98485000Y-134750888D01*
X103466000Y-134669888D02*
X102005000Y-134669888D01*
X99925000Y-135430888D02*
X98790000Y-135430888D01*
X103485000Y-134589888D02*
X102005000Y-134589888D01*
X103379000Y-134950888D02*
X102005000Y-134950888D01*
X103330000Y-135070888D02*
X102005000Y-135070888D01*
X99925000Y-134830888D02*
X98510000Y-134830888D01*
X103515000Y-134429888D02*
X102005000Y-134429888D01*
X103534000Y-134269888D02*
X102005000Y-134269888D01*
X101642000Y-136550888D02*
X100288000Y-136550888D01*
X103294000Y-135150888D02*
X102005000Y-135150888D01*
X103456000Y-134709888D02*
X102005000Y-134709888D01*
X103255000Y-135230888D02*
X102005000Y-135230888D01*
X102143000Y-136350888D02*
X99787000Y-136350888D01*
X103521000Y-134389888D02*
X102005000Y-134389888D01*
X99925000Y-135150888D02*
X98636000Y-135150888D01*
X99925000Y-135790888D02*
X99064000Y-135790888D01*
X99925000Y-134709888D02*
X98474000Y-134709888D01*
X102570000Y-136070888D02*
X102005000Y-136070888D01*
X99925000Y-134429888D02*
X98415000Y-134429888D01*
X99925000Y-135670888D02*
X98961000Y-135670888D01*
X103433000Y-134790888D02*
X102005000Y-134790888D01*
X99925000Y-135510888D02*
X98843000Y-135510888D01*
X99925000Y-136030888D02*
X99312000Y-136030888D01*
X103363000Y-134990888D02*
X102005000Y-134990888D01*
X99925000Y-134349888D02*
X98404000Y-134349888D01*
X99925000Y-135710888D02*
X98994000Y-135710888D01*
X99925000Y-136110888D02*
X99411000Y-136110888D01*
X99925000Y-135990888D02*
X99266000Y-135990888D01*
X102618000Y-136030888D02*
X102005000Y-136030888D01*
X99925000Y-135750888D02*
X99028000Y-135750888D01*
X102936000Y-135710888D02*
X102005000Y-135710888D01*
X101483000Y-136590888D02*
X100447000Y-136590888D01*
X99925000Y-134549888D02*
X98437000Y-134549888D01*
X103508000Y-134469888D02*
X102005000Y-134469888D01*
X103407000Y-134870888D02*
X102005000Y-134870888D01*
X102866000Y-135790888D02*
X102005000Y-135790888D01*
X103544000Y-134109888D02*
X98386000Y-134109888D01*
X103000000Y-135630888D02*
X102005000Y-135630888D01*
X103526000Y-134349888D02*
X102005000Y-134349888D01*
X101249000Y-136630888D02*
X100681000Y-136630888D01*
X102969000Y-135670888D02*
X102005000Y-135670888D01*
X102902000Y-135750888D02*
X102005000Y-135750888D01*
X99925000Y-134269888D02*
X98396000Y-134269888D01*
X103313000Y-135110888D02*
X102005000Y-135110888D01*
X103476000Y-134629888D02*
X102005000Y-134629888D01*
X103545000Y-134069888D02*
X98385000Y-134069888D01*
X102284000Y-136270888D02*
X102005000Y-136270888D01*
X102690000Y-131475113D02*
X102190000Y-131475113D01*
X102664000Y-135990888D02*
X102005000Y-135990888D01*
X99925000Y-135630888D02*
X98930000Y-135630888D01*
X103347000Y-135030888D02*
X102005000Y-135030888D01*
X99925000Y-134309888D02*
X98400000Y-134309888D01*
X103165000Y-135390888D02*
X102005000Y-135390888D01*
X99925000Y-136150888D02*
X99465000Y-136150888D01*
X103543000Y-134149888D02*
X98387000Y-134149888D01*
X103501000Y-134509888D02*
X102005000Y-134509888D01*
X99925000Y-135350888D02*
X98741000Y-135350888D01*
X102440000Y-131225113D02*
X102440000Y-131725113D01*
X99925000Y-136270888D02*
X99646000Y-136270888D01*
X99925000Y-136230888D02*
X99582000Y-136230888D01*
X103541000Y-134189888D02*
X98389000Y-134189888D01*
X99925000Y-135910888D02*
X99180000Y-135910888D01*
X103275000Y-135190888D02*
X102005000Y-135190888D01*
X102348000Y-136230888D02*
X102005000Y-136230888D01*
X99925000Y-135270888D02*
X98697000Y-135270888D01*
X99925000Y-134589888D02*
X98445000Y-134589888D01*
X103545000Y-134029888D02*
X98385000Y-134029888D01*
X103393000Y-134910888D02*
X102005000Y-134910888D01*
X99925000Y-134950888D02*
X98551000Y-134950888D01*
X101880000Y-136470888D02*
X100050000Y-136470888D01*
X101770000Y-136510888D02*
X100160000Y-136510888D01*
X103140000Y-135430888D02*
X102005000Y-135430888D01*
X99925000Y-134870888D02*
X98523000Y-134870888D01*
X99925000Y-135590888D02*
X98900000Y-135590888D01*
X103189000Y-135350888D02*
X102005000Y-135350888D01*
X99925000Y-135030888D02*
X98583000Y-135030888D01*
X99925000Y-134509888D02*
X98429000Y-134509888D01*
X102519000Y-136110888D02*
X102005000Y-136110888D01*
X103420000Y-134830888D02*
X102005000Y-134830888D01*
X101976000Y-136430888D02*
X99954000Y-136430888D01*
X99925000Y-136070888D02*
X99360000Y-136070888D01*
X102465000Y-136150888D02*
X102005000Y-136150888D01*
X103493000Y-134549888D02*
X102005000Y-134549888D01*
X99925000Y-135230888D02*
X98675000Y-135230888D01*
X103445000Y-134750888D02*
X102005000Y-134750888D01*
X99925000Y-135110888D02*
X98617000Y-135110888D01*
X99925000Y-136310888D02*
X99714000Y-136310888D01*
X99925000Y-135310888D02*
X98718000Y-135310888D01*
X99925000Y-136190888D02*
X99522000Y-136190888D01*
X99925000Y-135830888D02*
X99101000Y-135830888D01*
X103087000Y-135510888D02*
X102005000Y-135510888D01*
X99925000Y-134910888D02*
X98537000Y-134910888D01*
X102829000Y-135830888D02*
X102005000Y-135830888D01*
X99925000Y-134469888D02*
X98422000Y-134469888D01*
X103030000Y-135590888D02*
X102005000Y-135590888D01*
X99925000Y-135390888D02*
X98765000Y-135390888D01*
X99925000Y-135550888D02*
X98870000Y-135550888D01*
X103060000Y-135550888D02*
X102005000Y-135550888D01*
X99925000Y-134790888D02*
X98497000Y-134790888D01*
X99925000Y-134669888D02*
X98464000Y-134669888D01*
X102708000Y-135950888D02*
X102005000Y-135950888D01*
X103212000Y-135310888D02*
X102005000Y-135310888D01*
X103530000Y-134309888D02*
X102005000Y-134309888D01*
X103585000Y-134029888D02*
G75*
G03*
X103585000Y-134029888I-2620000J0D01*
G01*
X151190000Y-46870000D02*
X140910000Y-46870000D01*
X145050000Y-46930000D02*
X143400000Y-46930000D01*
X140910000Y-77590000D02*
X151190000Y-77590000D01*
X148700000Y-46930000D02*
X147050000Y-46930000D01*
X143400000Y-77530000D02*
X148700000Y-77530000D01*
X143400000Y-46930000D02*
X143400000Y-77530000D01*
X148700000Y-77530000D02*
X148700000Y-46930000D01*
X140910000Y-46870000D02*
X140910000Y-77590000D01*
X151190000Y-77590000D02*
X151190000Y-46870000D01*
X145050000Y-46930000D02*
G75*
G03*
X147050000Y-46930000I1000000J0D01*
G01*
X124390000Y-101700000D02*
X124390000Y-101385000D01*
X119450000Y-101700000D02*
X119450000Y-101385000D01*
X124390000Y-99275000D02*
X124390000Y-98960000D01*
X124390000Y-101700000D02*
X119450000Y-101700000D01*
X124390000Y-98960000D02*
X119450000Y-98960000D01*
X119450000Y-99275000D02*
X119450000Y-98960000D01*
X166945000Y-46295000D02*
X168275000Y-46295000D01*
X166945000Y-51495000D02*
X169605000Y-51495000D01*
X166945000Y-48895000D02*
X169605000Y-48895000D01*
X166945000Y-47625000D02*
X166945000Y-46295000D01*
X169605000Y-48895000D02*
X169605000Y-51495000D01*
X166945000Y-48895000D02*
X166945000Y-51495000D01*
X170715000Y-95350000D02*
X182865000Y-95350000D01*
X183615000Y-94600000D02*
X183615000Y-83200000D01*
X170715000Y-83200000D02*
X170715000Y-95350000D01*
X182865000Y-82450000D02*
X171465000Y-82450000D01*
X183615000Y-83200000D02*
G75*
G03*
X182865000Y-82450000I-750000J0D01*
G01*
X182865000Y-95350000D02*
G75*
G03*
X183615000Y-94600000I0J750000D01*
G01*
X171465000Y-82450000D02*
G75*
G03*
X170715000Y-83200000I0J-750000D01*
G01*
X135780000Y-102810000D02*
X135780000Y-143570000D01*
X133290000Y-102750000D02*
X133290000Y-143630000D01*
X151190000Y-102750000D02*
X133290000Y-102750000D01*
X133290000Y-143630000D02*
X151190000Y-143630000D01*
X141240000Y-102810000D02*
X135780000Y-102810000D01*
X151190000Y-143630000D02*
X151190000Y-102750000D01*
X148700000Y-102810000D02*
X143240000Y-102810000D01*
X148700000Y-143570000D02*
X148700000Y-102810000D01*
X135780000Y-143570000D02*
X148700000Y-143570000D01*
X141240000Y-102810000D02*
G75*
G03*
X143240000Y-102810000I1000000J0D01*
G01*
X163135000Y-46295000D02*
X164465000Y-46295000D01*
X165795000Y-48895000D02*
X165795000Y-51495000D01*
X163135000Y-48895000D02*
X163135000Y-51495000D01*
X163135000Y-48895000D02*
X165795000Y-48895000D01*
X163135000Y-51495000D02*
X165795000Y-51495000D01*
X163135000Y-47625000D02*
X163135000Y-46295000D01*
X137695000Y-63390000D02*
X137695000Y-58450000D01*
X140120000Y-63390000D02*
X140435000Y-63390000D01*
X140120000Y-58450000D02*
X140435000Y-58450000D01*
X137695000Y-63390000D02*
X138010000Y-63390000D01*
X140435000Y-63390000D02*
X140435000Y-58450000D01*
X137695000Y-58450000D02*
X138010000Y-58450000D01*
X171329992Y-100259992D02*
X171329992Y-120699992D01*
X171329992Y-120699992D02*
X176629992Y-120699992D01*
X179119992Y-120759992D02*
X179119992Y-100199992D01*
X176629992Y-120699992D02*
X176629992Y-100259992D01*
X179119992Y-100199992D02*
X168839992Y-100199992D01*
X172979992Y-100259992D02*
X171329992Y-100259992D01*
X176629992Y-100259992D02*
X174979992Y-100259992D01*
X168839992Y-120759992D02*
X179119992Y-120759992D01*
X168839992Y-100199992D02*
X168839992Y-120759992D01*
X172979992Y-100259992D02*
G75*
G03*
X174979992Y-100259992I1000000J0D01*
G01*
X128380000Y-143570000D02*
X128380000Y-102810000D01*
X120920000Y-102810000D02*
X115460000Y-102810000D01*
X130870000Y-102750000D02*
X112970000Y-102750000D01*
X112970000Y-143630000D02*
X130870000Y-143630000D01*
X115460000Y-143570000D02*
X128380000Y-143570000D01*
X115460000Y-102810000D02*
X115460000Y-143570000D01*
X130870000Y-143630000D02*
X130870000Y-102750000D01*
X128380000Y-102810000D02*
X122920000Y-102810000D01*
X112970000Y-102750000D02*
X112970000Y-143630000D01*
X120920000Y-102810000D02*
G75*
G03*
X122920000Y-102810000I1000000J0D01*
G01*
X137695000Y-74390000D02*
X140435000Y-74390000D01*
X137695000Y-67850000D02*
X137695000Y-74390000D01*
X140435000Y-67850000D02*
X137695000Y-67850000D01*
X139065000Y-75160000D02*
X139065000Y-74390000D01*
X139065000Y-67080000D02*
X139065000Y-67850000D01*
X140435000Y-74390000D02*
X140435000Y-67850000D01*
X202540000Y-71286670D02*
X193910000Y-71286670D01*
X202540000Y-70460000D02*
X193910000Y-70460000D01*
X193910000Y-59390000D02*
X193500000Y-59390000D01*
X193910000Y-69550000D02*
X193500000Y-69550000D01*
X193910000Y-67010000D02*
X193500000Y-67010000D01*
X202540000Y-70578100D02*
X193910000Y-70578100D01*
X202540000Y-57700000D02*
X193910000Y-57700000D01*
X202540000Y-71640955D02*
X193910000Y-71640955D01*
X191340000Y-73060000D02*
X191340000Y-71730000D01*
X202540000Y-71168575D02*
X193910000Y-71168575D01*
X202540000Y-71995240D02*
X193910000Y-71995240D01*
X193910000Y-73060000D02*
X193910000Y-57700000D01*
X202540000Y-72467620D02*
X193910000Y-72467620D01*
X202540000Y-71050480D02*
X193910000Y-71050480D01*
X202540000Y-72821905D02*
X193910000Y-72821905D01*
X202540000Y-72585715D02*
X193910000Y-72585715D01*
X193910000Y-72090000D02*
X193560000Y-72090000D01*
X202540000Y-67920000D02*
X193910000Y-67920000D01*
X202540000Y-65380000D02*
X193910000Y-65380000D01*
X193910000Y-64470000D02*
X193500000Y-64470000D01*
X202540000Y-71522860D02*
X193910000Y-71522860D01*
X202540000Y-71759050D02*
X193910000Y-71759050D01*
X202540000Y-70814290D02*
X193910000Y-70814290D01*
X202540000Y-71404765D02*
X193910000Y-71404765D01*
X193910000Y-68830000D02*
X193500000Y-68830000D01*
X202540000Y-71877145D02*
X193910000Y-71877145D01*
X202540000Y-62840000D02*
X193910000Y-62840000D01*
X202540000Y-73060000D02*
X193910000Y-73060000D01*
X202540000Y-72703810D02*
X193910000Y-72703810D01*
X193910000Y-58670000D02*
X193500000Y-58670000D01*
X193910000Y-71370000D02*
X193560000Y-71370000D01*
X202540000Y-72940000D02*
X193910000Y-72940000D01*
X202540000Y-72349525D02*
X193910000Y-72349525D01*
X193910000Y-61210000D02*
X193500000Y-61210000D01*
X202540000Y-60300000D02*
X193910000Y-60300000D01*
X202540000Y-70696195D02*
X193910000Y-70696195D01*
X202540000Y-73060000D02*
X202540000Y-57700000D01*
X202540000Y-72231430D02*
X193910000Y-72231430D01*
X202540000Y-72113335D02*
X193910000Y-72113335D01*
X193910000Y-61930000D02*
X193500000Y-61930000D01*
X193910000Y-63750000D02*
X193500000Y-63750000D01*
X192450000Y-73060000D02*
X191340000Y-73060000D01*
X202540000Y-70932385D02*
X193910000Y-70932385D01*
X193910000Y-66290000D02*
X193500000Y-66290000D01*
X180915000Y-65410000D02*
X180915000Y-62810000D01*
X183575000Y-65410000D02*
X183575000Y-62810000D01*
X183575000Y-66680000D02*
X183575000Y-68010000D01*
X183575000Y-62810000D02*
X180915000Y-62810000D01*
X183575000Y-65410000D02*
X180915000Y-65410000D01*
X183575000Y-68010000D02*
X182245000Y-68010000D01*
%LPC*%
D14*
X107950000Y-53340000D03*
D15*
X107950000Y-55880000D03*
D16*
X100584000Y-55880000D03*
D15*
X103124000Y-55880000D03*
D17*
X182245000Y-80645000D03*
D18*
X182245000Y-70485000D03*
D19*
X154950008Y-101589992D03*
D18*
X154950008Y-104129992D03*
X154950008Y-106669992D03*
X154950008Y-109209992D03*
X154950008Y-111749992D03*
X154950008Y-114289992D03*
X154950008Y-116829992D03*
X154950008Y-119369992D03*
X162570008Y-119369992D03*
X162570008Y-116829992D03*
X162570008Y-114289992D03*
X162570008Y-111749992D03*
X162570008Y-109209992D03*
X162570008Y-106669992D03*
X162570008Y-104129992D03*
X162570008Y-101589992D03*
D17*
X139065000Y-48300000D03*
X139065000Y-53300000D03*
D14*
X107950000Y-67310000D03*
D15*
X107950000Y-69850000D03*
D20*
X103487500Y-125095000D03*
D21*
X100947500Y-125095000D03*
X103487500Y-122555000D03*
X100947500Y-122555000D03*
X103487500Y-120015000D03*
X100947500Y-120015000D03*
X103487500Y-117475000D03*
X100947500Y-117475000D03*
X103487500Y-114935000D03*
X100947500Y-114935000D03*
X103487500Y-112395000D03*
X100947500Y-112395000D03*
X103487500Y-109855000D03*
X100947500Y-109855000D03*
X103487500Y-107315000D03*
X100947500Y-107315000D03*
X103487500Y-104775000D03*
X100947500Y-104775000D03*
X103487500Y-102235000D03*
X100947500Y-102235000D03*
X103487500Y-99695000D03*
X100947500Y-99695000D03*
X103487500Y-97155000D03*
X100947500Y-97155000D03*
X103487500Y-94615000D03*
X100947500Y-94615000D03*
X103487500Y-92075000D03*
X100947500Y-92075000D03*
X103487500Y-89535000D03*
X100947500Y-89535000D03*
X103487500Y-86995000D03*
X100947500Y-86995000D03*
X103487500Y-84455000D03*
X100947500Y-84455000D03*
X103487500Y-81915000D03*
X100947500Y-81915000D03*
X103487500Y-79375000D03*
X100947500Y-79375000D03*
X103487500Y-76835000D03*
X100947500Y-76835000D03*
X103487500Y-74295000D03*
X100947500Y-74295000D03*
X103487500Y-71755000D03*
X100947500Y-71755000D03*
X103487500Y-69215000D03*
X100947500Y-69215000D03*
X103487500Y-66675000D03*
X100947500Y-66675000D03*
X103487500Y-64135000D03*
X100947500Y-64135000D03*
D17*
X144740000Y-100330000D03*
X139740000Y-100330000D03*
D22*
X99695000Y-141605000D03*
X192405000Y-141605000D03*
D17*
X180975000Y-114935000D03*
D18*
X180975000Y-104775000D03*
D14*
X107950000Y-73660000D03*
D15*
X107950000Y-76200000D03*
D14*
X172085000Y-47625000D03*
D15*
X172085000Y-50165000D03*
D23*
X183515000Y-134620000D03*
D24*
X183515000Y-137160000D03*
X183515000Y-139700000D03*
X183515000Y-142240000D03*
D25*
X166370000Y-132080000D03*
D18*
X166370000Y-134620000D03*
X166370000Y-137160000D03*
X166370000Y-139700000D03*
X166370000Y-142240000D03*
D19*
X114300000Y-60960000D03*
D18*
X114300000Y-63500000D03*
X114300000Y-66040000D03*
X114300000Y-68580000D03*
X114300000Y-71120000D03*
X114300000Y-73660000D03*
X114300000Y-76200000D03*
X121920000Y-76200000D03*
X121920000Y-73660000D03*
X121920000Y-71120000D03*
X121920000Y-68580000D03*
X121920000Y-66040000D03*
X121920000Y-63500000D03*
X121920000Y-60960000D03*
D26*
X119380000Y-96520000D03*
D18*
X121920000Y-96520000D03*
X124460000Y-96520000D03*
X127000000Y-96520000D03*
X129540000Y-96520000D03*
X132080000Y-96520000D03*
X134620000Y-96520000D03*
X137160000Y-96520000D03*
X139700000Y-96520000D03*
X142240000Y-96520000D03*
X144780000Y-96520000D03*
X147320000Y-96520000D03*
X149860000Y-96520000D03*
X152400000Y-96520000D03*
X154940000Y-96520000D03*
X157480000Y-96520000D03*
X160020000Y-96520000D03*
X162560000Y-96520000D03*
X165100000Y-96520000D03*
X167640000Y-96520000D03*
X167640000Y-81280000D03*
X165100000Y-81280000D03*
X162560000Y-81280000D03*
X160020000Y-81280000D03*
X157480000Y-81280000D03*
X154940000Y-81280000D03*
X152400000Y-81280000D03*
X149860000Y-81280000D03*
X147320000Y-81280000D03*
X144780000Y-81280000D03*
X142240000Y-81280000D03*
X139700000Y-81280000D03*
X137160000Y-81280000D03*
X134620000Y-81280000D03*
X132080000Y-81280000D03*
X129540000Y-81280000D03*
X127000000Y-81280000D03*
X124460000Y-81280000D03*
X121920000Y-81280000D03*
X119380000Y-81280000D03*
D19*
X128270000Y-48260000D03*
D18*
X128270000Y-50800000D03*
X128270000Y-53340000D03*
X128270000Y-55880000D03*
X128270000Y-58420000D03*
X128270000Y-60960000D03*
X128270000Y-63500000D03*
X128270000Y-66040000D03*
X128270000Y-68580000D03*
X128270000Y-71120000D03*
X128270000Y-73660000D03*
X128270000Y-76200000D03*
X135890000Y-76200000D03*
X135890000Y-73660000D03*
X135890000Y-71120000D03*
X135890000Y-68580000D03*
X135890000Y-66040000D03*
X135890000Y-63500000D03*
X135890000Y-60960000D03*
X135890000Y-58420000D03*
X135890000Y-55880000D03*
X135890000Y-53340000D03*
X135890000Y-50800000D03*
X135890000Y-48260000D03*
D17*
X153035000Y-48260000D03*
X153035000Y-53260000D03*
X187325000Y-107315000D03*
X187325000Y-112315000D03*
D27*
X168910000Y-58420000D03*
D28*
X166370000Y-55880000D03*
X166370000Y-58420000D03*
X163830000Y-55880000D03*
X163830000Y-58420000D03*
X161290000Y-55880000D03*
X158750000Y-58420000D03*
X161290000Y-58420000D03*
X158750000Y-60960000D03*
X161290000Y-60960000D03*
X158750000Y-63500000D03*
X161290000Y-63500000D03*
X158750000Y-66040000D03*
X161290000Y-66040000D03*
X158750000Y-68580000D03*
X161290000Y-68580000D03*
X158750000Y-71120000D03*
X161290000Y-73660000D03*
X161290000Y-71120000D03*
X163830000Y-73660000D03*
X163830000Y-71120000D03*
X166370000Y-73660000D03*
X166370000Y-71120000D03*
X168910000Y-73660000D03*
X168910000Y-71120000D03*
X171450000Y-73660000D03*
X171450000Y-71120000D03*
X173990000Y-73660000D03*
X176530000Y-71120000D03*
X173990000Y-71120000D03*
X176530000Y-68580000D03*
X173990000Y-68580000D03*
X176530000Y-66040000D03*
X173990000Y-66040000D03*
X176530000Y-63500000D03*
X173990000Y-63500000D03*
X176530000Y-60960000D03*
X173990000Y-60960000D03*
X176530000Y-58420000D03*
X173990000Y-55880000D03*
X173990000Y-58420000D03*
X171450000Y-55880000D03*
X171450000Y-58420000D03*
X168910000Y-55880000D03*
D29*
X192405000Y-101600000D03*
D15*
X192405000Y-99060000D03*
X192405000Y-96520000D03*
X192405000Y-93980000D03*
X192405000Y-91440000D03*
X192405000Y-88900000D03*
D14*
X107950000Y-60325000D03*
D15*
X107950000Y-62865000D03*
D26*
X114300000Y-100330000D03*
D18*
X114300000Y-97790000D03*
X114300000Y-95250000D03*
X114300000Y-92710000D03*
X114300000Y-90170000D03*
X114300000Y-87630000D03*
X114300000Y-85090000D03*
X114300000Y-82550000D03*
X114300000Y-80010000D03*
D19*
X114300000Y-55880000D03*
D17*
X121920000Y-55880000D03*
X121920000Y-48260000D03*
X114300000Y-48260000D03*
X111125000Y-142240000D03*
D18*
X111125000Y-132080000D03*
D30*
X191770000Y-81890000D03*
D31*
X191770000Y-79350000D03*
D17*
X182245000Y-55245000D03*
X182245000Y-60245000D03*
D22*
X99695000Y-48895000D03*
X192405000Y-48895000D03*
D32*
X192582000Y-106700000D03*
X192582000Y-113710000D03*
D33*
X195072000Y-107950000D03*
X195072000Y-112450000D03*
D14*
X107950000Y-80010000D03*
D15*
X107950000Y-82550000D03*
D34*
X186075000Y-50165000D03*
D18*
X183535000Y-50165000D03*
X180995000Y-50165000D03*
X178455000Y-50165000D03*
X175915000Y-50165000D03*
D17*
X177760000Y-97790000D03*
X172760000Y-97790000D03*
D25*
X166370000Y-109300000D03*
D18*
X166370000Y-111840000D03*
X166370000Y-114380000D03*
X166370000Y-116920000D03*
X166370000Y-119460000D03*
D19*
X154950008Y-124479990D03*
D18*
X154950008Y-127019990D03*
X154950008Y-129559990D03*
X154950008Y-132099990D03*
X154950008Y-134639990D03*
X154950008Y-137179990D03*
X154950008Y-139719990D03*
X154950008Y-142259990D03*
X162570008Y-142259990D03*
X162570008Y-139719990D03*
X162570008Y-137179990D03*
X162570008Y-134639990D03*
X162570008Y-132099990D03*
X162570008Y-129559990D03*
X162570008Y-127019990D03*
X162570008Y-124479990D03*
D19*
X170180000Y-124460000D03*
D18*
X170180000Y-127000000D03*
X170180000Y-129540000D03*
X170180000Y-132080000D03*
X170180000Y-134620000D03*
X170180000Y-137160000D03*
X170180000Y-139700000D03*
X170180000Y-142240000D03*
X177800000Y-142240000D03*
X177800000Y-139700000D03*
X177800000Y-137160000D03*
X177800000Y-134620000D03*
X177800000Y-132080000D03*
X177800000Y-129540000D03*
X177800000Y-127000000D03*
X177800000Y-124460000D03*
D17*
X134580000Y-100330000D03*
X129580000Y-100330000D03*
D14*
X107950000Y-90170000D03*
D15*
X107950000Y-92710000D03*
X107950000Y-95250000D03*
D35*
X183769000Y-99295000D03*
D36*
X182499000Y-101365000D03*
X181229000Y-99295000D03*
D29*
X192405000Y-131445000D03*
D15*
X192405000Y-128905000D03*
X192405000Y-126365000D03*
X192405000Y-123825000D03*
X192405000Y-121285000D03*
X192405000Y-118745000D03*
D17*
X125095000Y-61000000D03*
X125095000Y-66000000D03*
X184150000Y-104775000D03*
D18*
X184150000Y-114935000D03*
D17*
X181610000Y-123905000D03*
X181610000Y-128905000D03*
X166370000Y-123825000D03*
X166370000Y-128825000D03*
X166370000Y-100965000D03*
X166370000Y-105965000D03*
D25*
X100965000Y-132779888D03*
D17*
X100965000Y-135279888D03*
D19*
X142240000Y-48260000D03*
D18*
X142240000Y-50800000D03*
X142240000Y-53340000D03*
X142240000Y-55880000D03*
X142240000Y-58420000D03*
X142240000Y-60960000D03*
X142240000Y-63500000D03*
X142240000Y-66040000D03*
X142240000Y-68580000D03*
X142240000Y-71120000D03*
X142240000Y-73660000D03*
X142240000Y-76200000D03*
X149860000Y-76200000D03*
X149860000Y-73660000D03*
X149860000Y-71120000D03*
X149860000Y-68580000D03*
X149860000Y-66040000D03*
X149860000Y-63500000D03*
X149860000Y-60960000D03*
X149860000Y-58420000D03*
X149860000Y-55880000D03*
X149860000Y-53340000D03*
X149860000Y-50800000D03*
X149860000Y-48260000D03*
D17*
X124420000Y-100330000D03*
X119420000Y-100330000D03*
D14*
X168275000Y-47625000D03*
D15*
X168275000Y-50165000D03*
D19*
X173355000Y-92710000D03*
D17*
X180975000Y-92710000D03*
X180975000Y-85090000D03*
X173355000Y-85090000D03*
D19*
X134620000Y-104140000D03*
D18*
X134620000Y-106680000D03*
X134620000Y-109220000D03*
X134620000Y-111760000D03*
X134620000Y-114300000D03*
X134620000Y-116840000D03*
X134620000Y-119380000D03*
X134620000Y-121920000D03*
X134620000Y-124460000D03*
X134620000Y-127000000D03*
X134620000Y-129540000D03*
X134620000Y-132080000D03*
X134620000Y-134620000D03*
X134620000Y-137160000D03*
X134620000Y-139700000D03*
X134620000Y-142240000D03*
X149860000Y-142240000D03*
X149860000Y-139700000D03*
X149860000Y-137160000D03*
X149860000Y-134620000D03*
X149860000Y-132080000D03*
X149860000Y-129540000D03*
X149860000Y-127000000D03*
X149860000Y-124460000D03*
X149860000Y-121920000D03*
X149860000Y-119380000D03*
X149860000Y-116840000D03*
X149860000Y-114300000D03*
X149860000Y-111760000D03*
X149860000Y-109220000D03*
X149860000Y-106680000D03*
X149860000Y-104140000D03*
D14*
X164465000Y-47625000D03*
D15*
X164465000Y-50165000D03*
D17*
X139065000Y-63420000D03*
X139065000Y-58420000D03*
D19*
X170169992Y-101589992D03*
D18*
X170169992Y-104129992D03*
X170169992Y-106669992D03*
X170169992Y-109209992D03*
X170169992Y-111749992D03*
X170169992Y-114289992D03*
X170169992Y-116829992D03*
X170169992Y-119369992D03*
X177789992Y-119369992D03*
X177789992Y-116829992D03*
X177789992Y-114289992D03*
X177789992Y-111749992D03*
X177789992Y-109209992D03*
X177789992Y-106669992D03*
X177789992Y-104129992D03*
X177789992Y-101589992D03*
D19*
X114300000Y-104140000D03*
D18*
X114300000Y-106680000D03*
X114300000Y-109220000D03*
X114300000Y-111760000D03*
X114300000Y-114300000D03*
X114300000Y-116840000D03*
X114300000Y-119380000D03*
X114300000Y-121920000D03*
X114300000Y-124460000D03*
X114300000Y-127000000D03*
X114300000Y-129540000D03*
X114300000Y-132080000D03*
X114300000Y-134620000D03*
X114300000Y-137160000D03*
X114300000Y-139700000D03*
X114300000Y-142240000D03*
X129540000Y-142240000D03*
X129540000Y-139700000D03*
X129540000Y-137160000D03*
X129540000Y-134620000D03*
X129540000Y-132080000D03*
X129540000Y-129540000D03*
X129540000Y-127000000D03*
X129540000Y-124460000D03*
X129540000Y-121920000D03*
X129540000Y-119380000D03*
X129540000Y-116840000D03*
X129540000Y-114300000D03*
X129540000Y-111760000D03*
X129540000Y-109220000D03*
X129540000Y-106680000D03*
X129540000Y-104140000D03*
D17*
X139065000Y-66040000D03*
D18*
X139065000Y-76200000D03*
D29*
X192450000Y-71730000D03*
D15*
X192450000Y-69190000D03*
X192450000Y-66650000D03*
X192450000Y-64110000D03*
X192450000Y-61570000D03*
X192450000Y-59030000D03*
D29*
X182245000Y-66680000D03*
D15*
X182245000Y-64140000D03*
M02*
